0
SECTION
2
HEADER
9
$INSUNITS
70
4
9
$ACADVER
1
AC1014
9
$HANDSEED
5
FFFF
0
ENDSEC
0
SECTION
2
TABLES
0
TABLE
2
VPORT
5
8
100
AcDbSymbolTable
0
ENDTAB
0
TABLE
2
LTYPE
5
5
100
AcDbSymbolTable
0
LTYPE
5
14
100
AcDbSymbolTableRecord
100
AcDbLinetypeTableRecord
2
BYBLOCK
70
0
0
LTYPE
5
15
100
AcDbSymbolTableRecord
100
AcDbLinetypeTableRecord
2
BYLAYER
70
0
0
LTYPE
5
16
100
AcDbSymbolTableRecord
100
AcDbLinetypeTableRecord
2
DASHED
70
0
3
Dashed __ __ __ __ __ __ __ __ __ __ __ __ __ _
72
65
73
2
40
0.75
49
0.5
74
0
49
-0.25
74
0
0
ENDTAB
0
TABLE
2
LAYER
5
2
100
AcDbSymbolTable
70
2
0
LAYER
5
50
100
AcDbSymbolTableRecord
100
AcDbLayerTableRecord
2
0
70
0
62
7
6
CONTINUOUS
0
ENDTAB
0
TABLE
2
STYLE
5
3
100
AcDbSymbolTable
70
1
0
STYLE
5
11
100
AcDbSymbolTableRecord
100
AcDbTextStyleTableRecord
2
STANDARD
70
0
0
ENDTAB
0
TABLE
2
VIEW
5
6
100
AcDbSymbolTable
70
0
0
ENDTAB
0
TABLE
2
UCS
5
7
100
AcDbSymbolTable
70
0
0
ENDTAB
0
TABLE
2
APPID
5
9
100
AcDbSymbolTable
70
2
0
APPID
5
12
100
AcDbSymbolTableRecord
100
AcDbRegAppTableRecord
2
ACAD
70
0
0
ENDTAB
0
TABLE
2
DIMSTYLE
5
A
100
AcDbSymbolTable
70
1
0
ENDTAB
0
TABLE
2
BLOCK_RECORD
5
1
100
AcDbSymbolTable
70
1
0
BLOCK_RECORD
5
1F
100
AcDbSymbolTableRecord
100
AcDbBlockTableRecord
2
*MODEL_SPACE
0
BLOCK_RECORD
5
1B
100
AcDbSymbolTableRecord
100
AcDbBlockTableRecord
2
*PAPER_SPACE
0
ENDTAB
0
ENDSEC
0
SECTION
2
BLOCKS
0
BLOCK
5
20
100
AcDbEntity
100
AcDbBlockBegin
2
*MODEL_SPACE
0
ENDBLK
5
21
100
AcDbEntity
100
AcDbBlockEnd
0
BLOCK
5
1C
100
AcDbEntity
100
AcDbBlockBegin
2
*PAPER_SPACE
0
ENDBLK
5
1D
100
AcDbEntity
100
AcDbBlockEnd
0
ENDSEC
0
SECTION
2
ENTITIES
0
LINE
5
100
100
AcDbEntity
8
0
100
AcDbLine
10
24.333273775674652
20
-27.816221556392723
30
0
11
11.251798112989279
21
-14.734745893707348
31
0
0
CIRCLE
5
101
100
AcDbEntity
8
0
100
AcDbCircle
10
25.00000037252903
20
-15.000000223517418
30
0
40
2.0000000298023224
210
0
220
-0
230
1
0
LWPOLYLINE
5
102
100
AcDbEntity
8
0
100
AcDbPolyline
90
16
70
1
43
0.0
10
18.999998971819871
20
-7.9999994933605247
10
18.999998971819874
20
-0.99999999999999978
10
1.0000000000000009
20
-1.0000000000000009
10
1.0000000000000009
20
-28.999999999999993
10
5.000000074505806
20
-29
10
5.000000074505806
20
-28
10
5.000000074505806
20
-29
10
20.857864301763236
20
-28.999999999999993
42
-0.19891236737965801
10
28.636038894815261
20
-32.221825406947971
10
32.000000476837158
20
-35.585786988969872
10
35.585786988969872
20
-32.000000476837158
10
32.221825406947971
20
-28.636038894815261
42
-0.19891236737965801
10
29
20
-20.857864301763236
10
28.999999999999993
20
-1.0000000000000009
10
22.999999031424512
20
-0.99999999999999978
10
22.999999031424498
20
-7.9999994933605247
42
-0.99999999999999989
0
LWPOLYLINE
5
103
100
AcDbEntity
8
0
100
AcDbPolyline
90
8
70
1
43
0.0
10
14.787332071605576
20
-11.199211935091054
10
27.868807734290947
20
-24.280687597776414
42
-0.41421356237309503
10
27.868807734290939
20
-25.341347769556236
10
25.393933947454475
20
-27.816221556392719
42
-0.41421356237309387
10
24.333273775674652
20
-27.816221556392723
10
11.251798112989279
20
-14.734745893707348
42
-0.41421356237309387
10
11.251798112989279
20
-13.674085721927529
10
13.726671899825753
20
-11.199211935091054
42
-0.41421356237309503
0
LINE
5
104
100
AcDbEntity
8
0
100
AcDbLine
10
30
20
20.857864301763239
30
0
11
30
21
-20.857864301763239
31
0
0
LWPOLYLINE
5
105
100
AcDbEntity
8
0
100
AcDbPolyline
90
32
70
1
43
0.0
10
-36.469670465453056
20
-31.46967039094725
42
0.41421356237309503
10
-36.469670465453056
20
-32.530330562727066
10
-32.530330562727066
20
-36.469670465453056
42
0.41421356237309503
10
-31.46967039094725
20
-36.469670465453056
10
-27.928932113628715
20
-32.928932188134532
42
-0.19891236737965881
10
-20.857864301763236
20
-30
10
20.857864301763236
20
-30.000000000000004
42
-0.19891236737965753
10
27.928932113628711
20
-32.928932188134524
10
31.46967039094725
20
-36.469670465453056
42
0.41421356237309503
10
32.530330562727066
20
-36.469670465453056
10
36.469670465453056
20
-32.530330562727066
42
0.41421356237309503
10
36.469670465453056
20
-31.46967039094725
10
32.928932188134517
20
-27.928932113628711
42
-0.19891236737965731
10
30
20
-20.857864301763239
10
30.000000000000004
20
20.85786430176325
42
-0.19891236737965742
10
32.928932188134524
20
27.928932113628719
10
36.469670465453056
20
31.46967039094725
42
0.41421356237309503
10
36.469670465453056
20
32.530330562727066
10
32.530330562727066
20
36.469670465453056
42
0.41421356237309503
10
31.46967039094725
20
36.469670465453056
10
27.928932113628711
20
32.928932188134517
42
-0.19891236737965731
10
20.857864301763239
20
30
10
-20.857864301763232
20
30.000000000000004
42
-0.19891236737965801
10
-27.928932113628711
20
32.928932188134524
10
-31.46967039094725
20
36.469670465453056
42
0.41421356237309503
10
-32.530330562727066
20
36.469670465453056
10
-36.469670465453056
20
32.530330562727066
42
0.41421356237309503
10
-36.469670465453056
20
31.46967039094725
10
-32.928932188134517
20
27.928932113628711
42
-0.19891236737965731
10
-30
20
20.857864301763239
10
-30.000000000000004
20
-20.857864301763243
42
-0.19891236737965753
10
-32.928932188134524
20
-27.928932113628719
0
LWPOLYLINE
5
106
100
AcDbEntity
8
0
100
AcDbPolyline
90
28
70
1
43
0.0
10
32.221825406947971
20
28.63603889481525
42
0.1989123673796577
10
28.999999999999993
20
20.857864301763232
10
29.000000000000004
20
-20.857864301763236
42
0.19891236737965745
10
32.221825406947971
20
-28.636038894815258
10
35.585786988969872
20
-32.000000476837158
10
32.000000476837158
20
-35.585786988969872
10
28.636038894815261
20
-32.221825406947971
42
0.19891236737965784
10
20.857864301763232
20
-28.999999999999993
10
1.0000000000000009
20
-28.999999999999993
10
-1.0000000000000009
20
-28.999999999999993
10
-20.857864301763236
20
-29.000000000000004
42
0.19891236737965862
10
-28.636038894815258
20
-32.221825406947971
10
-32.000000476837158
20
-35.585786988969872
10
-35.585786988969872
20
-32.000000476837158
10
-32.221825406947971
20
-28.636038894815261
42
0.19891236737965784
10
-28.999999999999993
20
-20.857864301763232
10
-28.999999999999993
20
-1.0000000000000009
10
-28.999999999999993
20
1.0000000000000009
10
-29.000000000000004
20
20.857864301763236
42
0.19891236737965745
10
-32.221825406947971
20
28.636038894815258
10
-35.585786988969872
20
32.000000476837158
10
-32.000000476837158
20
35.585786988969872
10
-28.636038894815261
20
32.221825406947971
42
0.19891236737965814
10
-20.857864301763232
20
28.999999999999993
10
20.857864301763236
20
28.999999999999993
42
0.19891236737965745
10
28.636038894815258
20
32.221825406947971
10
32.000000476837158
20
35.585786988969872
10
35.585786988969872
20
32.000000476837158
0
LWPOLYLINE
5
107
100
AcDbEntity
8
0
100
AcDbPolyline
90
12
70
1
43
0.0
10
1
20
19.5
10
-1
20
19.5
10
-1.0000000000000009
20
1.0000000000000009
10
-19.000000968575488
20
1
10
-19.000000968575488
20
-1
10
-1.0000000000000009
20
-1.0000000000000004
10
-0.99999999999996092
20
-29.000000288089112
10
1.0000000000000009
20
-28.999999999999993
10
1.0000000000000009
20
-1.0000000000000009
10
18.999998971819874
20
-1
10
18.999998971819874
20
1
10
1.0000000000000009
20
1.0000000000000004
0
CIRCLE
5
108
100
AcDbEntity
8
0
100
AcDbCircle
10
-25.00000037252903
20
-15.000000223517418
30
0
40
2.0000000298023224
210
0
220
-0
230
1
0
LWPOLYLINE
5
109
100
AcDbEntity
8
0
100
AcDbPolyline
90
16
70
1
43
0.0
10
-23.000001028180129
20
-7.9999994933605141
10
-23.000001028180126
20
-0.99999999999999978
10
-28.999999999999993
20
-1.0000000000000009
10
-28.999999999999993
20
-20.857864301763236
42
-0.19891236737965801
10
-32.221825406947971
20
-28.636038894815261
10
-35.585786988969872
20
-32.000000476837158
10
-32.000000476837158
20
-35.585786988969872
10
-28.636038894815261
20
-32.221825406947971
42
-0.19891236737965801
10
-20.857864301763236
20
-29
10
-5.000000074505806
20
-29
10
-5.000000074505806
20
-28
10
-5.000000074505806
20
-29
10
-1.0000000000000009
20
-28.999999999999993
10
-1.0000000000000009
20
-1.0000000000000009
10
-19.000000968575492
20
-0.99999999999999978
10
-19.000000968575502
20
-7.9999994933605141
42
-0.99999999999999989
0
LWPOLYLINE
5
110
100
AcDbEntity
8
0
100
AcDbPolyline
90
8
70
1
43
0.0
10
-27.868807734290947
20
-24.280687597776414
10
-14.787332071605576
20
-11.199211935091054
42
-0.41421356237309015
10
-13.726671899825753
20
-11.199211935091054
10
-11.251798112989279
20
-13.674085721927529
42
-0.41421356237309265
10
-11.251798112989279
20
-14.734745893707348
10
-24.333273775674652
20
-27.816221556392723
42
-0.41421356237309265
10
-25.393933947454475
20
-27.816221556392719
10
-27.868807734290939
20
-25.341347769556236
42
-0.41421356237309503
0
CIRCLE
5
111
100
AcDbEntity
8
0
100
AcDbCircle
10
-24.999999403953552
20
-15.000000223517418
30
0
40
1.25
210
-0
220
0
230
1
0
CIRCLE
5
112
100
AcDbEntity
8
0
100
AcDbCircle
10
-24.999999403953552
20
-15.000000223517418
30
0
40
1.9500000000000028
210
0
220
-0
230
1
0
CIRCLE
5
113
100
AcDbEntity
8
0
100
AcDbCircle
10
-24.999999403953552
20
-15.000000223517418
30
0
40
1.25
210
0
220
-0
230
1
0
CIRCLE
5
114
100
AcDbEntity
8
0
100
AcDbCircle
10
-24.999999403953552
20
-15.000000223517418
30
0
40
1.9500000000000028
210
0
220
-0
230
1
0
CIRCLE
5
115
100
AcDbEntity
8
0
100
AcDbCircle
10
25.000000596046448
20
-15.000000223517418
30
0
40
1.25
210
-0
220
0
230
1
0
CIRCLE
5
116
100
AcDbEntity
8
0
100
AcDbCircle
10
25.000000596046448
20
-15.000000223517418
30
0
40
1.25
210
-0
220
0
230
1
0
CIRCLE
5
117
100
AcDbEntity
8
0
100
AcDbCircle
10
25.000000596046448
20
-15.000000223517418
30
0
40
1.25
210
0
220
-0
230
1
0
CIRCLE
5
118
100
AcDbEntity
8
0
100
AcDbCircle
10
25.000000596046448
20
-15.000000223517418
30
0
40
1.9500000000000028
210
0
220
-0
230
1
0
LWPOLYLINE
5
119
100
AcDbEntity
8
0
100
AcDbPolyline
90
4
70
1
43
0.0
10
22.999999031424512
20
1
10
22.999999031424512
20
-1
10
28.999999999999993
20
-1.0000000000000004
10
28.999999999999993
20
1.0000000000000007
0
CIRCLE
5
120
100
AcDbEntity
8
0
100
AcDbCircle
10
25.00000037252903
20
15.000000223517418
30
0
40
2.0000000298023224
210
0
220
-0
230
1
0
LWPOLYLINE
5
121
100
AcDbEntity
8
0
100
AcDbPolyline
90
13
70
1
43
0.0
10
22.999999031424515
20
8.0000007450580544
10
22.999999031424512
20
0.99999999999999978
10
28.999999999999993
20
1.0000000000000009
10
28.999999999999993
20
20.857864301763236
42
-0.19891236737965801
10
32.221825406947971
20
28.636038894815261
10
35.585786988969872
20
32.000000476837158
10
32.000000476837158
20
35.585786988969872
10
28.636038894815261
20
32.221825406947971
42
-0.19891236737965801
10
20.857864301763236
20
29
10
1.0000000000000009
20
28.999999999999993
10
1.0000000000000009
20
1.0000000000000009
10
18.999998971819878
20
0.99999999999999978
10
18.999998971819871
20
8.0000007450580526
42
-0.99999999999999989
0
LWPOLYLINE
5
122
100
AcDbEntity
8
0
100
AcDbPolyline
90
8
70
1
43
0.0
10
27.868807734290947
20
24.280687597776414
10
14.787332071605576
20
11.199211935091054
42
-0.41421356237309015
10
13.726671899825753
20
11.199211935091054
10
11.251798112989279
20
13.674085721927529
42
-0.41421356237309265
10
11.251798112989279
20
14.734745893707348
10
24.333273775674652
20
27.816221556392723
42
-0.41421356237309265
10
25.393933947454475
20
27.816221556392719
10
27.868807734290939
20
25.341347769556236
42
-0.41421356237309503
0
CIRCLE
5
123
100
AcDbEntity
8
0
100
AcDbCircle
10
25.000000596046448
20
14.999999776482582
30
0
40
1.25
210
-0
220
0
230
1
0
CIRCLE
5
124
100
AcDbEntity
8
0
100
AcDbCircle
10
25.000000596046448
20
14.999999776482582
30
0
40
1.25
210
-0
220
0
230
1
0
CIRCLE
5
125
100
AcDbEntity
8
0
100
AcDbCircle
10
25.000000596046448
20
14.999999776482582
30
0
40
1.25
210
0
220
-0
230
1
0
CIRCLE
5
126
100
AcDbEntity
8
0
100
AcDbCircle
10
25.000000596046448
20
14.999999776482582
30
0
40
1.9500000000000028
210
0
220
-0
230
1
0
LWPOLYLINE
5
127
100
AcDbEntity
8
0
100
AcDbPolyline
90
8
70
1
43
0.0
10
-2.500000037252903
20
29
10
-1.0000000000000009
20
29
10
-1
20
20
10
0.99999999999999978
20
20
10
1.0000000000000009
20
29
10
3.5000000521540642
20
29
10
3.5000000521540642
20
30
10
-2.500000037252903
20
30
0
LINE
5
128
100
AcDbEntity
8
0
100
AcDbLine
10
-1
20
19.5
30
0
11
1
21
19.5
31
0
0
LWPOLYLINE
5
129
100
AcDbEntity
8
0
100
AcDbPolyline
90
4
70
1
43
0.0
10
-1
20
20
10
-1
20
19.5
10
1
20
19.5
10
0.99999999999999978
20
20
0
CIRCLE
5
130
100
AcDbEntity
8
0
100
AcDbCircle
10
-25.00000037252903
20
15.000000223517418
30
0
40
2.0000000298023224
210
0
220
-0
230
1
0
LWPOLYLINE
5
131
100
AcDbEntity
8
0
100
AcDbPolyline
90
13
70
1
43
0.0
10
-23.000001028180126
20
0.99999999999999978
10
-23.000001028180129
20
8.000000745058065
42
-0.99999999999999989
10
-19.000000968575485
20
8.000000745058065
10
-19.000000968575488
20
0.99999999999999978
10
-1.0000000000000009
20
1.0000000000000009
10
-1.0000000000000009
20
28.999999999999993
10
-20.857864301763236
20
28.999999999999993
42
-0.19891236737965801
10
-28.636038894815261
20
32.221825406947971
10
-32.000000476837158
20
35.585786988969872
10
-35.585786988969872
20
32.000000476837158
10
-32.221825406947971
20
28.636038894815261
42
-0.19891236737965801
10
-29
20
20.857864301763236
10
-28.999999999999993
20
1.0000000000000009
0
LWPOLYLINE
5
132
100
AcDbEntity
8
0
100
AcDbPolyline
90
8
70
1
43
0.0
10
-14.787332071605576
20
11.199211935091054
10
-27.868807734290947
20
24.280687597776414
42
-0.41421356237309503
10
-27.868807734290939
20
25.341347769556236
10
-25.393933947454475
20
27.816221556392719
42
-0.41421356237309387
10
-24.333273775674652
20
27.816221556392723
10
-11.251798112989279
20
14.734745893707348
42
-0.41421356237309387
10
-11.251798112989279
20
13.674085721927529
10
-13.726671899825753
20
11.199211935091054
42
-0.41421356237309503
0
LWPOLYLINE
5
133
100
AcDbEntity
8
0
100
AcDbPolyline
90
4
70
1
43
0.0
10
-23.000001028180126
20
-1
10
-23.000001028180126
20
1
10
-29.000000288089112
20
0.99999999999995859
10
-28.999999999999993
20
-1.0000000000000011
0
CIRCLE
5
134
100
AcDbEntity
8
0
100
AcDbCircle
10
-24.999999403953552
20
14.999999776482582
30
0
40
1.25
210
-0
220
0
230
1
0
CIRCLE
5
135
100
AcDbEntity
8
0
100
AcDbCircle
10
-24.999999403953552
20
14.999999776482582
30
0
40
1.25
210
0
220
-0
230
1
0
CIRCLE
5
136
100
AcDbEntity
8
0
100
AcDbCircle
10
-24.999999403953552
20
14.999999776482582
30
0
40
1.9500000000000028
210
0
220
-0
230
1
0
ENDSEC
0
SECTION
2
OBJECTS
0
DICTIONARY
5
C
100
AcDbDictionary
3
ACAD_GROUP
350
D
3
ACAD_MLINESTYLE
350
17
0
DICTIONARY
5
D
100
AcDbDictionary
0
DICTIONARY
5
1A
330
C
100
AcDbDictionary
0
DICTIONARY
5
17
100
AcDbDictionary
0
ENDSEC
0
EOF
