  0
SECTION
  2
HEADER
  9
$ACADVER
  1
AC1006
  9
$EXTMIN
 10
0.000000
 20
0.000000
 30
0.000000
  9
$EXTMAX
 10
1181.000000
 20
1181.000000
 30
0.000000
  0
ENDSEC
  0
SECTION
  2
ENTITIES
  0
POLYLINE
  8
0
 66
1
 70
1
  0
VERTEX
  8
0
 10
368.500000
 20
648.903773
 42
0.054526
  0
VERTEX
  8
0
 10
355.107758
 20
645.688455
 42
0.050221
  0
VERTEX
  8
0
 10
342.326947
 20
639.594344
 42
0.050445
  0
VERTEX
  8
0
 10
331.071588
 20
631.107179
 42
0.056174
  0
VERTEX
  8
0
 10
322.192508
 20
620.811842
 42
0.079492
  0
VERTEX
  8
0
 10
314.572959
 20
604.660084
 42
0.072836
  0
VERTEX
  8
0
 10
312.065351
 20
586.434131
 42
0.072360
  0
VERTEX
  8
0
 10
314.888561
 20
568.145167
 42
0.076683
  0
VERTEX
  8
0
 10
322.792094
 20
551.812552
 42
0.040860
  0
VERTEX
  8
0
 10
329.259911
 20
543.902704
 42
0.040598
  0
VERTEX
  8
0
 10
336.940956
 20
537.131398
 42
0.039972
  0
VERTEX
  8
0
 10
345.733733
 20
531.600633
 42
0.037135
  0
VERTEX
  8
0
 10
355.509598
 20
527.382607
 42
0.016107
  0
VERTEX
  8
0
 10
360.380236
 20
525.871178
 42
0.034105
  0
VERTEX
  8
0
 10
364.250899
 20
525.084556
 42
0.026979
  0
VERTEX
  8
0
 10
368.721624
 20
524.733481
 42
0.006858
  0
VERTEX
  8
0
 10
376.000000
 20
524.655550
 42
0.006656
  0
VERTEX
  8
0
 10
383.471711
 20
524.777498
 42
0.029826
  0
VERTEX
  8
0
 10
387.828911
 20
525.167487
 42
0.037446
  0
VERTEX
  8
0
 10
391.629963
 20
526.032487
 42
0.014779
  0
VERTEX
  8
0
 10
396.710803
 20
527.762417
 42
0.007147
  0
VERTEX
  8
0
 10
400.020151
 20
529.053689
 42
0.007957
  0
VERTEX
  8
0
 10
403.174057
 20
530.395432
 42
0.007435
  0
VERTEX
  8
0
 10
405.824170
 20
531.620507
 42
0.040805
  0
VERTEX
  8
0
 10
407.183309
 20
532.415841
 42
-0.026042
  0
VERTEX
  8
0
 10
409.316068
 20
533.749828
 42
-0.280441
  0
VERTEX
  8
0
 10
410.291147
 20
533.710837
 42
-0.214970
  0
VERTEX
  8
0
 10
410.874150
 20
532.781964
 42
-0.016196
  0
VERTEX
  8
0
 10
411.192502
 20
529.750000
 42
0.000000
  0
VERTEX
  8
0
 10
411.500000
 20
525.500000
 42
0.000000
  0
VERTEX
  8
0
 10
423.103895
 20
525.219529
 42
0.000000
  0
VERTEX
  8
0
 10
434.707789
 20
524.939057
 42
0.000000
  0
VERTEX
  8
0
 10
435.417148
 20
544.752347
 42
0.005896
  0
VERTEX
  8
0
 10
435.778435
 20
559.806092
 42
0.025760
  0
VERTEX
  8
0
 10
435.428520
 20
568.704064
 42
0.043322
  0
VERTEX
  8
0
 10
434.310131
 20
574.942020
 42
0.056683
  0
VERTEX
  8
0
 10
432.177897
 20
580.323550
 42
0.049012
  0
VERTEX
  8
0
 10
429.362408
 20
584.542881
 42
0.054843
  0
VERTEX
  8
0
 10
425.872523
 20
587.959863
 42
0.050643
  0
VERTEX
  8
0
 10
421.481240
 20
590.737916
 42
0.033274
  0
VERTEX
  8
0
 10
415.957972
 20
593.049349
 42
0.029789
  0
VERTEX
  8
0
 10
411.683679
 20
594.233497
 42
0.026735
  0
VERTEX
  8
0
 10
407.141799
 20
594.953626
 42
0.016056
  0
VERTEX
  8
0
 10
400.832314
 20
595.406649
 42
0.003474
  0
VERTEX
  8
0
 10
389.902470
 20
595.763314
 42
0.000000
  0
VERTEX
  8
0
 10
370.304941
 20
596.266555
 42
0.000000
  0
VERTEX
  8
0
 10
369.663476
 20
592.383277
 42
0.021054
  0
VERTEX
  8
0
 10
369.415099
 20
590.350895
 42
0.006343
  0
VERTEX
  8
0
 10
369.207209
 20
587.244307
 42
0.006344
  0
VERTEX
  8
0
 10
369.062311
 20
583.750163
 42
0.006852
  0
VERTEX
  8
0
 10
369.011006
 20
580.342024
 42
0.000000
  0
VERTEX
  8
0
 10
369.000000
 20
572.184047
 42
0.000000
  0
VERTEX
  8
0
 10
388.347973
 20
571.842024
 42
-0.004832
  0
VERTEX
  8
0
 10
401.623630
 20
571.478988
 42
-0.045169
  0
VERTEX
  8
0
 10
407.293850
 20
570.753366
 42
-0.141080
  0
VERTEX
  8
0
 10
409.968588
 20
569.299553
 42
-0.200790
  0
VERTEX
  8
0
 10
411.000000
 20
566.834714
 42
-0.127843
  0
VERTEX
  8
0
 10
410.731101
 20
565.800226
 42
-0.021057
  0
VERTEX
  8
0
 10
409.641814
 20
564.026423
 42
-0.021967
  0
VERTEX
  8
0
 10
408.146641
 20
562.004591
 42
-0.017837
  0
VERTEX
  8
0
 10
406.376387
 20
559.971302
 42
-0.099720
  0
VERTEX
  8
0
 10
395.313767
 20
552.073776
 42
-0.081415
  0
VERTEX
  8
0
 10
381.226869
 20
548.345452
 42
-0.079273
  0
VERTEX
  8
0
 10
366.333683
 20
549.269315
 42
-0.086525
  0
VERTEX
  8
0
 10
352.953875
 20
554.812808
 42
-0.105432
  0
VERTEX
  8
0
 10
343.175594
 20
564.399322
 42
-0.087326
  0
VERTEX
  8
0
 10
337.337882
 20
577.793973
 42
-0.087998
  0
VERTEX
  8
0
 10
336.449465
 20
592.280845
 42
-0.109575
  0
VERTEX
  8
0
 10
340.842697
 20
605.000000
 42
-0.056674
  0
VERTEX
  8
0
 10
348.049605
 20
614.208200
 42
-0.076060
  0
VERTEX
  8
0
 10
356.527099
 20
620.542001
 42
-0.076550
  0
VERTEX
  8
0
 10
366.466343
 20
624.024727
 42
-0.058282
  0
VERTEX
  8
0
 10
377.992413
 20
624.807358
 42
-0.052639
  0
VERTEX
  8
0
 10
387.575076
 20
623.321655
 42
-0.065873
  0
VERTEX
  8
0
 10
395.887644
 20
619.899367
 42
-0.066118
  0
VERTEX
  8
0
 10
403.000725
 20
614.445230
 42
-0.053572
  0
VERTEX
  8
0
 10
409.033871
 20
606.947217
 42
0.000000
  0
VERTEX
  8
0
 10
412.208491
 20
602.000000
 42
0.000000
  0
VERTEX
  8
0
 10
424.712654
 20
602.000000
 42
0.000000
  0
VERTEX
  8
0
 10
437.216816
 20
602.000000
 42
0.000000
  0
VERTEX
  8
0
 10
436.583728
 20
604.750000
 42
0.036734
  0
VERTEX
  8
0
 10
436.115519
 20
606.265164
 42
0.007297
  0
VERTEX
  8
0
 10
435.042296
 20
608.892973
 42
0.007688
  0
VERTEX
  8
0
 10
433.697932
 20
611.922031
 42
0.007089
  0
VERTEX
  8
0
 10
432.225319
 20
614.992036
 42
0.084262
  0
VERTEX
  8
0
 10
421.339366
 20
629.936184
 42
0.071137
  0
VERTEX
  8
0
 10
405.525841
 20
641.492099
 42
0.070993
  0
VERTEX
  8
0
 10
387.073839
 20
648.171025
 42
0.083248
  0
SEQEND
  0
POLYLINE
  8
0
 66
1
 70
1
  0
VERTEX
  8
0
 10
136.217463
 20
635.342645
 42
0.000000
  0
VERTEX
  8
0
 10
136.500000
 20
623.500000
 42
0.000000
  0
VERTEX
  8
0
 10
168.500000
 20
622.971425
 42
-0.002576
  0
VERTEX
  8
0
 10
190.883926
 20
622.486316
 42
-0.027572
  0
VERTEX
  8
0
 10
199.938906
 20
621.742578
 42
-0.059273
  0
VERTEX
  8
0
 10
206.147927
 20
620.120793
 42
-0.034548
  0
VERTEX
  8
0
 10
213.111044
 20
616.817434
 42
-0.105584
  0
VERTEX
  8
0
 10
220.329983
 20
610.454943
 42
-0.066447
  0
VERTEX
  8
0
 10
225.792670
 20
600.580059
 42
-0.064771
  0
VERTEX
  8
0
 10
228.591173
 20
589.302256
 42
-0.086525
  0
VERTEX
  8
0
 10
227.972998
 20
578.792437
 42
-0.057159
  0
VERTEX
  8
0
 10
224.471580
 20
569.066580
 42
-0.075491
  0
VERTEX
  8
0
 10
219.079543
 20
561.359228
 42
-0.075837
  0
VERTEX
  8
0
 10
211.664176
 20
555.624757
 42
-0.058321
  0
VERTEX
  8
0
 10
202.187713
 20
551.725355
 42
-0.054348
  0
VERTEX
  8
0
 10
199.587073
 20
551.291599
 42
-0.002426
  0
VERTEX
  8
0
 10
190.477016
 20
550.819034
 42
-0.004059
  0
VERTEX
  8
0
 10
179.644190
 20
550.397897
 42
-0.002889
  0
VERTEX
  8
0
 10
167.500000
 20
550.094714
 42
0.000000
  0
VERTEX
  8
0
 10
136.500000
 20
549.500000
 42
0.000000
  0
VERTEX
  8
0
 10
136.500000
 20
538.000000
 42
0.000000
  0
VERTEX
  8
0
 10
136.500000
 20
526.500000
 42
0.000000
  0
VERTEX
  8
0
 10
168.500000
 20
526.500000
 42
0.001391
  0
VERTEX
  8
0
 10
188.563612
 20
526.555798
 42
0.013285
  0
VERTEX
  8
0
 10
197.121800
 20
526.830864
 42
0.029682
  0
VERTEX
  8
0
 10
202.781591
 20
527.502088
 42
0.027104
  0
VERTEX
  8
0
 10
208.500000
 20
528.850581
 42
0.024468
  0
VERTEX
  8
0
 10
216.569464
 20
531.657076
 42
0.035021
  0
VERTEX
  8
0
 10
223.377539
 20
534.976421
 42
0.035916
  0
VERTEX
  8
0
 10
229.526799
 20
539.142503
 42
0.027737
  0
VERTEX
  8
0
 10
235.601796
 20
544.500000
 42
0.048101
  0
VERTEX
  8
0
 10
243.056631
 20
553.414035
 42
0.058077
  0
VERTEX
  8
0
 10
248.134473
 20
563.065248
 42
0.055059
  0
VERTEX
  8
0
 10
251.036276
 20
574.048264
 42
0.037374
  0
VERTEX
  8
0
 10
251.988131
 20
586.960099
 42
0.019055
  0
VERTEX
  8
0
 10
251.668200
 20
595.110804
 42
0.033722
  0
VERTEX
  8
0
 10
250.698007
 20
601.766220
 42
0.035930
  0
VERTEX
  8
0
 10
248.896876
 20
607.936743
 42
0.025414
  0
VERTEX
  8
0
 10
246.040837
 20
614.568613
 42
0.053113
  0
VERTEX
  8
0
 10
239.358072
 20
625.143182
 42
0.060717
  0
VERTEX
  8
0
 10
230.855667
 20
633.550812
 42
0.057485
  0
VERTEX
  8
0
 10
220.175101
 20
640.006400
 42
0.040791
  0
VERTEX
  8
0
 10
207.000000
 20
644.775218
 42
0.043610
  0
VERTEX
  8
0
 10
202.790284
 20
645.535109
 42
0.010109
  0
VERTEX
  8
0
 10
195.606497
 20
646.047484
 42
0.007198
  0
VERTEX
  8
0
 10
185.057371
 20
646.433649
 42
0.002067
  0
VERTEX
  8
0
 10
168.717463
 20
646.728772
 42
0.000000
  0
VERTEX
  8
0
 10
135.934926
 20
647.185290
 42
0.000000
  0
SEQEND
  0
POLYLINE
  8
0
 66
1
 70
1
  0
VERTEX
  8
0
 10
271.000000
 20
586.000000
 42
0.000000
  0
VERTEX
  8
0
 10
271.000000
 20
525.000000
 42
0.000000
  0
VERTEX
  8
0
 10
283.000000
 20
525.000000
 42
0.000000
  0
VERTEX
  8
0
 10
295.000000
 20
525.000000
 42
0.000000
  0
VERTEX
  8
0
 10
295.000000
 20
586.000000
 42
0.000000
  0
VERTEX
  8
0
 10
295.000000
 20
647.000000
 42
0.000000
  0
VERTEX
  8
0
 10
283.000000
 20
647.000000
 42
0.000000
  0
VERTEX
  8
0
 10
271.000000
 20
647.000000
 42
0.000000
  0
SEQEND
  0
POLYLINE
  8
0
 66
1
 70
1
  0
VERTEX
  8
0
 10
454.242254
 20
586.250000
 42
0.000000
  0
VERTEX
  8
0
 10
454.500000
 20
525.500000
 42
0.000000
  0
VERTEX
  8
0
 10
466.250000
 20
525.218265
 42
0.000000
  0
VERTEX
  8
0
 10
478.000000
 20
524.936529
 42
0.000000
  0
VERTEX
  8
0
 10
478.000000
 20
585.968265
 42
0.000000
  0
VERTEX
  8
0
 10
478.000000
 20
647.000000
 42
0.000000
  0
VERTEX
  8
0
 10
465.992254
 20
647.000000
 42
0.000000
  0
VERTEX
  8
0
 10
453.984508
 20
647.000000
 42
0.000000
  0
SEQEND
  0
POLYLINE
  8
0
 66
1
 70
1
  0
VERTEX
  8
0
 10
495.218265
 20
635.250000
 42
0.000000
  0
VERTEX
  8
0
 10
495.500000
 20
623.500000
 42
0.000000
  0
VERTEX
  8
0
 10
538.170376
 20
623.000000
 42
0.000000
  0
VERTEX
  8
0
 10
580.840752
 20
622.500000
 42
0.000000
  0
VERTEX
  8
0
 10
583.421897
 20
620.074257
 42
-0.103645
  0
VERTEX
  8
0
 10
586.297277
 20
615.959113
 42
-0.101183
  0
VERTEX
  8
0
 10
587.311094
 20
610.999649
 42
-0.101186
  0
VERTEX
  8
0
 10
586.296902
 20
606.040371
 42
-0.103656
  0
VERTEX
  8
0
 10
583.421221
 20
601.925743
 42
-0.105552
  0
VERTEX
  8
0
 10
581.014170
 20
600.470047
 42
-0.057485
  0
VERTEX
  8
0
 10
577.627729
 20
599.717229
 42
-0.018206
  0
VERTEX
  8
0
 10
571.360163
 20
599.293552
 42
-0.001188
  0
VERTEX
  8
0
 10
553.169700
 20
598.771133
 42
0.003214
  0
VERTEX
  8
0
 10
542.168392
 20
598.410569
 42
0.004060
  0
VERTEX
  8
0
 10
531.999410
 20
597.929112
 42
0.003233
  0
VERTEX
  8
0
 10
523.483428
 20
597.401336
 42
0.032498
  0
VERTEX
  8
0
 10
519.955951
 20
596.928195
 42
0.082754
  0
VERTEX
  8
0
 10
511.530130
 20
593.723567
 42
0.076992
  0
VERTEX
  8
0
 10
504.359236
 20
587.897993
 42
0.073847
  0
VERTEX
  8
0
 10
499.055259
 20
579.932278
 42
0.066999
  0
VERTEX
  8
0
 10
496.073625
 20
570.501382
 42
0.027640
  0
VERTEX
  8
0
 10
495.656134
 20
566.953871
 42
0.005086
  0
VERTEX
  8
0
 10
495.315377
 20
560.369703
 42
0.005449
  0
VERTEX
  8
0
 10
495.078788
 20
552.650127
 42
0.004935
  0
VERTEX
  8
0
 10
495.000000
 20
544.668087
 42
0.000000
  0
VERTEX
  8
0
 10
495.000000
 20
525.000000
 42
0.000000
  0
VERTEX
  8
0
 10
506.500000
 20
525.000000
 42
0.000000
  0
VERTEX
  8
0
 10
518.000000
 20
525.000000
 42
0.000000
  0
VERTEX
  8
0
 10
518.005577
 20
543.250000
 42
-0.005150
  0
VERTEX
  8
0
 10
518.082563
 20
550.508174
 42
-0.006495
  0
VERTEX
  8
0
 10
518.310222
 20
557.221744
 42
-0.005256
  0
VERTEX
  8
0
 10
518.632785
 20
562.835274
 42
-0.050794
  0
VERTEX
  8
0
 10
519.034833
 20
565.185724
 42
-0.047677
  0
VERTEX
  8
0
 10
519.647698
 20
566.783833
 42
-0.028975
  0
VERTEX
  8
0
 10
520.653001
 20
568.542023
 42
-0.028870
  0
VERTEX
  8
0
 10
521.864039
 20
570.185419
 42
-0.044653
  0
VERTEX
  8
0
 10
523.105982
 20
571.435724
 42
0.000000
  0
VERTEX
  8
0
 10
526.153451
 20
574.000000
 42
0.000000
  0
VERTEX
  8
0
 10
550.826725
 20
574.005792
 42
0.004993
  0
VERTEX
  8
0
 10
568.998966
 20
574.191520
 42
0.023423
  0
VERTEX
  8
0
 10
579.424055
 20
574.891494
 42
0.040378
  0
VERTEX
  8
0
 10
586.658154
 20
576.317228
 42
0.051648
  0
VERTEX
  8
0
 10
592.964927
 20
578.825330
 42
0.148208
  0
VERTEX
  8
0
 10
605.892309
 20
591.511677
 42
0.123119
  0
VERTEX
  8
0
 10
610.782110
 20
610.229400
 42
0.122108
  0
VERTEX
  8
0
 10
606.298311
 20
629.166732
 42
0.144455
  0
VERTEX
  8
0
 10
593.634233
 20
642.426416
 42
0.070291
  0
VERTEX
  8
0
 10
587.320094
 20
644.956367
 42
0.040090
  0
VERTEX
  8
0
 10
579.191084
 20
646.273264
 42
0.017876
  0
VERTEX
  8
0
 10
565.849995
 20
646.870253
 42
0.002242
  0
VERTEX
  8
0
 10
536.919044
 20
647.000000
 42
0.000000
  0
VERTEX
  8
0
 10
494.936529
 20
647.000000
 42
0.000000
  0
SEQEND
  0
POLYLINE
  8
0
 66
1
 70
1
  0
VERTEX
  8
0
 10
651.253624
 20
645.539675
 42
0.101751
  0
VERTEX
  8
0
 10
639.132620
 20
638.829683
 42
0.096204
  0
VERTEX
  8
0
 10
630.354993
 20
627.763675
 42
0.094950
  0
VERTEX
  8
0
 10
626.281337
 20
614.084438
 42
0.096129
  0
VERTEX
  8
0
 10
627.580896
 20
599.931501
 42
0.020301
  0
VERTEX
  8
0
 10
628.369376
 20
597.582362
 42
0.014364
  0
VERTEX
  8
0
 10
629.435370
 20
595.012116
 42
0.014530
  0
VERTEX
  8
0
 10
630.597819
 20
592.611395
 42
0.029504
  0
VERTEX
  8
0
 10
631.674019
 20
590.811874
 42
0.000000
  0
VERTEX
  8
0
 10
634.186245
 20
587.123747
 42
0.000000
  0
VERTEX
  8
0
 10
631.119091
 20
580.811874
 42
0.051195
  0
VERTEX
  8
0
 10
627.921814
 20
572.053754
 42
0.053155
  0
VERTEX
  8
0
 10
626.623268
 20
562.939445
 42
0.054372
  0
VERTEX
  8
0
 10
627.283736
 20
553.948393
 42
0.058694
  0
VERTEX
  8
0
 10
629.873569
 20
545.552914
 42
0.054699
  0
VERTEX
  8
0
 10
632.655465
 20
540.758495
 42
0.035467
  0
VERTEX
  8
0
 10
636.818377
 20
535.875423
 42
0.035557
  0
VERTEX
  8
0
 10
641.607532
 20
531.650779
 42
0.056837
  0
VERTEX
  8
0
 10
646.286236
 20
528.857556
 42
0.059684
  0
VERTEX
  8
0
 10
650.760892
 20
527.446674
 42
0.033200
  0
VERTEX
  8
0
 10
656.446335
 20
526.762074
 42
0.011006
  0
VERTEX
  8
0
 10
666.561797
 20
526.443855
 42
0.000725
  0
VERTEX
  8
0
 10
695.750000
 20
526.210718
 42
0.000000
  0
VERTEX
  8
0
 10
740.000000
 20
525.921436
 42
0.000000
  0
VERTEX
  8
0
 10
740.000000
 20
537.960718
 42
0.000000
  0
VERTEX
  8
0
 10
740.000000
 20
550.000000
 42
0.000000
  0
VERTEX
  8
0
 10
698.515777
 20
550.000000
 42
0.000000
  0
VERTEX
  8
0
 10
657.031553
 20
550.000000
 42
0.000000
  0
VERTEX
  8
0
 10
653.765777
 20
552.917971
 42
-0.030609
  0
VERTEX
  8
0
 10
651.906042
 20
554.796442
 42
-0.093773
  0
VERTEX
  8
0
 10
651.000799
 20
556.333721
 42
-0.072762
  0
VERTEX
  8
0
 10
650.600939
 20
558.307086
 42
-0.013664
  0
VERTEX
  8
0
 10
650.500000
 20
562.000000
 42
-0.013664
  0
VERTEX
  8
0
 10
650.600939
 20
565.692914
 42
-0.072762
  0
VERTEX
  8
0
 10
651.000799
 20
567.666279
 42
-0.093773
  0
VERTEX
  8
0
 10
651.906042
 20
569.203558
 42
-0.030609
  0
VERTEX
  8
0
 10
653.765777
 20
571.082029
 42
0.000000
  0
VERTEX
  8
0
 10
657.031553
 20
574.000000
 42
0.000000
  0
VERTEX
  8
0
 10
698.515777
 20
574.000000
 42
0.000000
  0
VERTEX
  8
0
 10
740.000000
 20
574.000000
 42
0.000000
  0
VERTEX
  8
0
 10
740.000000
 20
585.957832
 42
0.000000
  0
VERTEX
  8
0
 10
740.000000
 20
597.915663
 42
0.000000
  0
VERTEX
  8
0
 10
699.250000
 20
598.207832
 42
-0.000907
  0
VERTEX
  8
0
 10
674.117612
 20
598.433621
 42
-0.009988
  0
VERTEX
  8
0
 10
664.047963
 20
598.743599
 42
-0.024097
  0
VERTEX
  8
0
 10
658.467008
 20
599.297552
 42
-0.099567
  0
VERTEX
  8
0
 10
655.292383
 20
600.440571
 42
-0.073434
  0
VERTEX
  8
0
 10
652.689738
 20
602.591621
 42
-0.086693
  0
VERTEX
  8
0
 10
650.993361
 20
605.294051
 42
-0.077911
  0
VERTEX
  8
0
 10
650.200644
 20
608.648027
 42
-0.047241
  0
VERTEX
  8
0
 10
650.273500
 20
612.734131
 42
-0.028849
  0
VERTEX
  8
0
 10
650.692041
 20
615.173503
 42
-0.056444
  0
VERTEX
  8
0
 10
651.349433
 20
617.029717
 42
-0.060055
  0
VERTEX
  8
0
 10
652.373979
 20
618.617266
 42
-0.037144
  0
VERTEX
  8
0
 10
653.917461
 20
620.217559
 42
0.000000
  0
VERTEX
  8
0
 10
657.031553
 20
623.000000
 42
0.000000
  0
VERTEX
  8
0
 10
698.515777
 20
623.000000
 42
0.000000
  0
VERTEX
  8
0
 10
740.000000
 20
623.000000
 42
0.000000
  0
VERTEX
  8
0
 10
740.000000
 20
635.000000
 42
0.000000
  0
VERTEX
  8
0
 10
740.000000
 20
647.000000
 42
0.000000
  0
VERTEX
  8
0
 10
697.750000
 20
646.933104
 42
0.001446
  0
VERTEX
  8
0
 10
676.680305
 20
646.838801
 42
0.005648
  0
VERTEX
  8
0
 10
663.659621
 20
646.595756
 42
0.006789
  0
VERTEX
  8
0
 10
654.980358
 20
646.217640
 42
0.061495
  0
SEQEND
  0
POLYLINE
  8
0
 66
1
 70
1
  0
VERTEX
  8
0
 10
827.620592
 20
645.410479
 42
0.066100
  0
VERTEX
  8
0
 10
818.589534
 20
641.913314
 42
0.054316
  0
VERTEX
  8
0
 10
810.107109
 20
635.984916
 42
0.052117
  0
VERTEX
  8
0
 10
802.777911
 20
628.088171
 42
0.050618
  0
VERTEX
  8
0
 10
797.157495
 20
618.772191
 42
0.000144
  0
VERTEX
  8
0
 10
795.465413
 20
615.191099
 42
0.000027
  0
VERTEX
  8
0
 10
792.360616
 20
608.614331
 42
0.000029
  0
VERTEX
  8
0
 10
788.731895
 20
600.925539
 42
0.000026
  0
VERTEX
  8
0
 10
784.992508
 20
593.000000
 42
-0.000425
  0
VERTEX
  8
0
 10
781.002428
 20
584.560563
 42
-0.000323
  0
VERTEX
  8
0
 10
776.616592
 20
575.319868
 42
-0.000327
  0
VERTEX
  8
0
 10
772.492749
 20
566.660253
 42
-0.000766
  0
VERTEX
  8
0
 10
769.396686
 20
560.195295
 42
0.001201
  0
VERTEX
  8
0
 10
766.944481
 20
555.063328
 42
0.001925
  0
VERTEX
  8
0
 10
764.879027
 20
550.670353
 42
0.000344
  0
VERTEX
  8
0
 10
763.072744
 20
546.782894
 42
0.108998
  0
VERTEX
  8
0
 10
763.000000
 20
546.453162
 42
-0.110445
  0
VERTEX
  8
0
 10
762.927389
 20
546.128451
 42
-0.000597
  0
VERTEX
  8
0
 10
761.546553
 20
543.204418
 42
-0.002570
  0
VERTEX
  8
0
 10
759.948762
 20
539.875722
 42
-0.001624
  0
VERTEX
  8
0
 10
758.052096
 20
536.007867
 42
0.000000
  0
VERTEX
  8
0
 10
753.104192
 20
526.000000
 42
0.000000
  0
VERTEX
  8
0
 10
766.125646
 20
526.000000
 42
0.000000
  0
VERTEX
  8
0
 10
779.147100
 20
526.000000
 42
0.000000
  0
VERTEX
  8
0
 10
786.662742
 20
541.750000
 42
0.000116
  0
VERTEX
  8
0
 10
789.818229
 20
548.366684
 42
0.000104
  0
VERTEX
  8
0
 10
793.084496
 20
555.223438
 42
0.000105
  0
VERTEX
  8
0
 10
796.011686
 20
561.374997
 42
0.000330
  0
VERTEX
  8
0
 10
797.970154
 20
565.500000
 42
-0.000600
  0
VERTEX
  8
0
 10
813.844427
 20
598.888518
 42
-0.010365
  0
VERTEX
  8
0
 10
819.267919
 20
609.679103
 42
-0.033359
  0
VERTEX
  8
0
 10
822.740018
 20
615.302317
 42
-0.071227
  0
VERTEX
  8
0
 10
826.257541
 20
618.987942
 42
-0.051308
  0
VERTEX
  8
0
 10
831.097861
 20
622.049550
 42
-0.075555
  0
VERTEX
  8
0
 10
835.879432
 20
623.584593
 42
-0.080256
  0
VERTEX
  8
0
 10
840.681696
 20
623.582902
 42
-0.066548
  0
VERTEX
  8
0
 10
845.580815
 20
622.102676
 42
-0.065490
  0
VERTEX
  8
0
 10
850.430837
 20
619.081431
 42
-0.060149
  0
VERTEX
  8
0
 10
854.493825
 20
614.830002
 42
-0.040089
  0
VERTEX
  8
0
 10
858.600231
 20
608.315681
 42
-0.011813
  0
VERTEX
  8
0
 10
863.831810
 20
597.721492
 42
0.000460
  0
VERTEX
  8
0
 10
867.253505
 20
590.376937
 42
0.000202
  0
VERTEX
  8
0
 10
871.798114
 20
580.655688
 42
0.000200
  0
VERTEX
  8
0
 10
876.628425
 20
570.344886
 42
0.000268
  0
VERTEX
  8
0
 10
881.016884
 20
561.000000
 42
-0.000161
  0
VERTEX
  8
0
 10
885.117114
 20
552.273708
 42
-0.000178
  0
VERTEX
  8
0
 10
889.076259
 20
543.832812
 42
-0.000165
  0
VERTEX
  8
0
 10
892.451432
 20
536.624084
 42
-0.000918
  0
VERTEX
  8
0
 10
894.255084
 20
532.750000
 42
0.000000
  0
VERTEX
  8
0
 10
897.382607
 20
526.000000
 42
0.000000
  0
VERTEX
  8
0
 10
910.632045
 20
526.000000
 42
0.000000
  0
VERTEX
  8
0
 10
923.881483
 20
526.000000
 42
0.000000
  0
VERTEX
  8
0
 10
917.586708
 20
539.250000
 42
-0.000082
  0
VERTEX
  8
0
 10
914.899321
 20
544.909126
 42
-0.000067
  0
VERTEX
  8
0
 10
912.029150
 20
550.957813
 42
-0.000068
  0
VERTEX
  8
0
 10
909.391906
 20
556.519494
 42
-0.000179
  0
VERTEX
  8
0
 10
907.506834
 20
560.500000
 42
0.000457
  0
VERTEX
  8
0
 10
887.401715
 20
602.892867
 42
0.006399
  0
VERTEX
  8
0
 10
879.958199
 20
618.047671
 42
0.018200
  0
VERTEX
  8
0
 10
875.385550
 20
626.304653
 42
0.044168
  0
VERTEX
  8
0
 10
871.282124
 20
631.927592
 42
0.068275
  0
VERTEX
  8
0
 10
862.264183
 20
639.769450
 42
0.070090
  0
VERTEX
  8
0
 10
851.544738
 20
644.808952
 42
0.069429
  0
VERTEX
  8
0
 10
839.758682
 20
646.721620
 42
0.065015
  0
SEQEND
  0
POLYLINE
  8
0
 66
1
 70
1
  0
VERTEX
  8
0
 10
935.242254
 20
586.250000
 42
0.000000
  0
VERTEX
  8
0
 10
935.500000
 20
525.500000
 42
0.000000
  0
VERTEX
  8
0
 10
947.250000
 20
525.218265
 42
0.000000
  0
VERTEX
  8
0
 10
959.000000
 20
524.936529
 42
0.000000
  0
VERTEX
  8
0
 10
959.000000
 20
549.468265
 42
0.000000
  0
VERTEX
  8
0
 10
959.000000
 20
574.000000
 42
0.000000
  0
VERTEX
  8
0
 10
985.877876
 20
574.000000
 42
-0.003602
  0
VERTEX
  8
0
 10
1005.005450
 20
573.862213
 42
-0.034933
  0
VERTEX
  8
0
 10
1013.081774
 20
573.180215
 42
-0.082922
  0
VERTEX
  8
0
 10
1018.047677
 20
571.537059
 42
-0.074536
  0
VERTEX
  8
0
 10
1022.418271
 20
568.324817
 42
-0.038647
  0
VERTEX
  8
0
 10
1025.994649
 20
564.171812
 42
-0.095024
  0
VERTEX
  8
0
 10
1027.717828
 20
560.551091
 42
-0.051211
  0
VERTEX
  8
0
 10
1028.516582
 20
555.350200
 42
-0.005393
  0
VERTEX
  8
0
 10
1029.000000
 20
543.047130
 42
0.000000
  0
VERTEX
  8
0
 10
1029.500000
 20
525.500000
 42
0.000000
  0
VERTEX
  8
0
 10
1041.250000
 20
525.218265
 42
0.000000
  0
VERTEX
  8
0
 10
1053.000000
 20
524.936529
 42
0.000000
  0
VERTEX
  8
0
 10
1053.000000
 20
541.808302
 42
0.014076
  0
VERTEX
  8
0
 10
1052.614086
 20
555.513887
 42
0.037188
  0
VERTEX
  8
0
 10
1051.336361
 20
565.238493
 42
0.048952
  0
VERTEX
  8
0
 10
1048.917351
 20
572.981349
 42
0.047068
  0
VERTEX
  8
0
 10
1045.014946
 20
580.215476
 42
-0.005425
  0
VERTEX
  8
0
 10
1042.090658
 20
584.699217
 42
-0.071976
  0
VERTEX
  8
0
 10
1041.281977
 20
586.493833
 42
-0.201798
  0
VERTEX
  8
0
 10
1041.428493
 20
587.723572
 42
-0.090556
  0
VERTEX
  8
0
 10
1042.493650
 20
588.994730
 42
0.084480
  0
VERTEX
  8
0
 10
1044.825478
 20
591.710324
 42
0.024213
  0
VERTEX
  8
0
 10
1047.457178
 20
596.614277
 42
0.024580
  0
VERTEX
  8
0
 10
1049.818042
 20
602.277521
 42
0.031540
  0
VERTEX
  8
0
 10
1051.392768
 20
607.697405
 42
0.024162
  0
VERTEX
  8
0
 10
1052.117210
 20
611.882848
 42
0.013515
  0
VERTEX
  8
0
 10
1052.612878
 20
617.027692
 42
0.011118
  0
VERTEX
  8
0
 10
1052.905983
 20
623.288230
 42
0.006137
  0
VERTEX
  8
0
 10
1053.000000
 20
630.947405
 42
0.000000
  0
VERTEX
  8
0
 10
1053.000000
 20
647.000000
 42
0.000000
  0
VERTEX
  8
0
 10
1041.082604
 20
647.000000
 42
0.000000
  0
VERTEX
  8
0
 10
1029.165209
 20
647.000000
 42
0.000000
  0
VERTEX
  8
0
 10
1028.832604
 20
629.595449
 42
0.000000
  0
VERTEX
  8
0
 10
1028.500000
 20
612.190898
 42
0.000000
  0
VERTEX
  8
0
 10
1025.351385
 20
607.845449
 42
-0.034573
  0
VERTEX
  8
0
 10
1023.756343
 20
605.936881
 42
-0.024441
  0
VERTEX
  8
0
 10
1021.724372
 20
604.018484
 42
-0.024386
  0
VERTEX
  8
0
 10
1019.507155
 20
602.301165
 42
-0.033621
  0
VERTEX
  8
0
 10
1017.351385
 20
601.000000
 42
-0.049146
  0
VERTEX
  8
0
 10
1013.640245
 20
599.527989
 42
-0.049998
  0
VERTEX
  8
0
 10
1009.734583
 20
598.819353
 42
-0.018511
  0
VERTEX
  8
0
 10
1003.363241
 20
598.548060
 42
-0.001384
  0
VERTEX
  8
0
 10
986.000000
 20
598.500000
 42
0.000000
  0
VERTEX
  8
0
 10
959.500000
 20
598.500000
 42
0.000000
  0
VERTEX
  8
0
 10
959.232221
 20
622.750000
 42
0.000000
  0
VERTEX
  8
0
 10
958.964443
 20
647.000000
 42
0.000000
  0
VERTEX
  8
0
 10
946.974475
 20
647.000000
 42
0.000000
  0
VERTEX
  8
0
 10
934.984508
 20
647.000000
 42
0.000000
  0
SEQEND
  0
ENDSEC
  0
EOF
