M48
; DRILL file {KiCad 9.0.3} date 2026-01-20T11:30:40+0700
; FORMAT={-:-/ absolute / metric / decimal}
; #@! TF.CreationDate,2026-01-20T11:30:40+07:00
; #@! TF.GenerationSoftware,Kicad,Pcbnew,9.0.3
; #@! TF.FileFunction,Plated,1,2,PTH
FMAT,2
METRIC
; #@! TA.AperFunction,Plated,PTH,ViaDrill
T1C0.250
; #@! TA.AperFunction,Plated,PTH,ViaDrill
T2C0.300
; #@! TA.AperFunction,Plated,PTH,ComponentDrill
T3C0.600
; #@! TA.AperFunction,Plated,PTH,ComponentDrill
T4C0.800
; #@! TA.AperFunction,Plated,PTH,ComponentDrill
T5C0.900
; #@! TA.AperFunction,Plated,PTH,ComponentDrill
T6C1.000
; #@! TA.AperFunction,Plated,PTH,ComponentDrill
T7C1.400
; #@! TA.AperFunction,Plated,PTH,ComponentDrill
T8C1.900
; #@! TA.AperFunction,Plated,PTH,ComponentDrill
T9C2.000
; #@! TA.AperFunction,Plated,PTH,ComponentDrill
T10C2.500
%
G90
G05
T1
X129.2Y-78.75
X129.4Y-76.8
X130.2Y-76.8
X131.15Y-76.75
X131.951Y-88.6
X132.056Y-87.822
X134.05Y-91.0
X134.1Y-79.3
X134.15Y-78.4
X134.9Y-91.0
T2
X112.459Y-95.844
X112.483Y-109.294
X112.5Y-95.0
X112.5Y-110.178
X112.5Y-111.0
X113.0Y-90.5
X113.404Y-110.156
X113.414Y-95.027
X113.422Y-110.982
X113.423Y-94.209
X113.6Y-100.6
X113.714Y-99.726
X113.8Y-89.6
X114.0Y-91.5
X114.214Y-99.226
X114.3Y-94.218
X114.309Y-95.053
X114.317Y-100.328
X114.5Y-111.0
X114.7Y-88.7
X114.817Y-99.828
X114.92Y-100.921
X115.1Y-92.6
X116.1Y-91.6
X117.0Y-90.7
X121.0Y-118.0
X121.0Y-119.0
X121.0Y-120.0
X121.0Y-121.0
X121.0Y-122.0
X121.0Y-123.0
X121.0Y-124.0
X121.0Y-125.0
X122.0Y-118.0
X122.0Y-119.0
X122.0Y-120.0
X122.0Y-121.0
X122.0Y-122.0
X122.0Y-123.0
X122.0Y-124.0
X122.0Y-125.0
X123.0Y-118.0
X123.0Y-119.0
X123.0Y-120.0
X123.0Y-121.0
X123.0Y-122.0
X123.0Y-123.0
X123.0Y-124.0
X123.0Y-125.0
X124.0Y-118.0
X124.0Y-119.0
X124.0Y-120.0
X124.0Y-121.0
X124.0Y-122.0
X124.0Y-123.0
X124.0Y-124.0
X124.0Y-125.0
X125.0Y-121.0
X125.0Y-122.0
X125.0Y-123.0
X125.0Y-124.0
X125.0Y-125.0
X126.0Y-121.0
X126.0Y-122.0
X126.0Y-123.0
X126.0Y-124.0
X126.0Y-125.0
X127.0Y-121.0
X127.0Y-122.0
X127.0Y-123.0
X127.0Y-124.0
X127.0Y-125.0
X127.6Y-86.9
X127.6Y-88.0
X128.0Y-121.0
X128.0Y-122.0
X128.0Y-123.0
X128.0Y-124.0
X128.0Y-125.0
X130.0Y-121.0
X130.0Y-122.0
X130.0Y-123.0
X130.0Y-124.0
X130.0Y-125.0
X130.0Y-126.0
X130.0Y-127.0
X130.0Y-128.0
X130.0Y-129.0
X130.3Y-85.2
X130.4Y-86.3
X130.4Y-88.0
X130.625Y-83.475
X131.0Y-121.0
X131.0Y-122.0
X131.0Y-123.0
X131.0Y-124.0
X131.0Y-125.0
X131.0Y-126.0
X131.0Y-127.0
X131.0Y-128.0
X131.0Y-129.0
X131.7Y-87.1
X132.0Y-121.0
X132.0Y-122.0
X132.0Y-123.0
X132.0Y-124.0
X132.0Y-125.0
X132.0Y-126.0
X132.0Y-127.0
X132.0Y-128.0
X132.0Y-129.0
X133.0Y-90.8
X133.0Y-121.0
X133.0Y-122.0
X133.0Y-123.0
X133.0Y-124.0
X133.0Y-125.0
X133.0Y-126.0
X133.0Y-127.0
X133.0Y-128.0
X133.0Y-129.0
X134.0Y-121.0
X134.0Y-122.0
X134.0Y-123.0
X134.0Y-124.0
X134.0Y-125.0
X134.0Y-126.0
X134.0Y-127.0
X134.0Y-128.0
X134.0Y-129.0
X134.1Y-76.7
X134.15Y-77.55
X134.9Y-76.7
X135.0Y-121.0
X135.0Y-122.0
X135.0Y-123.0
X135.0Y-124.0
X135.0Y-125.0
X135.0Y-126.0
X135.7Y-76.7
X136.0Y-121.0
X136.0Y-122.0
X136.0Y-123.0
X136.0Y-124.0
X136.0Y-125.0
X136.0Y-126.0
X136.0Y-127.0
X136.0Y-129.0
X136.4Y-91.6
X136.6Y-76.7
X137.0Y-118.0
X137.0Y-121.0
X137.0Y-122.0
X137.0Y-123.0
X137.0Y-124.0
X137.0Y-125.0
X137.0Y-126.0
X137.0Y-127.0
X137.0Y-128.0
X137.0Y-129.0
X137.156Y-95.4
X137.4Y-76.7
X137.6Y-96.2
X138.0Y-121.0
X138.0Y-122.0
X138.3Y-76.7
X138.35Y-82.65
X138.35Y-84.3
X138.4Y-81.0
X138.74Y-103.74
X139.0Y-121.0
X139.0Y-122.0
X139.2Y-76.7
X139.75Y-103.75
X140.0Y-76.7
X140.0Y-81.0
X140.0Y-82.65
X140.0Y-84.3
X140.0Y-115.4
X140.0Y-121.0
X140.0Y-122.0
X140.8Y-76.7
X141.0Y-115.4
X141.0Y-121.0
X141.0Y-122.0
X141.65Y-81.0
X141.65Y-82.65
X141.65Y-84.3
X141.7Y-76.7
X142.5Y-76.7
X142.5Y-122.0
X142.6Y-103.2
X142.7Y-96.7
X143.4Y-76.7
X144.1Y-99.4
X144.1Y-100.4
X144.2Y-76.7
X144.5Y-119.5
X145.1Y-76.7
X145.25Y-122.0
X145.9Y-76.7
X145.9Y-78.4
X145.9Y-79.2
X146.0Y-117.6
X146.4Y-121.6
X146.999Y-120.005
X148.5Y-113.5
X148.5Y-114.5
X148.5Y-115.5
X148.5Y-117.0
X149.5Y-114.5
X149.5Y-115.5
X149.75Y-122.5
X149.8Y-105.0
X150.5Y-115.5
X151.5Y-81.2
X152.102Y-120.144
X153.0Y-119.7
X153.1Y-116.0
X154.0Y-113.9
X154.812Y-117.5
X155.0Y-124.8
X155.1Y-111.4
X156.4Y-117.7
X156.55Y-114.188
X156.75Y-120.75
X157.0Y-118.25
X157.25Y-122.5
X157.8Y-111.3
X158.0Y-112.1
X160.4Y-111.8
X165.2Y-98.4
X165.2Y-99.2
X165.2Y-100.0
X165.2Y-100.8
X165.2Y-105.0
X165.2Y-106.0
X165.2Y-107.0
X166.2Y-98.4
X166.2Y-99.2
X166.2Y-100.0
X166.2Y-105.0
X166.2Y-106.0
X166.3Y-96.9
X166.4Y-101.0
X167.2Y-104.2
X167.2Y-105.0
T4
X120.073Y-98.626
X120.073Y-101.166
X120.073Y-103.706
X120.073Y-96.086
X160.988Y-101.133
X160.988Y-98.593
T5
X123.4Y-80.575
X125.94Y-80.575
X154.13Y-80.575
X156.67Y-80.575
T6
X124.2Y-127.925
X135.2Y-127.925
T7
X112.0Y-71.9
X112.0Y-128.0
X114.828Y-74.728
X114.828Y-125.172
X165.272Y-74.628
X165.272Y-125.072
X168.1Y-71.8
X168.1Y-127.9
T8
X127.2Y-117.925
X132.2Y-117.925
T9
X120.073Y-93.546
X120.073Y-106.246
X160.988Y-96.053
X160.988Y-103.673
T10
X115.0Y-114.858
X115.0Y-84.858
X165.0Y-84.858
X165.0Y-114.858
T3
G00X149.175Y-123.536
M15
G01X149.175Y-124.436
M16
G05
G00X149.175Y-127.886
M15
G01X149.175Y-128.487
M16
G05
G00X157.825Y-123.536
M15
G01X157.825Y-124.436
M16
G05
G00X157.825Y-127.886
M15
G01X157.825Y-128.487
M16
G05
M30
