G04 #@! TF.GenerationSoftware,KiCad,Pcbnew,9.0.3*
G04 #@! TF.CreationDate,2026-01-20T11:30:40+07:00*
G04 #@! TF.ProjectId,Mini_drone_PCB,4d696e69-5f64-4726-9f6e-655f5043422e,rev?*
G04 #@! TF.SameCoordinates,Original*
G04 #@! TF.FileFunction,Profile,NP*
%FSLAX46Y46*%
G04 Gerber Fmt 4.6, Leading zero omitted, Abs format (unit mm)*
G04 Created by KiCad (PCBNEW 9.0.3) date 2026-01-20 11:30:40*
%MOMM*%
%LPD*%
G01*
G04 APERTURE LIST*
G04 #@! TA.AperFunction,Profile*
%ADD10C,0.010000*%
G04 #@! TD*
G04 #@! TA.AperFunction,Profile*
%ADD11C,0.000000*%
G04 #@! TD*
G04 APERTURE END LIST*
D10*
X103530332Y-132388194D02*
G75*
G02*
X103530368Y-131327569I530368J530294D01*
G01*
X103530332Y-68388193D02*
G75*
G02*
X103530369Y-67327569I530368J530293D01*
G01*
X119142138Y-69857863D02*
G75*
G02*
X112071059Y-66928942I-38J9999963D01*
G01*
X167928934Y-132786795D02*
X171469672Y-136327533D01*
X171469672Y-63388193D02*
G75*
G02*
X172530333Y-63388192I530331J-530331D01*
G01*
X176469672Y-67327532D02*
X172530333Y-63388193D01*
X176469672Y-67327532D02*
G75*
G02*
X176469710Y-68388230I-530372J-530368D01*
G01*
X172530333Y-136327533D02*
X176469672Y-132388194D01*
X112071070Y-66928931D02*
X108530332Y-63388193D01*
X107469671Y-63388193D02*
G75*
G02*
X108530332Y-63388193I530330J-530331D01*
G01*
X170000002Y-78999999D02*
G75*
G02*
X172928935Y-71928932I9999998J-1D01*
G01*
X107469671Y-63388193D02*
X103530332Y-67327532D01*
X172928934Y-71928931D02*
X176469672Y-68388193D01*
X171469672Y-63388193D02*
X167928934Y-66928931D01*
X167928934Y-66928931D02*
G75*
G02*
X160857866Y-69857850I-7071034J7071031D01*
G01*
X107071070Y-71928931D02*
G75*
G02*
X110000002Y-78999999I-7071070J-7071069D01*
G01*
X172530333Y-136327533D02*
G75*
G02*
X171469672Y-136327533I-530330J530331D01*
G01*
X160857866Y-69857863D02*
X119142138Y-69857863D01*
X103530332Y-68388193D02*
X107071070Y-71928931D01*
X108530332Y-136327533D02*
X112071070Y-132786795D01*
X176469672Y-131327533D02*
G75*
G02*
X176469709Y-132388230I-530372J-530367D01*
G01*
X170000002Y-78999999D02*
X170000002Y-120715727D01*
X160857866Y-129857863D02*
G75*
G02*
X167928958Y-132786771I34J-10000037D01*
G01*
X172928934Y-127786795D02*
G75*
G02*
X169999982Y-120715727I7071066J7071095D01*
G01*
X110000002Y-120715727D02*
G75*
G02*
X107071057Y-127786782I-10000002J27D01*
G01*
X103530332Y-132388194D02*
X107469671Y-136327533D01*
X110000002Y-78999999D02*
X110000002Y-120715727D01*
X107071070Y-127786795D02*
X103530332Y-131327533D01*
X112071070Y-132786795D02*
G75*
G02*
X119142138Y-129857900I7071030J-7071105D01*
G01*
X119142138Y-129857863D02*
X160857866Y-129857863D01*
X108530332Y-136327533D02*
G75*
G02*
X107469671Y-136327534I-530331J530331D01*
G01*
X176469672Y-131327533D02*
X172928934Y-127786795D01*
D11*
G04 #@! TA.AperFunction,Profile*
G04 #@! TO.C,USB1*
G36*
X150743939Y-124183142D02*
G01*
X150823067Y-124228826D01*
X150887674Y-124293433D01*
X150933358Y-124372561D01*
X150957006Y-124460816D01*
X150957006Y-124552184D01*
X150933358Y-124640439D01*
X150887674Y-124719567D01*
X150823067Y-124784174D01*
X150743939Y-124829858D01*
X150655684Y-124853506D01*
X150564316Y-124853506D01*
X150476061Y-124829858D01*
X150396933Y-124784174D01*
X150332326Y-124719567D01*
X150286642Y-124640439D01*
X150262994Y-124552184D01*
X150262994Y-124460816D01*
X150286642Y-124372561D01*
X150332326Y-124293433D01*
X150396933Y-124228826D01*
X150476061Y-124183142D01*
X150564316Y-124159494D01*
X150655684Y-124159494D01*
X150743939Y-124183142D01*
G37*
G04 #@! TD.AperFunction*
G04 #@! TA.AperFunction,Profile*
G36*
X156523939Y-124183142D02*
G01*
X156603067Y-124228826D01*
X156667674Y-124293433D01*
X156713358Y-124372561D01*
X156737006Y-124460816D01*
X156737006Y-124552184D01*
X156713358Y-124640439D01*
X156667674Y-124719567D01*
X156603067Y-124784174D01*
X156523939Y-124829858D01*
X156435684Y-124853506D01*
X156344316Y-124853506D01*
X156256061Y-124829858D01*
X156176933Y-124784174D01*
X156112326Y-124719567D01*
X156066642Y-124640439D01*
X156042994Y-124552184D01*
X156042994Y-124460816D01*
X156066642Y-124372561D01*
X156112326Y-124293433D01*
X156176933Y-124228826D01*
X156256061Y-124183142D01*
X156344316Y-124159494D01*
X156435684Y-124159494D01*
X156523939Y-124183142D01*
G37*
G04 #@! TD.AperFunction*
G04 #@! TA.AperFunction,Profile*
G04 #@! TO.C,SW2*
G36*
X140572208Y-127534254D02*
G01*
X140673943Y-127592991D01*
X140757009Y-127676057D01*
X140815746Y-127777792D01*
X140846150Y-127891263D01*
X140846150Y-128008737D01*
X140815746Y-128122208D01*
X140757009Y-128223943D01*
X140673943Y-128307009D01*
X140572208Y-128365746D01*
X140458737Y-128396150D01*
X140341263Y-128396150D01*
X140227792Y-128365746D01*
X140126057Y-128307009D01*
X140042991Y-128223943D01*
X139984254Y-128122208D01*
X139953850Y-128008737D01*
X139953850Y-127891263D01*
X139984254Y-127777792D01*
X140042991Y-127676057D01*
X140126057Y-127592991D01*
X140227792Y-127534254D01*
X140341263Y-127503850D01*
X140458737Y-127503850D01*
X140572208Y-127534254D01*
G37*
G04 #@! TD.AperFunction*
G04 #@! TA.AperFunction,Profile*
G36*
X143572208Y-127534254D02*
G01*
X143673943Y-127592991D01*
X143757009Y-127676057D01*
X143815746Y-127777792D01*
X143846150Y-127891263D01*
X143846150Y-128008737D01*
X143815746Y-128122208D01*
X143757009Y-128223943D01*
X143673943Y-128307009D01*
X143572208Y-128365746D01*
X143458737Y-128396150D01*
X143341263Y-128396150D01*
X143227792Y-128365746D01*
X143126057Y-128307009D01*
X143042991Y-128223943D01*
X142984254Y-128122208D01*
X142953850Y-128008737D01*
X142953850Y-127891263D01*
X142984254Y-127777792D01*
X143042991Y-127676057D01*
X143126057Y-127592991D01*
X143227792Y-127534254D01*
X143341263Y-127503850D01*
X143458737Y-127503850D01*
X143572208Y-127534254D01*
G37*
G04 #@! TD.AperFunction*
G04 #@! TD*
M02*
