G04 #@! TF.GenerationSoftware,KiCad,Pcbnew,9.0.3*
G04 #@! TF.CreationDate,2026-01-20T11:30:40+07:00*
G04 #@! TF.ProjectId,Mini_drone_PCB,4d696e69-5f64-4726-9f6e-655f5043422e,rev?*
G04 #@! TF.SameCoordinates,Original*
G04 #@! TF.FileFunction,Other,User*
%FSLAX46Y46*%
G04 Gerber Fmt 4.6, Leading zero omitted, Abs format (unit mm)*
G04 Created by KiCad (PCBNEW 9.0.3) date 2026-01-20 11:30:40*
%MOMM*%
%LPD*%
G01*
G04 APERTURE LIST*
%ADD10C,0.000000*%
G04 APERTURE END LIST*
D10*
G04 #@! TO.C,Q5*
G36*
X112465632Y-101161576D02*
G01*
X112161576Y-101465632D01*
X111949444Y-101253500D01*
X112253500Y-100949444D01*
X112465632Y-101161576D01*
G37*
G36*
X112649480Y-101345424D02*
G01*
X112345424Y-101649480D01*
X112154505Y-101458561D01*
X112458561Y-101154505D01*
X112649480Y-101345424D01*
G37*
G36*
X113073744Y-103113191D02*
G01*
X112769688Y-103417247D01*
X112578769Y-103226328D01*
X112882825Y-102922272D01*
X113073744Y-103113191D01*
G37*
G36*
X113278805Y-103318252D02*
G01*
X112974749Y-103622308D01*
X112762617Y-103410176D01*
X113066673Y-103106120D01*
X113278805Y-103318252D01*
G37*
G36*
X114417247Y-101769688D02*
G01*
X114113191Y-102073744D01*
X113922272Y-101882825D01*
X114226328Y-101578769D01*
X114417247Y-101769688D01*
G37*
G36*
X114622308Y-101974749D02*
G01*
X114318252Y-102278805D01*
X114106120Y-102066673D01*
X114410176Y-101762617D01*
X114622308Y-101974749D01*
G37*
G04 #@! TO.C,Q4*
G36*
X165786773Y-97476220D02*
G01*
X165482717Y-97780276D01*
X165270585Y-97568144D01*
X165574641Y-97264088D01*
X165786773Y-97476220D01*
G37*
G36*
X165970621Y-97660068D02*
G01*
X165666565Y-97964124D01*
X165475646Y-97773205D01*
X165779702Y-97469149D01*
X165970621Y-97660068D01*
G37*
G36*
X167130276Y-96132717D02*
G01*
X166826220Y-96436773D01*
X166614088Y-96224641D01*
X166918144Y-95920585D01*
X167130276Y-96132717D01*
G37*
G36*
X167314124Y-96316565D02*
G01*
X167010068Y-96620621D01*
X166819149Y-96429702D01*
X167123205Y-96125646D01*
X167314124Y-96316565D01*
G37*
G36*
X167738388Y-98084332D02*
G01*
X167434332Y-98388388D01*
X167243413Y-98197469D01*
X167547469Y-97893413D01*
X167738388Y-98084332D01*
G37*
G36*
X167943449Y-98289393D02*
G01*
X167639393Y-98593449D01*
X167427261Y-98381317D01*
X167731317Y-98077261D01*
X167943449Y-98289393D01*
G37*
G04 #@! TO.C,Q3*
G36*
X112515632Y-98788424D02*
G01*
X112303500Y-99000556D01*
X111999444Y-98696500D01*
X112211576Y-98484368D01*
X112515632Y-98788424D01*
G37*
G36*
X112699480Y-98604576D02*
G01*
X112508561Y-98795495D01*
X112204505Y-98491439D01*
X112395424Y-98300520D01*
X112699480Y-98604576D01*
G37*
G36*
X113123744Y-96836809D02*
G01*
X112932825Y-97027728D01*
X112628769Y-96723672D01*
X112819688Y-96532753D01*
X113123744Y-96836809D01*
G37*
G36*
X113328805Y-96631748D02*
G01*
X113116673Y-96843880D01*
X112812617Y-96539824D01*
X113024749Y-96327692D01*
X113328805Y-96631748D01*
G37*
G36*
X114467247Y-98180312D02*
G01*
X114276328Y-98371231D01*
X113972272Y-98067175D01*
X114163191Y-97876256D01*
X114467247Y-98180312D01*
G37*
G36*
X114672308Y-97975251D02*
G01*
X114460176Y-98187383D01*
X114156120Y-97883327D01*
X114368252Y-97671195D01*
X114672308Y-97975251D01*
G37*
G04 #@! TO.C,U1*
G36*
X149899999Y-118174500D02*
G01*
X148574999Y-118175000D01*
X148574999Y-117925001D01*
X149899999Y-117925000D01*
X149899999Y-118174500D01*
G37*
G36*
X149899999Y-118774500D02*
G01*
X148574999Y-118775000D01*
X148574999Y-118525001D01*
X149899999Y-118525000D01*
X149899999Y-118774500D01*
G37*
G36*
X149899999Y-119375000D02*
G01*
X148574999Y-119375500D01*
X148574999Y-119125500D01*
X149899999Y-119125500D01*
X149899999Y-119375000D01*
G37*
G36*
X150613499Y-118526500D02*
G01*
X150198999Y-118526000D01*
X150198998Y-118276000D01*
X150613000Y-118276000D01*
X150613499Y-118526500D01*
G37*
G36*
X150613499Y-118026000D02*
G01*
X150198999Y-118026000D01*
X150198999Y-117776000D01*
X150612999Y-117776000D01*
X150613499Y-118026000D01*
G37*
G36*
X150613499Y-119024500D02*
G01*
X150198999Y-119023999D01*
X150198999Y-118774000D01*
X150612999Y-118774000D01*
X150613499Y-119024500D01*
G37*
G36*
X150614499Y-119525500D02*
G01*
X150199999Y-119525000D01*
X150199999Y-119275000D01*
X150613999Y-119275000D01*
X150614499Y-119525500D01*
G37*
G04 #@! TO.C,USB1*
G36*
X149300000Y-124562500D02*
G01*
X149050000Y-124562500D01*
X149050000Y-123462500D01*
X149300000Y-123462500D01*
X149300000Y-124562500D01*
G37*
G36*
X149300000Y-128536500D02*
G01*
X149050000Y-128536500D01*
X149050000Y-127836500D01*
X149300000Y-127836500D01*
X149300000Y-128536500D01*
G37*
G36*
X150500000Y-124012500D02*
G01*
X150100000Y-124012500D01*
X150100000Y-123162500D01*
X150500000Y-123162500D01*
X150500000Y-124012500D01*
G37*
G36*
X151300000Y-124012500D02*
G01*
X150900000Y-124012500D01*
X150900000Y-123162500D01*
X151300000Y-123162500D01*
X151300000Y-124012500D01*
G37*
G36*
X151850000Y-124012500D02*
G01*
X151650000Y-124012500D01*
X151650000Y-123162500D01*
X151850000Y-123162500D01*
X151850000Y-124012500D01*
G37*
G36*
X152350000Y-124012500D02*
G01*
X152150000Y-124012500D01*
X152150000Y-123162500D01*
X152350000Y-123162500D01*
X152350000Y-124012500D01*
G37*
G36*
X152850000Y-124012500D02*
G01*
X152650000Y-124012500D01*
X152650000Y-123162500D01*
X152850000Y-123162500D01*
X152850000Y-124012500D01*
G37*
G36*
X153350000Y-124012500D02*
G01*
X153150000Y-124012500D01*
X153150000Y-123162500D01*
X153350000Y-123162500D01*
X153350000Y-124012500D01*
G37*
G36*
X153850000Y-124012500D02*
G01*
X153650000Y-124012500D01*
X153650000Y-123162500D01*
X153850000Y-123162500D01*
X153850000Y-124012500D01*
G37*
G36*
X154350000Y-124012500D02*
G01*
X154150000Y-124012500D01*
X154150000Y-123162500D01*
X154350000Y-123162500D01*
X154350000Y-124012500D01*
G37*
G36*
X154850000Y-124012500D02*
G01*
X154650000Y-124012500D01*
X154650000Y-123162500D01*
X154850000Y-123162500D01*
X154850000Y-124012500D01*
G37*
G36*
X155350000Y-124012500D02*
G01*
X155150000Y-124012500D01*
X155150000Y-123162500D01*
X155350000Y-123162500D01*
X155350000Y-124012500D01*
G37*
G36*
X156100000Y-124012500D02*
G01*
X155700000Y-124012500D01*
X155700000Y-123162500D01*
X156100000Y-123162500D01*
X156100000Y-124012500D01*
G37*
G36*
X156900000Y-124012500D02*
G01*
X156500000Y-124012500D01*
X156500000Y-123162500D01*
X156900000Y-123162500D01*
X156900000Y-124012500D01*
G37*
G36*
X157950000Y-124562500D02*
G01*
X157700000Y-124562500D01*
X157700000Y-123462500D01*
X157950000Y-123462500D01*
X157950000Y-124562500D01*
G37*
G36*
X157950000Y-128536500D02*
G01*
X157700000Y-128536500D01*
X157700000Y-127836500D01*
X157950000Y-127836500D01*
X157950000Y-128536500D01*
G37*
G04 #@! TO.C,U6*
G36*
X143550000Y-119109999D02*
G01*
X143100000Y-119109999D01*
X143100000Y-118809999D01*
X143550000Y-118809999D01*
X143550000Y-119109999D01*
G37*
G36*
X143550000Y-119760000D02*
G01*
X143100000Y-119760000D01*
X143100000Y-119460000D01*
X143550000Y-119460000D01*
X143550000Y-119760000D01*
G37*
G36*
X143550000Y-120410000D02*
G01*
X143100000Y-120410000D01*
X143100000Y-120110000D01*
X143550000Y-120110000D01*
X143550000Y-120410000D01*
G37*
G36*
X143550000Y-121060001D02*
G01*
X143100000Y-121060001D01*
X143100000Y-120760001D01*
X143550000Y-120760001D01*
X143550000Y-121060001D01*
G37*
G36*
X143697500Y-118810000D02*
G01*
X143697500Y-119110000D01*
X143540000Y-119109999D01*
X143540000Y-118809999D01*
X143697500Y-118810000D01*
G37*
G36*
X143697500Y-119760000D02*
G01*
X143540000Y-119760000D01*
X143540000Y-119460000D01*
X143697500Y-119460000D01*
X143697500Y-119760000D01*
G37*
G36*
X143697500Y-120410000D02*
G01*
X143540000Y-120410000D01*
X143540000Y-120110000D01*
X143697500Y-120110000D01*
X143697500Y-120410000D01*
G37*
G36*
X143697500Y-121060000D02*
G01*
X143540000Y-121060001D01*
X143540000Y-120760001D01*
X143697500Y-120760000D01*
X143697500Y-121060000D01*
G37*
G36*
X145460000Y-119109999D02*
G01*
X145302500Y-119110000D01*
X145302500Y-118810000D01*
X145460000Y-118809999D01*
X145460000Y-119109999D01*
G37*
G36*
X145460000Y-119760000D02*
G01*
X145302500Y-119760000D01*
X145302500Y-119460000D01*
X145460000Y-119460000D01*
X145460000Y-119760000D01*
G37*
G36*
X145460000Y-120410000D02*
G01*
X145302500Y-120410000D01*
X145302500Y-120110000D01*
X145460000Y-120110000D01*
X145460000Y-120410000D01*
G37*
G36*
X145460000Y-120760001D02*
G01*
X145460000Y-121060001D01*
X145302500Y-121060000D01*
X145302500Y-120760000D01*
X145460000Y-120760001D01*
G37*
G36*
X145900000Y-119109999D02*
G01*
X145450000Y-119109999D01*
X145450000Y-118809999D01*
X145900000Y-118809999D01*
X145900000Y-119109999D01*
G37*
G36*
X145900000Y-119760000D02*
G01*
X145450000Y-119760000D01*
X145450000Y-119460000D01*
X145900000Y-119460000D01*
X145900000Y-119760000D01*
G37*
G36*
X145900000Y-120410000D02*
G01*
X145450000Y-120410000D01*
X145450000Y-120110000D01*
X145900000Y-120110000D01*
X145900000Y-120410000D01*
G37*
G36*
X145900000Y-121060001D02*
G01*
X145450000Y-121060001D01*
X145450000Y-120760001D01*
X145900000Y-120760001D01*
X145900000Y-121060001D01*
G37*
G04 #@! TO.C,U2*
G36*
X144100000Y-115750000D02*
G01*
X143300000Y-115750000D01*
X143300000Y-114250000D01*
X144100000Y-114250000D01*
X144100000Y-115750000D01*
G37*
G36*
X147500000Y-115750000D02*
G01*
X146700000Y-115750000D01*
X146700000Y-114250000D01*
X147500000Y-114250000D01*
X147500000Y-115750000D01*
G37*
G04 #@! TO.C,Q6*
G36*
X165743697Y-102016857D02*
G01*
X165531565Y-102228989D01*
X165227509Y-101924933D01*
X165439641Y-101712801D01*
X165743697Y-102016857D01*
G37*
G36*
X165927545Y-101833009D02*
G01*
X165736626Y-102023928D01*
X165432570Y-101719872D01*
X165623489Y-101528953D01*
X165927545Y-101833009D01*
G37*
G36*
X167087200Y-103360360D02*
G01*
X166875068Y-103572492D01*
X166571012Y-103268436D01*
X166783144Y-103056304D01*
X167087200Y-103360360D01*
G37*
G36*
X167271048Y-103176512D02*
G01*
X167080129Y-103367431D01*
X166776073Y-103063375D01*
X166966992Y-102872456D01*
X167271048Y-103176512D01*
G37*
G36*
X167695312Y-101408745D02*
G01*
X167504393Y-101599664D01*
X167200337Y-101295608D01*
X167391256Y-101104689D01*
X167695312Y-101408745D01*
G37*
G36*
X167900373Y-101203684D02*
G01*
X167688241Y-101415816D01*
X167384185Y-101111760D01*
X167596317Y-100899628D01*
X167900373Y-101203684D01*
G37*
G04 #@! TO.C,SW2*
G36*
X138648000Y-127050000D02*
G01*
X138048000Y-127050000D01*
X138048000Y-126650000D01*
X138648000Y-126650000D01*
X138648000Y-127050000D01*
G37*
G36*
X138648000Y-129250000D02*
G01*
X138048000Y-129250000D01*
X138048000Y-128850000D01*
X138648000Y-128850000D01*
X138648000Y-129250000D01*
G37*
G36*
X139850000Y-126662000D02*
G01*
X139450000Y-126662000D01*
X139450000Y-125762000D01*
X139850000Y-125762000D01*
X139850000Y-126662000D01*
G37*
G36*
X142850000Y-126662000D02*
G01*
X142450000Y-126662000D01*
X142450000Y-125762000D01*
X142850000Y-125762000D01*
X142850000Y-126662000D01*
G37*
G36*
X144350000Y-126662000D02*
G01*
X143950000Y-126662000D01*
X143950000Y-125762000D01*
X144350000Y-125762000D01*
X144350000Y-126662000D01*
G37*
G36*
X145752000Y-127050000D02*
G01*
X145152000Y-127050000D01*
X145152000Y-126650000D01*
X145752000Y-126650000D01*
X145752000Y-127050000D01*
G37*
G36*
X145752000Y-129250000D02*
G01*
X145152000Y-129250000D01*
X145152000Y-128850000D01*
X145752000Y-128850000D01*
X145752000Y-129250000D01*
G37*
G04 #@! TD*
M02*
