G04 #@! TF.GenerationSoftware,KiCad,Pcbnew,9.0.3*
G04 #@! TF.CreationDate,2026-01-20T11:30:40+07:00*
G04 #@! TF.ProjectId,Mini_drone_PCB,4d696e69-5f64-4726-9f6e-655f5043422e,rev?*
G04 #@! TF.SameCoordinates,Original*
G04 #@! TF.FileFunction,Other,User*
%FSLAX46Y46*%
G04 Gerber Fmt 4.6, Leading zero omitted, Abs format (unit mm)*
G04 Created by KiCad (PCBNEW 9.0.3) date 2026-01-20 11:30:40*
%MOMM*%
%LPD*%
G01*
G04 APERTURE LIST*
%ADD10C,0.000000*%
G04 APERTURE END LIST*
D10*
G04 #@! TO.C,Q5*
G36*
X112828656Y-103800872D02*
G01*
X112828656Y-103846794D01*
X112796184Y-103879266D01*
X112750262Y-103879266D01*
X112717790Y-103846794D01*
X112717790Y-103800872D01*
X112750262Y-103768400D01*
X112796184Y-103768400D01*
X112828656Y-103800872D01*
G37*
G04 #@! TO.C,Q4*
G36*
X167175103Y-95696099D02*
G01*
X167175103Y-95742021D01*
X167142631Y-95774493D01*
X167096709Y-95774493D01*
X167064237Y-95742021D01*
X167064237Y-95696099D01*
X167096709Y-95663627D01*
X167142631Y-95663627D01*
X167175103Y-95696099D01*
G37*
G04 #@! TO.C,Q3*
G36*
X114929266Y-98153816D02*
G01*
X114929266Y-98199738D01*
X114896794Y-98232210D01*
X114850872Y-98232210D01*
X114818400Y-98199738D01*
X114818400Y-98153816D01*
X114850872Y-98121344D01*
X114896794Y-98121344D01*
X114929266Y-98153816D01*
G37*
G04 #@! TO.C,U1*
G36*
X151395432Y-119867039D02*
G01*
X151395432Y-119912961D01*
X151362960Y-119945433D01*
X151317038Y-119945433D01*
X151284566Y-119912961D01*
X151284566Y-119867039D01*
X151317038Y-119834567D01*
X151362960Y-119834567D01*
X151395432Y-119867039D01*
G37*
G04 #@! TO.C,USB1*
G36*
X149105433Y-123139539D02*
G01*
X149105433Y-123185461D01*
X149072961Y-123217933D01*
X149027039Y-123217933D01*
X148994567Y-123185461D01*
X148994567Y-123139539D01*
X149027039Y-123107067D01*
X149072961Y-123107067D01*
X149105433Y-123139539D01*
G37*
G04 #@! TO.C,U6*
G36*
X143122961Y-118429568D02*
G01*
X143155433Y-118462039D01*
X143155434Y-118507961D01*
X143122961Y-118540433D01*
X143077039Y-118540433D01*
X143044567Y-118507962D01*
X143044567Y-118462039D01*
X143077040Y-118429567D01*
X143122961Y-118429568D01*
G37*
G04 #@! TO.C,U2*
G36*
X143355433Y-116977039D02*
G01*
X143355433Y-117022961D01*
X143322961Y-117055433D01*
X143277039Y-117055433D01*
X143244567Y-117022961D01*
X143244567Y-116977039D01*
X143277039Y-116944567D01*
X143322961Y-116944567D01*
X143355433Y-116977039D01*
G37*
G04 #@! TO.C,Q6*
G36*
X165081417Y-101700446D02*
G01*
X165081417Y-101746368D01*
X165048945Y-101778840D01*
X165003023Y-101778840D01*
X164970551Y-101746368D01*
X164970551Y-101700446D01*
X165003023Y-101667974D01*
X165048945Y-101667974D01*
X165081417Y-101700446D01*
G37*
G04 #@! TO.C,SW2*
G36*
X138103433Y-125739039D02*
G01*
X138103433Y-125784961D01*
X138070961Y-125817433D01*
X138025039Y-125817433D01*
X137992567Y-125784961D01*
X137992567Y-125739039D01*
X138025039Y-125706567D01*
X138070961Y-125706567D01*
X138103433Y-125739039D01*
G37*
G04 #@! TD*
M02*
