%TF.GenerationSoftware,KiCad,Pcbnew,9.0.3*%
%TF.CreationDate,2026-01-20T11:30:40+07:00*%
%TF.ProjectId,Mini_drone_PCB,4d696e69-5f64-4726-9f6e-655f5043422e,rev?*%
%TF.SameCoordinates,Original*%
%TF.FileFunction,Drillmap*%
%TF.FilePolarity,Positive*%
%FSLAX45Y45*%
G04 Gerber Fmt 4.5, Leading zero omitted, Abs format (unit mm)*
G04 Created by KiCad (PCBNEW 9.0.3) date 2026-01-20 11:30:40*
%MOMM*%
%LPD*%
G01*
G04 APERTURE LIST*
%ADD10C,0.010000*%
%ADD11C,0.000000*%
%ADD12C,0.200000*%
G04 APERTURE END LIST*
D10*
X10353033Y-13238819D02*
G75*
G02*
X10353037Y-13132757I53037J53029D01*
G01*
X10353033Y-6838819D02*
G75*
G02*
X10353037Y-6732757I53037J53029D01*
G01*
X11914214Y-6985786D02*
G75*
G02*
X11207106Y-6692894I-4J999996D01*
G01*
X16792893Y-13278679D02*
X17146967Y-13632753D01*
X17146967Y-6338819D02*
G75*
G02*
X17253033Y-6338819I53033J-53033D01*
G01*
X17646967Y-6732753D02*
X17253033Y-6338819D01*
X17646967Y-6732753D02*
G75*
G02*
X17646971Y-6838823I-53037J-53037D01*
G01*
X17253033Y-13632753D02*
X17646967Y-13238819D01*
X11207107Y-6692893D02*
X10853033Y-6338819D01*
X10746967Y-6338819D02*
G75*
G02*
X10853033Y-6338819I53033J-53033D01*
G01*
X17000000Y-7900000D02*
G75*
G02*
X17292894Y-7192893I1000000J0D01*
G01*
X10746967Y-6338819D02*
X10353033Y-6732753D01*
X17292893Y-7192893D02*
X17646967Y-6838819D01*
X17146967Y-6338819D02*
X16792893Y-6692893D01*
X16792893Y-6692893D02*
G75*
G02*
X16085787Y-6985785I-707103J707103D01*
G01*
X10707107Y-7192893D02*
G75*
G02*
X11000000Y-7900000I-707107J-707107D01*
G01*
X17253033Y-13632753D02*
G75*
G02*
X17146967Y-13632753I-53033J53033D01*
G01*
X16085787Y-6985786D02*
X11914214Y-6985786D01*
X10353033Y-6838819D02*
X10707107Y-7192893D01*
X10853033Y-13632753D02*
X11207107Y-13278679D01*
X17646967Y-13132753D02*
G75*
G02*
X17646971Y-13238823I-53037J-53037D01*
G01*
X17000000Y-7900000D02*
X17000000Y-12071573D01*
X16085787Y-12985786D02*
G75*
G02*
X16792896Y-13278677I3J-1000004D01*
G01*
X17292893Y-12778679D02*
G75*
G02*
X16999998Y-12071573I707107J707110D01*
G01*
X11000000Y-12071573D02*
G75*
G02*
X10707106Y-12778678I-1000000J3D01*
G01*
X10353033Y-13238819D02*
X10746967Y-13632753D01*
X11000000Y-7900000D02*
X11000000Y-12071573D01*
X10707107Y-12778679D02*
X10353033Y-13132753D01*
X11207107Y-13278679D02*
G75*
G02*
X11914214Y-12985790I707103J-707111D01*
G01*
X11914214Y-12985786D02*
X16085787Y-12985786D01*
X10853033Y-13632753D02*
G75*
G02*
X10746967Y-13632753I-53033J53033D01*
G01*
X17646967Y-13132753D02*
X17292893Y-12778679D01*
D11*
G36*
X15074394Y-12418314D02*
G01*
X15082307Y-12422883D01*
X15088767Y-12429343D01*
X15093336Y-12437256D01*
X15095701Y-12446082D01*
X15095701Y-12455218D01*
X15093336Y-12464044D01*
X15088767Y-12471957D01*
X15082307Y-12478417D01*
X15074394Y-12482986D01*
X15065568Y-12485351D01*
X15056432Y-12485351D01*
X15047606Y-12482986D01*
X15039693Y-12478417D01*
X15033233Y-12471957D01*
X15028664Y-12464044D01*
X15026299Y-12455218D01*
X15026299Y-12446082D01*
X15028664Y-12437256D01*
X15033233Y-12429343D01*
X15039693Y-12422883D01*
X15047606Y-12418314D01*
X15056432Y-12415949D01*
X15065568Y-12415949D01*
X15074394Y-12418314D01*
G37*
G36*
X15652394Y-12418314D02*
G01*
X15660307Y-12422883D01*
X15666767Y-12429343D01*
X15671336Y-12437256D01*
X15673701Y-12446082D01*
X15673701Y-12455218D01*
X15671336Y-12464044D01*
X15666767Y-12471957D01*
X15660307Y-12478417D01*
X15652394Y-12482986D01*
X15643568Y-12485351D01*
X15634432Y-12485351D01*
X15625606Y-12482986D01*
X15617693Y-12478417D01*
X15611233Y-12471957D01*
X15606664Y-12464044D01*
X15604299Y-12455218D01*
X15604299Y-12446082D01*
X15606664Y-12437256D01*
X15611233Y-12429343D01*
X15617693Y-12422883D01*
X15625606Y-12418314D01*
X15634432Y-12415949D01*
X15643568Y-12415949D01*
X15652394Y-12418314D01*
G37*
G36*
X14057221Y-12753425D02*
G01*
X14067394Y-12759299D01*
X14075701Y-12767606D01*
X14081575Y-12777779D01*
X14084615Y-12789126D01*
X14084615Y-12800874D01*
X14081575Y-12812221D01*
X14075701Y-12822394D01*
X14067394Y-12830701D01*
X14057221Y-12836575D01*
X14045874Y-12839615D01*
X14034126Y-12839615D01*
X14022779Y-12836575D01*
X14012606Y-12830701D01*
X14004299Y-12822394D01*
X13998425Y-12812221D01*
X13995385Y-12800874D01*
X13995385Y-12789126D01*
X13998425Y-12777779D01*
X14004299Y-12767606D01*
X14012606Y-12759299D01*
X14022779Y-12753425D01*
X14034126Y-12750385D01*
X14045874Y-12750385D01*
X14057221Y-12753425D01*
G37*
G36*
X14357221Y-12753425D02*
G01*
X14367394Y-12759299D01*
X14375701Y-12767606D01*
X14381575Y-12777779D01*
X14384615Y-12789126D01*
X14384615Y-12800874D01*
X14381575Y-12812221D01*
X14375701Y-12822394D01*
X14367394Y-12830701D01*
X14357221Y-12836575D01*
X14345874Y-12839615D01*
X14334126Y-12839615D01*
X14322779Y-12836575D01*
X14312606Y-12830701D01*
X14304299Y-12822394D01*
X14298425Y-12812221D01*
X14295385Y-12800874D01*
X14295385Y-12789126D01*
X14298425Y-12777779D01*
X14304299Y-12767606D01*
X14312606Y-12759299D01*
X14322779Y-12753425D01*
X14334126Y-12750385D01*
X14345874Y-12750385D01*
X14357221Y-12753425D01*
G37*
D12*
X10591347Y-13966704D02*
X10591347Y-13766704D01*
X10591347Y-13766704D02*
X10638966Y-13766704D01*
X10638966Y-13766704D02*
X10667537Y-13776228D01*
X10667537Y-13776228D02*
X10686585Y-13795275D01*
X10686585Y-13795275D02*
X10696109Y-13814323D01*
X10696109Y-13814323D02*
X10705632Y-13852418D01*
X10705632Y-13852418D02*
X10705632Y-13880990D01*
X10705632Y-13880990D02*
X10696109Y-13919085D01*
X10696109Y-13919085D02*
X10686585Y-13938133D01*
X10686585Y-13938133D02*
X10667537Y-13957180D01*
X10667537Y-13957180D02*
X10638966Y-13966704D01*
X10638966Y-13966704D02*
X10591347Y-13966704D01*
X10791347Y-13966704D02*
X10791347Y-13833371D01*
X10791347Y-13871466D02*
X10800871Y-13852418D01*
X10800871Y-13852418D02*
X10810394Y-13842894D01*
X10810394Y-13842894D02*
X10829442Y-13833371D01*
X10829442Y-13833371D02*
X10848490Y-13833371D01*
X10915156Y-13966704D02*
X10915156Y-13833371D01*
X10915156Y-13766704D02*
X10905632Y-13776228D01*
X10905632Y-13776228D02*
X10915156Y-13785752D01*
X10915156Y-13785752D02*
X10924680Y-13776228D01*
X10924680Y-13776228D02*
X10915156Y-13766704D01*
X10915156Y-13766704D02*
X10915156Y-13785752D01*
X11038966Y-13966704D02*
X11019918Y-13957180D01*
X11019918Y-13957180D02*
X11010394Y-13938133D01*
X11010394Y-13938133D02*
X11010394Y-13766704D01*
X11143728Y-13966704D02*
X11124680Y-13957180D01*
X11124680Y-13957180D02*
X11115156Y-13938133D01*
X11115156Y-13938133D02*
X11115156Y-13766704D01*
X11372299Y-13966704D02*
X11372299Y-13766704D01*
X11372299Y-13766704D02*
X11438966Y-13909561D01*
X11438966Y-13909561D02*
X11505632Y-13766704D01*
X11505632Y-13766704D02*
X11505632Y-13966704D01*
X11686585Y-13966704D02*
X11686585Y-13861942D01*
X11686585Y-13861942D02*
X11677061Y-13842894D01*
X11677061Y-13842894D02*
X11658013Y-13833371D01*
X11658013Y-13833371D02*
X11619918Y-13833371D01*
X11619918Y-13833371D02*
X11600870Y-13842894D01*
X11686585Y-13957180D02*
X11667537Y-13966704D01*
X11667537Y-13966704D02*
X11619918Y-13966704D01*
X11619918Y-13966704D02*
X11600870Y-13957180D01*
X11600870Y-13957180D02*
X11591347Y-13938133D01*
X11591347Y-13938133D02*
X11591347Y-13919085D01*
X11591347Y-13919085D02*
X11600870Y-13900037D01*
X11600870Y-13900037D02*
X11619918Y-13890514D01*
X11619918Y-13890514D02*
X11667537Y-13890514D01*
X11667537Y-13890514D02*
X11686585Y-13880990D01*
X11781823Y-13833371D02*
X11781823Y-14033371D01*
X11781823Y-13842894D02*
X11800870Y-13833371D01*
X11800870Y-13833371D02*
X11838966Y-13833371D01*
X11838966Y-13833371D02*
X11858013Y-13842894D01*
X11858013Y-13842894D02*
X11867537Y-13852418D01*
X11867537Y-13852418D02*
X11877061Y-13871466D01*
X11877061Y-13871466D02*
X11877061Y-13928609D01*
X11877061Y-13928609D02*
X11867537Y-13947656D01*
X11867537Y-13947656D02*
X11858013Y-13957180D01*
X11858013Y-13957180D02*
X11838966Y-13966704D01*
X11838966Y-13966704D02*
X11800870Y-13966704D01*
X11800870Y-13966704D02*
X11781823Y-13957180D01*
X11962775Y-13947656D02*
X11972299Y-13957180D01*
X11972299Y-13957180D02*
X11962775Y-13966704D01*
X11962775Y-13966704D02*
X11953251Y-13957180D01*
X11953251Y-13957180D02*
X11962775Y-13947656D01*
X11962775Y-13947656D02*
X11962775Y-13966704D01*
X11962775Y-13842894D02*
X11972299Y-13852418D01*
X11972299Y-13852418D02*
X11962775Y-13861942D01*
X11962775Y-13861942D02*
X11953251Y-13852418D01*
X11953251Y-13852418D02*
X11962775Y-13842894D01*
X11962775Y-13842894D02*
X11962775Y-13861942D01*
M02*
