%TF.GenerationSoftware,KiCad,Pcbnew,9.0.3*%
%TF.CreationDate,2026-01-20T11:30:40+07:00*%
%TF.ProjectId,Mini_drone_PCB,4d696e69-5f64-4726-9f6e-655f5043422e,rev?*%
%TF.SameCoordinates,Original*%
%TF.FileFunction,Drillmap*%
%TF.FilePolarity,Positive*%
%FSLAX45Y45*%
G04 Gerber Fmt 4.5, Leading zero omitted, Abs format (unit mm)*
G04 Created by KiCad (PCBNEW 9.0.3) date 2026-01-20 11:30:40*
%MOMM*%
%LPD*%
G01*
G04 APERTURE LIST*
%ADD10C,0.010000*%
%ADD11C,0.000000*%
%ADD12C,0.200000*%
%ADD13C,0.100000*%
%ADD14C,0.140000*%
%ADD15C,0.190000*%
%ADD16C,0.250000*%
G04 APERTURE END LIST*
D10*
X10353033Y-13238819D02*
G75*
G02*
X10353037Y-13132757I53037J53029D01*
G01*
X10353033Y-6838819D02*
G75*
G02*
X10353037Y-6732757I53037J53029D01*
G01*
X11914214Y-6985786D02*
G75*
G02*
X11207106Y-6692894I-4J999996D01*
G01*
X16792893Y-13278679D02*
X17146967Y-13632753D01*
X17146967Y-6338819D02*
G75*
G02*
X17253033Y-6338819I53033J-53033D01*
G01*
X17646967Y-6732753D02*
X17253033Y-6338819D01*
X17646967Y-6732753D02*
G75*
G02*
X17646971Y-6838823I-53037J-53037D01*
G01*
X17253033Y-13632753D02*
X17646967Y-13238819D01*
X11207107Y-6692893D02*
X10853033Y-6338819D01*
X10746967Y-6338819D02*
G75*
G02*
X10853033Y-6338819I53033J-53033D01*
G01*
X17000000Y-7900000D02*
G75*
G02*
X17292894Y-7192893I1000000J0D01*
G01*
X10746967Y-6338819D02*
X10353033Y-6732753D01*
X17292893Y-7192893D02*
X17646967Y-6838819D01*
X17146967Y-6338819D02*
X16792893Y-6692893D01*
X16792893Y-6692893D02*
G75*
G02*
X16085787Y-6985785I-707103J707103D01*
G01*
X10707107Y-7192893D02*
G75*
G02*
X11000000Y-7900000I-707107J-707107D01*
G01*
X17253033Y-13632753D02*
G75*
G02*
X17146967Y-13632753I-53033J53033D01*
G01*
X16085787Y-6985786D02*
X11914214Y-6985786D01*
X10353033Y-6838819D02*
X10707107Y-7192893D01*
X10853033Y-13632753D02*
X11207107Y-13278679D01*
X17646967Y-13132753D02*
G75*
G02*
X17646971Y-13238823I-53037J-53037D01*
G01*
X17000000Y-7900000D02*
X17000000Y-12071573D01*
X16085787Y-12985786D02*
G75*
G02*
X16792896Y-13278677I3J-1000004D01*
G01*
X17292893Y-12778679D02*
G75*
G02*
X16999998Y-12071573I707107J707110D01*
G01*
X11000000Y-12071573D02*
G75*
G02*
X10707106Y-12778678I-1000000J3D01*
G01*
X10353033Y-13238819D02*
X10746967Y-13632753D01*
X11000000Y-7900000D02*
X11000000Y-12071573D01*
X10707107Y-12778679D02*
X10353033Y-13132753D01*
X11207107Y-13278679D02*
G75*
G02*
X11914214Y-12985790I707103J-707111D01*
G01*
X11914214Y-12985786D02*
X16085787Y-12985786D01*
X10853033Y-13632753D02*
G75*
G02*
X10746967Y-13632753I-53033J53033D01*
G01*
X17646967Y-13132753D02*
X17292893Y-12778679D01*
D11*
G36*
X15074394Y-12418314D02*
G01*
X15082307Y-12422883D01*
X15088767Y-12429343D01*
X15093336Y-12437256D01*
X15095701Y-12446082D01*
X15095701Y-12455218D01*
X15093336Y-12464044D01*
X15088767Y-12471957D01*
X15082307Y-12478417D01*
X15074394Y-12482986D01*
X15065568Y-12485351D01*
X15056432Y-12485351D01*
X15047606Y-12482986D01*
X15039693Y-12478417D01*
X15033233Y-12471957D01*
X15028664Y-12464044D01*
X15026299Y-12455218D01*
X15026299Y-12446082D01*
X15028664Y-12437256D01*
X15033233Y-12429343D01*
X15039693Y-12422883D01*
X15047606Y-12418314D01*
X15056432Y-12415949D01*
X15065568Y-12415949D01*
X15074394Y-12418314D01*
G37*
G36*
X15652394Y-12418314D02*
G01*
X15660307Y-12422883D01*
X15666767Y-12429343D01*
X15671336Y-12437256D01*
X15673701Y-12446082D01*
X15673701Y-12455218D01*
X15671336Y-12464044D01*
X15666767Y-12471957D01*
X15660307Y-12478417D01*
X15652394Y-12482986D01*
X15643568Y-12485351D01*
X15634432Y-12485351D01*
X15625606Y-12482986D01*
X15617693Y-12478417D01*
X15611233Y-12471957D01*
X15606664Y-12464044D01*
X15604299Y-12455218D01*
X15604299Y-12446082D01*
X15606664Y-12437256D01*
X15611233Y-12429343D01*
X15617693Y-12422883D01*
X15625606Y-12418314D01*
X15634432Y-12415949D01*
X15643568Y-12415949D01*
X15652394Y-12418314D01*
G37*
G36*
X14057221Y-12753425D02*
G01*
X14067394Y-12759299D01*
X14075701Y-12767606D01*
X14081575Y-12777779D01*
X14084615Y-12789126D01*
X14084615Y-12800874D01*
X14081575Y-12812221D01*
X14075701Y-12822394D01*
X14067394Y-12830701D01*
X14057221Y-12836575D01*
X14045874Y-12839615D01*
X14034126Y-12839615D01*
X14022779Y-12836575D01*
X14012606Y-12830701D01*
X14004299Y-12822394D01*
X13998425Y-12812221D01*
X13995385Y-12800874D01*
X13995385Y-12789126D01*
X13998425Y-12777779D01*
X14004299Y-12767606D01*
X14012606Y-12759299D01*
X14022779Y-12753425D01*
X14034126Y-12750385D01*
X14045874Y-12750385D01*
X14057221Y-12753425D01*
G37*
G36*
X14357221Y-12753425D02*
G01*
X14367394Y-12759299D01*
X14375701Y-12767606D01*
X14381575Y-12777779D01*
X14384615Y-12789126D01*
X14384615Y-12800874D01*
X14381575Y-12812221D01*
X14375701Y-12822394D01*
X14367394Y-12830701D01*
X14357221Y-12836575D01*
X14345874Y-12839615D01*
X14334126Y-12839615D01*
X14322779Y-12836575D01*
X14312606Y-12830701D01*
X14304299Y-12822394D01*
X14298425Y-12812221D01*
X14295385Y-12800874D01*
X14295385Y-12789126D01*
X14298425Y-12777779D01*
X14304299Y-12767606D01*
X14312606Y-12759299D01*
X14322779Y-12753425D01*
X14334126Y-12750385D01*
X14345874Y-12750385D01*
X14357221Y-12753425D01*
G37*
D12*
D13*
X12907500Y-7862500D02*
X12932500Y-7887500D01*
X12932500Y-7862500D02*
X12907500Y-7887500D01*
X12927500Y-7667500D02*
X12952500Y-7692500D01*
X12952500Y-7667500D02*
X12927500Y-7692500D01*
X13007500Y-7667500D02*
X13032500Y-7692500D01*
X13032500Y-7667500D02*
X13007500Y-7692500D01*
X13102500Y-7662500D02*
X13127500Y-7687500D01*
X13127500Y-7662500D02*
X13102500Y-7687500D01*
X13182600Y-8847500D02*
X13207600Y-8872500D01*
X13207600Y-8847500D02*
X13182600Y-8872500D01*
X13193057Y-8769725D02*
X13218057Y-8794725D01*
X13218057Y-8769725D02*
X13193057Y-8794725D01*
X13392500Y-9087500D02*
X13417500Y-9112500D01*
X13417500Y-9087500D02*
X13392500Y-9112500D01*
X13397500Y-7917500D02*
X13422500Y-7942500D01*
X13422500Y-7917500D02*
X13397500Y-7942500D01*
X13402500Y-7827500D02*
X13427500Y-7852500D01*
X13427500Y-7827500D02*
X13402500Y-7852500D01*
X13477500Y-9087500D02*
X13502500Y-9112500D01*
X13502500Y-9087500D02*
X13477500Y-9112500D01*
X11260876Y-9584421D02*
G75*
G02*
X11230876Y-9584421I-15000J0D01*
G01*
X11230876Y-9584421D02*
G75*
G02*
X11260876Y-9584421I15000J0D01*
G01*
X11263279Y-10929437D02*
G75*
G02*
X11233279Y-10929437I-15000J0D01*
G01*
X11233279Y-10929437D02*
G75*
G02*
X11263279Y-10929437I15000J0D01*
G01*
X11265000Y-9500000D02*
G75*
G02*
X11235000Y-9500000I-15000J0D01*
G01*
X11235000Y-9500000D02*
G75*
G02*
X11265000Y-9500000I15000J0D01*
G01*
X11265000Y-11017784D02*
G75*
G02*
X11235000Y-11017784I-15000J0D01*
G01*
X11235000Y-11017784D02*
G75*
G02*
X11265000Y-11017784I15000J0D01*
G01*
X11265000Y-11100000D02*
G75*
G02*
X11235000Y-11100000I-15000J0D01*
G01*
X11235000Y-11100000D02*
G75*
G02*
X11265000Y-11100000I15000J0D01*
G01*
X11315000Y-9050000D02*
G75*
G02*
X11285000Y-9050000I-15000J0D01*
G01*
X11285000Y-9050000D02*
G75*
G02*
X11315000Y-9050000I15000J0D01*
G01*
X11355445Y-11015579D02*
G75*
G02*
X11325445Y-11015579I-15000J0D01*
G01*
X11325445Y-11015579D02*
G75*
G02*
X11355445Y-11015579I15000J0D01*
G01*
X11356395Y-9502671D02*
G75*
G02*
X11326395Y-9502671I-15000J0D01*
G01*
X11326395Y-9502671D02*
G75*
G02*
X11356395Y-9502671I15000J0D01*
G01*
X11357166Y-11098189D02*
G75*
G02*
X11327166Y-11098189I-15000J0D01*
G01*
X11327166Y-11098189D02*
G75*
G02*
X11357166Y-11098189I15000J0D01*
G01*
X11357255Y-9420921D02*
G75*
G02*
X11327255Y-9420921I-15000J0D01*
G01*
X11327255Y-9420921D02*
G75*
G02*
X11357255Y-9420921I15000J0D01*
G01*
X11375000Y-10060000D02*
G75*
G02*
X11345000Y-10060000I-15000J0D01*
G01*
X11345000Y-10060000D02*
G75*
G02*
X11375000Y-10060000I15000J0D01*
G01*
X11386423Y-9972553D02*
G75*
G02*
X11356423Y-9972553I-15000J0D01*
G01*
X11356423Y-9972553D02*
G75*
G02*
X11386423Y-9972553I15000J0D01*
G01*
X11395000Y-8960000D02*
G75*
G02*
X11365000Y-8960000I-15000J0D01*
G01*
X11365000Y-8960000D02*
G75*
G02*
X11395000Y-8960000I15000J0D01*
G01*
X11415000Y-9150000D02*
G75*
G02*
X11385000Y-9150000I-15000J0D01*
G01*
X11385000Y-9150000D02*
G75*
G02*
X11415000Y-9150000I15000J0D01*
G01*
X11436423Y-9922553D02*
G75*
G02*
X11406423Y-9922553I-15000J0D01*
G01*
X11406423Y-9922553D02*
G75*
G02*
X11436423Y-9922553I15000J0D01*
G01*
X11445029Y-9421782D02*
G75*
G02*
X11415029Y-9421782I-15000J0D01*
G01*
X11415029Y-9421782D02*
G75*
G02*
X11445029Y-9421782I15000J0D01*
G01*
X11445889Y-9505253D02*
G75*
G02*
X11415889Y-9505253I-15000J0D01*
G01*
X11415889Y-9505253D02*
G75*
G02*
X11445889Y-9505253I15000J0D01*
G01*
X11446660Y-10032790D02*
G75*
G02*
X11416660Y-10032790I-15000J0D01*
G01*
X11416660Y-10032790D02*
G75*
G02*
X11446660Y-10032790I15000J0D01*
G01*
X11465000Y-11100000D02*
G75*
G02*
X11435000Y-11100000I-15000J0D01*
G01*
X11435000Y-11100000D02*
G75*
G02*
X11465000Y-11100000I15000J0D01*
G01*
X11485000Y-8870000D02*
G75*
G02*
X11455000Y-8870000I-15000J0D01*
G01*
X11455000Y-8870000D02*
G75*
G02*
X11485000Y-8870000I15000J0D01*
G01*
X11496660Y-9982790D02*
G75*
G02*
X11466660Y-9982790I-15000J0D01*
G01*
X11466660Y-9982790D02*
G75*
G02*
X11496660Y-9982790I15000J0D01*
G01*
X11506986Y-10092076D02*
G75*
G02*
X11476986Y-10092076I-15000J0D01*
G01*
X11476986Y-10092076D02*
G75*
G02*
X11506986Y-10092076I15000J0D01*
G01*
X11525000Y-9260000D02*
G75*
G02*
X11495000Y-9260000I-15000J0D01*
G01*
X11495000Y-9260000D02*
G75*
G02*
X11525000Y-9260000I15000J0D01*
G01*
X11625000Y-9160000D02*
G75*
G02*
X11595000Y-9160000I-15000J0D01*
G01*
X11595000Y-9160000D02*
G75*
G02*
X11625000Y-9160000I15000J0D01*
G01*
X11715000Y-9070000D02*
G75*
G02*
X11685000Y-9070000I-15000J0D01*
G01*
X11685000Y-9070000D02*
G75*
G02*
X11715000Y-9070000I15000J0D01*
G01*
X12115000Y-11800000D02*
G75*
G02*
X12085000Y-11800000I-15000J0D01*
G01*
X12085000Y-11800000D02*
G75*
G02*
X12115000Y-11800000I15000J0D01*
G01*
X12115000Y-11900000D02*
G75*
G02*
X12085000Y-11900000I-15000J0D01*
G01*
X12085000Y-11900000D02*
G75*
G02*
X12115000Y-11900000I15000J0D01*
G01*
X12115000Y-12000000D02*
G75*
G02*
X12085000Y-12000000I-15000J0D01*
G01*
X12085000Y-12000000D02*
G75*
G02*
X12115000Y-12000000I15000J0D01*
G01*
X12115000Y-12100000D02*
G75*
G02*
X12085000Y-12100000I-15000J0D01*
G01*
X12085000Y-12100000D02*
G75*
G02*
X12115000Y-12100000I15000J0D01*
G01*
X12115000Y-12200000D02*
G75*
G02*
X12085000Y-12200000I-15000J0D01*
G01*
X12085000Y-12200000D02*
G75*
G02*
X12115000Y-12200000I15000J0D01*
G01*
X12115000Y-12300000D02*
G75*
G02*
X12085000Y-12300000I-15000J0D01*
G01*
X12085000Y-12300000D02*
G75*
G02*
X12115000Y-12300000I15000J0D01*
G01*
X12115000Y-12400000D02*
G75*
G02*
X12085000Y-12400000I-15000J0D01*
G01*
X12085000Y-12400000D02*
G75*
G02*
X12115000Y-12400000I15000J0D01*
G01*
X12115000Y-12500000D02*
G75*
G02*
X12085000Y-12500000I-15000J0D01*
G01*
X12085000Y-12500000D02*
G75*
G02*
X12115000Y-12500000I15000J0D01*
G01*
X12215000Y-11800000D02*
G75*
G02*
X12185000Y-11800000I-15000J0D01*
G01*
X12185000Y-11800000D02*
G75*
G02*
X12215000Y-11800000I15000J0D01*
G01*
X12215000Y-11900000D02*
G75*
G02*
X12185000Y-11900000I-15000J0D01*
G01*
X12185000Y-11900000D02*
G75*
G02*
X12215000Y-11900000I15000J0D01*
G01*
X12215000Y-12000000D02*
G75*
G02*
X12185000Y-12000000I-15000J0D01*
G01*
X12185000Y-12000000D02*
G75*
G02*
X12215000Y-12000000I15000J0D01*
G01*
X12215000Y-12100000D02*
G75*
G02*
X12185000Y-12100000I-15000J0D01*
G01*
X12185000Y-12100000D02*
G75*
G02*
X12215000Y-12100000I15000J0D01*
G01*
X12215000Y-12200000D02*
G75*
G02*
X12185000Y-12200000I-15000J0D01*
G01*
X12185000Y-12200000D02*
G75*
G02*
X12215000Y-12200000I15000J0D01*
G01*
X12215000Y-12300000D02*
G75*
G02*
X12185000Y-12300000I-15000J0D01*
G01*
X12185000Y-12300000D02*
G75*
G02*
X12215000Y-12300000I15000J0D01*
G01*
X12215000Y-12400000D02*
G75*
G02*
X12185000Y-12400000I-15000J0D01*
G01*
X12185000Y-12400000D02*
G75*
G02*
X12215000Y-12400000I15000J0D01*
G01*
X12215000Y-12500000D02*
G75*
G02*
X12185000Y-12500000I-15000J0D01*
G01*
X12185000Y-12500000D02*
G75*
G02*
X12215000Y-12500000I15000J0D01*
G01*
X12315000Y-11800000D02*
G75*
G02*
X12285000Y-11800000I-15000J0D01*
G01*
X12285000Y-11800000D02*
G75*
G02*
X12315000Y-11800000I15000J0D01*
G01*
X12315000Y-11900000D02*
G75*
G02*
X12285000Y-11900000I-15000J0D01*
G01*
X12285000Y-11900000D02*
G75*
G02*
X12315000Y-11900000I15000J0D01*
G01*
X12315000Y-12000000D02*
G75*
G02*
X12285000Y-12000000I-15000J0D01*
G01*
X12285000Y-12000000D02*
G75*
G02*
X12315000Y-12000000I15000J0D01*
G01*
X12315000Y-12100000D02*
G75*
G02*
X12285000Y-12100000I-15000J0D01*
G01*
X12285000Y-12100000D02*
G75*
G02*
X12315000Y-12100000I15000J0D01*
G01*
X12315000Y-12200000D02*
G75*
G02*
X12285000Y-12200000I-15000J0D01*
G01*
X12285000Y-12200000D02*
G75*
G02*
X12315000Y-12200000I15000J0D01*
G01*
X12315000Y-12300000D02*
G75*
G02*
X12285000Y-12300000I-15000J0D01*
G01*
X12285000Y-12300000D02*
G75*
G02*
X12315000Y-12300000I15000J0D01*
G01*
X12315000Y-12400000D02*
G75*
G02*
X12285000Y-12400000I-15000J0D01*
G01*
X12285000Y-12400000D02*
G75*
G02*
X12315000Y-12400000I15000J0D01*
G01*
X12315000Y-12500000D02*
G75*
G02*
X12285000Y-12500000I-15000J0D01*
G01*
X12285000Y-12500000D02*
G75*
G02*
X12315000Y-12500000I15000J0D01*
G01*
X12415000Y-11800000D02*
G75*
G02*
X12385000Y-11800000I-15000J0D01*
G01*
X12385000Y-11800000D02*
G75*
G02*
X12415000Y-11800000I15000J0D01*
G01*
X12415000Y-11900000D02*
G75*
G02*
X12385000Y-11900000I-15000J0D01*
G01*
X12385000Y-11900000D02*
G75*
G02*
X12415000Y-11900000I15000J0D01*
G01*
X12415000Y-12000000D02*
G75*
G02*
X12385000Y-12000000I-15000J0D01*
G01*
X12385000Y-12000000D02*
G75*
G02*
X12415000Y-12000000I15000J0D01*
G01*
X12415000Y-12100000D02*
G75*
G02*
X12385000Y-12100000I-15000J0D01*
G01*
X12385000Y-12100000D02*
G75*
G02*
X12415000Y-12100000I15000J0D01*
G01*
X12415000Y-12200000D02*
G75*
G02*
X12385000Y-12200000I-15000J0D01*
G01*
X12385000Y-12200000D02*
G75*
G02*
X12415000Y-12200000I15000J0D01*
G01*
X12415000Y-12300000D02*
G75*
G02*
X12385000Y-12300000I-15000J0D01*
G01*
X12385000Y-12300000D02*
G75*
G02*
X12415000Y-12300000I15000J0D01*
G01*
X12415000Y-12400000D02*
G75*
G02*
X12385000Y-12400000I-15000J0D01*
G01*
X12385000Y-12400000D02*
G75*
G02*
X12415000Y-12400000I15000J0D01*
G01*
X12415000Y-12500000D02*
G75*
G02*
X12385000Y-12500000I-15000J0D01*
G01*
X12385000Y-12500000D02*
G75*
G02*
X12415000Y-12500000I15000J0D01*
G01*
X12515000Y-12100000D02*
G75*
G02*
X12485000Y-12100000I-15000J0D01*
G01*
X12485000Y-12100000D02*
G75*
G02*
X12515000Y-12100000I15000J0D01*
G01*
X12515000Y-12200000D02*
G75*
G02*
X12485000Y-12200000I-15000J0D01*
G01*
X12485000Y-12200000D02*
G75*
G02*
X12515000Y-12200000I15000J0D01*
G01*
X12515000Y-12300000D02*
G75*
G02*
X12485000Y-12300000I-15000J0D01*
G01*
X12485000Y-12300000D02*
G75*
G02*
X12515000Y-12300000I15000J0D01*
G01*
X12515000Y-12400000D02*
G75*
G02*
X12485000Y-12400000I-15000J0D01*
G01*
X12485000Y-12400000D02*
G75*
G02*
X12515000Y-12400000I15000J0D01*
G01*
X12515000Y-12500000D02*
G75*
G02*
X12485000Y-12500000I-15000J0D01*
G01*
X12485000Y-12500000D02*
G75*
G02*
X12515000Y-12500000I15000J0D01*
G01*
X12615000Y-12100000D02*
G75*
G02*
X12585000Y-12100000I-15000J0D01*
G01*
X12585000Y-12100000D02*
G75*
G02*
X12615000Y-12100000I15000J0D01*
G01*
X12615000Y-12200000D02*
G75*
G02*
X12585000Y-12200000I-15000J0D01*
G01*
X12585000Y-12200000D02*
G75*
G02*
X12615000Y-12200000I15000J0D01*
G01*
X12615000Y-12300000D02*
G75*
G02*
X12585000Y-12300000I-15000J0D01*
G01*
X12585000Y-12300000D02*
G75*
G02*
X12615000Y-12300000I15000J0D01*
G01*
X12615000Y-12400000D02*
G75*
G02*
X12585000Y-12400000I-15000J0D01*
G01*
X12585000Y-12400000D02*
G75*
G02*
X12615000Y-12400000I15000J0D01*
G01*
X12615000Y-12500000D02*
G75*
G02*
X12585000Y-12500000I-15000J0D01*
G01*
X12585000Y-12500000D02*
G75*
G02*
X12615000Y-12500000I15000J0D01*
G01*
X12715000Y-12100000D02*
G75*
G02*
X12685000Y-12100000I-15000J0D01*
G01*
X12685000Y-12100000D02*
G75*
G02*
X12715000Y-12100000I15000J0D01*
G01*
X12715000Y-12200000D02*
G75*
G02*
X12685000Y-12200000I-15000J0D01*
G01*
X12685000Y-12200000D02*
G75*
G02*
X12715000Y-12200000I15000J0D01*
G01*
X12715000Y-12300000D02*
G75*
G02*
X12685000Y-12300000I-15000J0D01*
G01*
X12685000Y-12300000D02*
G75*
G02*
X12715000Y-12300000I15000J0D01*
G01*
X12715000Y-12400000D02*
G75*
G02*
X12685000Y-12400000I-15000J0D01*
G01*
X12685000Y-12400000D02*
G75*
G02*
X12715000Y-12400000I15000J0D01*
G01*
X12715000Y-12500000D02*
G75*
G02*
X12685000Y-12500000I-15000J0D01*
G01*
X12685000Y-12500000D02*
G75*
G02*
X12715000Y-12500000I15000J0D01*
G01*
X12775000Y-8690000D02*
G75*
G02*
X12745000Y-8690000I-15000J0D01*
G01*
X12745000Y-8690000D02*
G75*
G02*
X12775000Y-8690000I15000J0D01*
G01*
X12775000Y-8800000D02*
G75*
G02*
X12745000Y-8800000I-15000J0D01*
G01*
X12745000Y-8800000D02*
G75*
G02*
X12775000Y-8800000I15000J0D01*
G01*
X12815000Y-12100000D02*
G75*
G02*
X12785000Y-12100000I-15000J0D01*
G01*
X12785000Y-12100000D02*
G75*
G02*
X12815000Y-12100000I15000J0D01*
G01*
X12815000Y-12200000D02*
G75*
G02*
X12785000Y-12200000I-15000J0D01*
G01*
X12785000Y-12200000D02*
G75*
G02*
X12815000Y-12200000I15000J0D01*
G01*
X12815000Y-12300000D02*
G75*
G02*
X12785000Y-12300000I-15000J0D01*
G01*
X12785000Y-12300000D02*
G75*
G02*
X12815000Y-12300000I15000J0D01*
G01*
X12815000Y-12400000D02*
G75*
G02*
X12785000Y-12400000I-15000J0D01*
G01*
X12785000Y-12400000D02*
G75*
G02*
X12815000Y-12400000I15000J0D01*
G01*
X12815000Y-12500000D02*
G75*
G02*
X12785000Y-12500000I-15000J0D01*
G01*
X12785000Y-12500000D02*
G75*
G02*
X12815000Y-12500000I15000J0D01*
G01*
X13015000Y-12100000D02*
G75*
G02*
X12985000Y-12100000I-15000J0D01*
G01*
X12985000Y-12100000D02*
G75*
G02*
X13015000Y-12100000I15000J0D01*
G01*
X13015000Y-12200000D02*
G75*
G02*
X12985000Y-12200000I-15000J0D01*
G01*
X12985000Y-12200000D02*
G75*
G02*
X13015000Y-12200000I15000J0D01*
G01*
X13015000Y-12300000D02*
G75*
G02*
X12985000Y-12300000I-15000J0D01*
G01*
X12985000Y-12300000D02*
G75*
G02*
X13015000Y-12300000I15000J0D01*
G01*
X13015000Y-12400000D02*
G75*
G02*
X12985000Y-12400000I-15000J0D01*
G01*
X12985000Y-12400000D02*
G75*
G02*
X13015000Y-12400000I15000J0D01*
G01*
X13015000Y-12500000D02*
G75*
G02*
X12985000Y-12500000I-15000J0D01*
G01*
X12985000Y-12500000D02*
G75*
G02*
X13015000Y-12500000I15000J0D01*
G01*
X13015000Y-12600000D02*
G75*
G02*
X12985000Y-12600000I-15000J0D01*
G01*
X12985000Y-12600000D02*
G75*
G02*
X13015000Y-12600000I15000J0D01*
G01*
X13015000Y-12700000D02*
G75*
G02*
X12985000Y-12700000I-15000J0D01*
G01*
X12985000Y-12700000D02*
G75*
G02*
X13015000Y-12700000I15000J0D01*
G01*
X13015000Y-12800000D02*
G75*
G02*
X12985000Y-12800000I-15000J0D01*
G01*
X12985000Y-12800000D02*
G75*
G02*
X13015000Y-12800000I15000J0D01*
G01*
X13015000Y-12900000D02*
G75*
G02*
X12985000Y-12900000I-15000J0D01*
G01*
X12985000Y-12900000D02*
G75*
G02*
X13015000Y-12900000I15000J0D01*
G01*
X13045000Y-8520000D02*
G75*
G02*
X13015000Y-8520000I-15000J0D01*
G01*
X13015000Y-8520000D02*
G75*
G02*
X13045000Y-8520000I15000J0D01*
G01*
X13055000Y-8630000D02*
G75*
G02*
X13025000Y-8630000I-15000J0D01*
G01*
X13025000Y-8630000D02*
G75*
G02*
X13055000Y-8630000I15000J0D01*
G01*
X13055000Y-8800000D02*
G75*
G02*
X13025000Y-8800000I-15000J0D01*
G01*
X13025000Y-8800000D02*
G75*
G02*
X13055000Y-8800000I15000J0D01*
G01*
X13077500Y-8347500D02*
G75*
G02*
X13047500Y-8347500I-15000J0D01*
G01*
X13047500Y-8347500D02*
G75*
G02*
X13077500Y-8347500I15000J0D01*
G01*
X13115000Y-12100000D02*
G75*
G02*
X13085000Y-12100000I-15000J0D01*
G01*
X13085000Y-12100000D02*
G75*
G02*
X13115000Y-12100000I15000J0D01*
G01*
X13115000Y-12200000D02*
G75*
G02*
X13085000Y-12200000I-15000J0D01*
G01*
X13085000Y-12200000D02*
G75*
G02*
X13115000Y-12200000I15000J0D01*
G01*
X13115000Y-12300000D02*
G75*
G02*
X13085000Y-12300000I-15000J0D01*
G01*
X13085000Y-12300000D02*
G75*
G02*
X13115000Y-12300000I15000J0D01*
G01*
X13115000Y-12400000D02*
G75*
G02*
X13085000Y-12400000I-15000J0D01*
G01*
X13085000Y-12400000D02*
G75*
G02*
X13115000Y-12400000I15000J0D01*
G01*
X13115000Y-12500000D02*
G75*
G02*
X13085000Y-12500000I-15000J0D01*
G01*
X13085000Y-12500000D02*
G75*
G02*
X13115000Y-12500000I15000J0D01*
G01*
X13115000Y-12600000D02*
G75*
G02*
X13085000Y-12600000I-15000J0D01*
G01*
X13085000Y-12600000D02*
G75*
G02*
X13115000Y-12600000I15000J0D01*
G01*
X13115000Y-12700000D02*
G75*
G02*
X13085000Y-12700000I-15000J0D01*
G01*
X13085000Y-12700000D02*
G75*
G02*
X13115000Y-12700000I15000J0D01*
G01*
X13115000Y-12800000D02*
G75*
G02*
X13085000Y-12800000I-15000J0D01*
G01*
X13085000Y-12800000D02*
G75*
G02*
X13115000Y-12800000I15000J0D01*
G01*
X13115000Y-12900000D02*
G75*
G02*
X13085000Y-12900000I-15000J0D01*
G01*
X13085000Y-12900000D02*
G75*
G02*
X13115000Y-12900000I15000J0D01*
G01*
X13185000Y-8710000D02*
G75*
G02*
X13155000Y-8710000I-15000J0D01*
G01*
X13155000Y-8710000D02*
G75*
G02*
X13185000Y-8710000I15000J0D01*
G01*
X13215000Y-12100000D02*
G75*
G02*
X13185000Y-12100000I-15000J0D01*
G01*
X13185000Y-12100000D02*
G75*
G02*
X13215000Y-12100000I15000J0D01*
G01*
X13215000Y-12200000D02*
G75*
G02*
X13185000Y-12200000I-15000J0D01*
G01*
X13185000Y-12200000D02*
G75*
G02*
X13215000Y-12200000I15000J0D01*
G01*
X13215000Y-12300000D02*
G75*
G02*
X13185000Y-12300000I-15000J0D01*
G01*
X13185000Y-12300000D02*
G75*
G02*
X13215000Y-12300000I15000J0D01*
G01*
X13215000Y-12400000D02*
G75*
G02*
X13185000Y-12400000I-15000J0D01*
G01*
X13185000Y-12400000D02*
G75*
G02*
X13215000Y-12400000I15000J0D01*
G01*
X13215000Y-12500000D02*
G75*
G02*
X13185000Y-12500000I-15000J0D01*
G01*
X13185000Y-12500000D02*
G75*
G02*
X13215000Y-12500000I15000J0D01*
G01*
X13215000Y-12600000D02*
G75*
G02*
X13185000Y-12600000I-15000J0D01*
G01*
X13185000Y-12600000D02*
G75*
G02*
X13215000Y-12600000I15000J0D01*
G01*
X13215000Y-12700000D02*
G75*
G02*
X13185000Y-12700000I-15000J0D01*
G01*
X13185000Y-12700000D02*
G75*
G02*
X13215000Y-12700000I15000J0D01*
G01*
X13215000Y-12800000D02*
G75*
G02*
X13185000Y-12800000I-15000J0D01*
G01*
X13185000Y-12800000D02*
G75*
G02*
X13215000Y-12800000I15000J0D01*
G01*
X13215000Y-12900000D02*
G75*
G02*
X13185000Y-12900000I-15000J0D01*
G01*
X13185000Y-12900000D02*
G75*
G02*
X13215000Y-12900000I15000J0D01*
G01*
X13315000Y-9080000D02*
G75*
G02*
X13285000Y-9080000I-15000J0D01*
G01*
X13285000Y-9080000D02*
G75*
G02*
X13315000Y-9080000I15000J0D01*
G01*
X13315000Y-12100000D02*
G75*
G02*
X13285000Y-12100000I-15000J0D01*
G01*
X13285000Y-12100000D02*
G75*
G02*
X13315000Y-12100000I15000J0D01*
G01*
X13315000Y-12200000D02*
G75*
G02*
X13285000Y-12200000I-15000J0D01*
G01*
X13285000Y-12200000D02*
G75*
G02*
X13315000Y-12200000I15000J0D01*
G01*
X13315000Y-12300000D02*
G75*
G02*
X13285000Y-12300000I-15000J0D01*
G01*
X13285000Y-12300000D02*
G75*
G02*
X13315000Y-12300000I15000J0D01*
G01*
X13315000Y-12400000D02*
G75*
G02*
X13285000Y-12400000I-15000J0D01*
G01*
X13285000Y-12400000D02*
G75*
G02*
X13315000Y-12400000I15000J0D01*
G01*
X13315000Y-12500000D02*
G75*
G02*
X13285000Y-12500000I-15000J0D01*
G01*
X13285000Y-12500000D02*
G75*
G02*
X13315000Y-12500000I15000J0D01*
G01*
X13315000Y-12600000D02*
G75*
G02*
X13285000Y-12600000I-15000J0D01*
G01*
X13285000Y-12600000D02*
G75*
G02*
X13315000Y-12600000I15000J0D01*
G01*
X13315000Y-12700000D02*
G75*
G02*
X13285000Y-12700000I-15000J0D01*
G01*
X13285000Y-12700000D02*
G75*
G02*
X13315000Y-12700000I15000J0D01*
G01*
X13315000Y-12800000D02*
G75*
G02*
X13285000Y-12800000I-15000J0D01*
G01*
X13285000Y-12800000D02*
G75*
G02*
X13315000Y-12800000I15000J0D01*
G01*
X13315000Y-12900000D02*
G75*
G02*
X13285000Y-12900000I-15000J0D01*
G01*
X13285000Y-12900000D02*
G75*
G02*
X13315000Y-12900000I15000J0D01*
G01*
X13415000Y-12100000D02*
G75*
G02*
X13385000Y-12100000I-15000J0D01*
G01*
X13385000Y-12100000D02*
G75*
G02*
X13415000Y-12100000I15000J0D01*
G01*
X13415000Y-12200000D02*
G75*
G02*
X13385000Y-12200000I-15000J0D01*
G01*
X13385000Y-12200000D02*
G75*
G02*
X13415000Y-12200000I15000J0D01*
G01*
X13415000Y-12300000D02*
G75*
G02*
X13385000Y-12300000I-15000J0D01*
G01*
X13385000Y-12300000D02*
G75*
G02*
X13415000Y-12300000I15000J0D01*
G01*
X13415000Y-12400000D02*
G75*
G02*
X13385000Y-12400000I-15000J0D01*
G01*
X13385000Y-12400000D02*
G75*
G02*
X13415000Y-12400000I15000J0D01*
G01*
X13415000Y-12500000D02*
G75*
G02*
X13385000Y-12500000I-15000J0D01*
G01*
X13385000Y-12500000D02*
G75*
G02*
X13415000Y-12500000I15000J0D01*
G01*
X13415000Y-12600000D02*
G75*
G02*
X13385000Y-12600000I-15000J0D01*
G01*
X13385000Y-12600000D02*
G75*
G02*
X13415000Y-12600000I15000J0D01*
G01*
X13415000Y-12700000D02*
G75*
G02*
X13385000Y-12700000I-15000J0D01*
G01*
X13385000Y-12700000D02*
G75*
G02*
X13415000Y-12700000I15000J0D01*
G01*
X13415000Y-12800000D02*
G75*
G02*
X13385000Y-12800000I-15000J0D01*
G01*
X13385000Y-12800000D02*
G75*
G02*
X13415000Y-12800000I15000J0D01*
G01*
X13415000Y-12900000D02*
G75*
G02*
X13385000Y-12900000I-15000J0D01*
G01*
X13385000Y-12900000D02*
G75*
G02*
X13415000Y-12900000I15000J0D01*
G01*
X13425000Y-7670000D02*
G75*
G02*
X13395000Y-7670000I-15000J0D01*
G01*
X13395000Y-7670000D02*
G75*
G02*
X13425000Y-7670000I15000J0D01*
G01*
X13430000Y-7755000D02*
G75*
G02*
X13400000Y-7755000I-15000J0D01*
G01*
X13400000Y-7755000D02*
G75*
G02*
X13430000Y-7755000I15000J0D01*
G01*
X13505000Y-7670000D02*
G75*
G02*
X13475000Y-7670000I-15000J0D01*
G01*
X13475000Y-7670000D02*
G75*
G02*
X13505000Y-7670000I15000J0D01*
G01*
X13515000Y-12100000D02*
G75*
G02*
X13485000Y-12100000I-15000J0D01*
G01*
X13485000Y-12100000D02*
G75*
G02*
X13515000Y-12100000I15000J0D01*
G01*
X13515000Y-12200000D02*
G75*
G02*
X13485000Y-12200000I-15000J0D01*
G01*
X13485000Y-12200000D02*
G75*
G02*
X13515000Y-12200000I15000J0D01*
G01*
X13515000Y-12300000D02*
G75*
G02*
X13485000Y-12300000I-15000J0D01*
G01*
X13485000Y-12300000D02*
G75*
G02*
X13515000Y-12300000I15000J0D01*
G01*
X13515000Y-12400000D02*
G75*
G02*
X13485000Y-12400000I-15000J0D01*
G01*
X13485000Y-12400000D02*
G75*
G02*
X13515000Y-12400000I15000J0D01*
G01*
X13515000Y-12500000D02*
G75*
G02*
X13485000Y-12500000I-15000J0D01*
G01*
X13485000Y-12500000D02*
G75*
G02*
X13515000Y-12500000I15000J0D01*
G01*
X13515000Y-12600000D02*
G75*
G02*
X13485000Y-12600000I-15000J0D01*
G01*
X13485000Y-12600000D02*
G75*
G02*
X13515000Y-12600000I15000J0D01*
G01*
X13585000Y-7670000D02*
G75*
G02*
X13555000Y-7670000I-15000J0D01*
G01*
X13555000Y-7670000D02*
G75*
G02*
X13585000Y-7670000I15000J0D01*
G01*
X13615000Y-12100000D02*
G75*
G02*
X13585000Y-12100000I-15000J0D01*
G01*
X13585000Y-12100000D02*
G75*
G02*
X13615000Y-12100000I15000J0D01*
G01*
X13615000Y-12200000D02*
G75*
G02*
X13585000Y-12200000I-15000J0D01*
G01*
X13585000Y-12200000D02*
G75*
G02*
X13615000Y-12200000I15000J0D01*
G01*
X13615000Y-12300000D02*
G75*
G02*
X13585000Y-12300000I-15000J0D01*
G01*
X13585000Y-12300000D02*
G75*
G02*
X13615000Y-12300000I15000J0D01*
G01*
X13615000Y-12400000D02*
G75*
G02*
X13585000Y-12400000I-15000J0D01*
G01*
X13585000Y-12400000D02*
G75*
G02*
X13615000Y-12400000I15000J0D01*
G01*
X13615000Y-12500000D02*
G75*
G02*
X13585000Y-12500000I-15000J0D01*
G01*
X13585000Y-12500000D02*
G75*
G02*
X13615000Y-12500000I15000J0D01*
G01*
X13615000Y-12600000D02*
G75*
G02*
X13585000Y-12600000I-15000J0D01*
G01*
X13585000Y-12600000D02*
G75*
G02*
X13615000Y-12600000I15000J0D01*
G01*
X13615000Y-12700000D02*
G75*
G02*
X13585000Y-12700000I-15000J0D01*
G01*
X13585000Y-12700000D02*
G75*
G02*
X13615000Y-12700000I15000J0D01*
G01*
X13615000Y-12900000D02*
G75*
G02*
X13585000Y-12900000I-15000J0D01*
G01*
X13585000Y-12900000D02*
G75*
G02*
X13615000Y-12900000I15000J0D01*
G01*
X13655000Y-9160000D02*
G75*
G02*
X13625000Y-9160000I-15000J0D01*
G01*
X13625000Y-9160000D02*
G75*
G02*
X13655000Y-9160000I15000J0D01*
G01*
X13675000Y-7670000D02*
G75*
G02*
X13645000Y-7670000I-15000J0D01*
G01*
X13645000Y-7670000D02*
G75*
G02*
X13675000Y-7670000I15000J0D01*
G01*
X13715000Y-11800000D02*
G75*
G02*
X13685000Y-11800000I-15000J0D01*
G01*
X13685000Y-11800000D02*
G75*
G02*
X13715000Y-11800000I15000J0D01*
G01*
X13715000Y-12100000D02*
G75*
G02*
X13685000Y-12100000I-15000J0D01*
G01*
X13685000Y-12100000D02*
G75*
G02*
X13715000Y-12100000I15000J0D01*
G01*
X13715000Y-12200000D02*
G75*
G02*
X13685000Y-12200000I-15000J0D01*
G01*
X13685000Y-12200000D02*
G75*
G02*
X13715000Y-12200000I15000J0D01*
G01*
X13715000Y-12300000D02*
G75*
G02*
X13685000Y-12300000I-15000J0D01*
G01*
X13685000Y-12300000D02*
G75*
G02*
X13715000Y-12300000I15000J0D01*
G01*
X13715000Y-12400000D02*
G75*
G02*
X13685000Y-12400000I-15000J0D01*
G01*
X13685000Y-12400000D02*
G75*
G02*
X13715000Y-12400000I15000J0D01*
G01*
X13715000Y-12500000D02*
G75*
G02*
X13685000Y-12500000I-15000J0D01*
G01*
X13685000Y-12500000D02*
G75*
G02*
X13715000Y-12500000I15000J0D01*
G01*
X13715000Y-12600000D02*
G75*
G02*
X13685000Y-12600000I-15000J0D01*
G01*
X13685000Y-12600000D02*
G75*
G02*
X13715000Y-12600000I15000J0D01*
G01*
X13715000Y-12700000D02*
G75*
G02*
X13685000Y-12700000I-15000J0D01*
G01*
X13685000Y-12700000D02*
G75*
G02*
X13715000Y-12700000I15000J0D01*
G01*
X13715000Y-12800000D02*
G75*
G02*
X13685000Y-12800000I-15000J0D01*
G01*
X13685000Y-12800000D02*
G75*
G02*
X13715000Y-12800000I15000J0D01*
G01*
X13715000Y-12900000D02*
G75*
G02*
X13685000Y-12900000I-15000J0D01*
G01*
X13685000Y-12900000D02*
G75*
G02*
X13715000Y-12900000I15000J0D01*
G01*
X13730624Y-9540000D02*
G75*
G02*
X13700624Y-9540000I-15000J0D01*
G01*
X13700624Y-9540000D02*
G75*
G02*
X13730624Y-9540000I15000J0D01*
G01*
X13755000Y-7670000D02*
G75*
G02*
X13725000Y-7670000I-15000J0D01*
G01*
X13725000Y-7670000D02*
G75*
G02*
X13755000Y-7670000I15000J0D01*
G01*
X13775000Y-9620000D02*
G75*
G02*
X13745000Y-9620000I-15000J0D01*
G01*
X13745000Y-9620000D02*
G75*
G02*
X13775000Y-9620000I15000J0D01*
G01*
X13815000Y-12100000D02*
G75*
G02*
X13785000Y-12100000I-15000J0D01*
G01*
X13785000Y-12100000D02*
G75*
G02*
X13815000Y-12100000I15000J0D01*
G01*
X13815000Y-12200000D02*
G75*
G02*
X13785000Y-12200000I-15000J0D01*
G01*
X13785000Y-12200000D02*
G75*
G02*
X13815000Y-12200000I15000J0D01*
G01*
X13845000Y-7670000D02*
G75*
G02*
X13815000Y-7670000I-15000J0D01*
G01*
X13815000Y-7670000D02*
G75*
G02*
X13845000Y-7670000I15000J0D01*
G01*
X13850000Y-8265000D02*
G75*
G02*
X13820000Y-8265000I-15000J0D01*
G01*
X13820000Y-8265000D02*
G75*
G02*
X13850000Y-8265000I15000J0D01*
G01*
X13850000Y-8430000D02*
G75*
G02*
X13820000Y-8430000I-15000J0D01*
G01*
X13820000Y-8430000D02*
G75*
G02*
X13850000Y-8430000I15000J0D01*
G01*
X13855000Y-8100000D02*
G75*
G02*
X13825000Y-8100000I-15000J0D01*
G01*
X13825000Y-8100000D02*
G75*
G02*
X13855000Y-8100000I15000J0D01*
G01*
X13889000Y-10374000D02*
G75*
G02*
X13859000Y-10374000I-15000J0D01*
G01*
X13859000Y-10374000D02*
G75*
G02*
X13889000Y-10374000I15000J0D01*
G01*
X13915000Y-12100000D02*
G75*
G02*
X13885000Y-12100000I-15000J0D01*
G01*
X13885000Y-12100000D02*
G75*
G02*
X13915000Y-12100000I15000J0D01*
G01*
X13915000Y-12200000D02*
G75*
G02*
X13885000Y-12200000I-15000J0D01*
G01*
X13885000Y-12200000D02*
G75*
G02*
X13915000Y-12200000I15000J0D01*
G01*
X13935000Y-7670000D02*
G75*
G02*
X13905000Y-7670000I-15000J0D01*
G01*
X13905000Y-7670000D02*
G75*
G02*
X13935000Y-7670000I15000J0D01*
G01*
X13990000Y-10375000D02*
G75*
G02*
X13960000Y-10375000I-15000J0D01*
G01*
X13960000Y-10375000D02*
G75*
G02*
X13990000Y-10375000I15000J0D01*
G01*
X14015000Y-7670000D02*
G75*
G02*
X13985000Y-7670000I-15000J0D01*
G01*
X13985000Y-7670000D02*
G75*
G02*
X14015000Y-7670000I15000J0D01*
G01*
X14015000Y-8100000D02*
G75*
G02*
X13985000Y-8100000I-15000J0D01*
G01*
X13985000Y-8100000D02*
G75*
G02*
X14015000Y-8100000I15000J0D01*
G01*
X14015000Y-8265000D02*
G75*
G02*
X13985000Y-8265000I-15000J0D01*
G01*
X13985000Y-8265000D02*
G75*
G02*
X14015000Y-8265000I15000J0D01*
G01*
X14015000Y-8430000D02*
G75*
G02*
X13985000Y-8430000I-15000J0D01*
G01*
X13985000Y-8430000D02*
G75*
G02*
X14015000Y-8430000I15000J0D01*
G01*
X14015000Y-11540000D02*
G75*
G02*
X13985000Y-11540000I-15000J0D01*
G01*
X13985000Y-11540000D02*
G75*
G02*
X14015000Y-11540000I15000J0D01*
G01*
X14015000Y-12100000D02*
G75*
G02*
X13985000Y-12100000I-15000J0D01*
G01*
X13985000Y-12100000D02*
G75*
G02*
X14015000Y-12100000I15000J0D01*
G01*
X14015000Y-12200000D02*
G75*
G02*
X13985000Y-12200000I-15000J0D01*
G01*
X13985000Y-12200000D02*
G75*
G02*
X14015000Y-12200000I15000J0D01*
G01*
X14095000Y-7670000D02*
G75*
G02*
X14065000Y-7670000I-15000J0D01*
G01*
X14065000Y-7670000D02*
G75*
G02*
X14095000Y-7670000I15000J0D01*
G01*
X14115000Y-11540000D02*
G75*
G02*
X14085000Y-11540000I-15000J0D01*
G01*
X14085000Y-11540000D02*
G75*
G02*
X14115000Y-11540000I15000J0D01*
G01*
X14115000Y-12100000D02*
G75*
G02*
X14085000Y-12100000I-15000J0D01*
G01*
X14085000Y-12100000D02*
G75*
G02*
X14115000Y-12100000I15000J0D01*
G01*
X14115000Y-12200000D02*
G75*
G02*
X14085000Y-12200000I-15000J0D01*
G01*
X14085000Y-12200000D02*
G75*
G02*
X14115000Y-12200000I15000J0D01*
G01*
X14180000Y-8100000D02*
G75*
G02*
X14150000Y-8100000I-15000J0D01*
G01*
X14150000Y-8100000D02*
G75*
G02*
X14180000Y-8100000I15000J0D01*
G01*
X14180000Y-8265000D02*
G75*
G02*
X14150000Y-8265000I-15000J0D01*
G01*
X14150000Y-8265000D02*
G75*
G02*
X14180000Y-8265000I15000J0D01*
G01*
X14180000Y-8430000D02*
G75*
G02*
X14150000Y-8430000I-15000J0D01*
G01*
X14150000Y-8430000D02*
G75*
G02*
X14180000Y-8430000I15000J0D01*
G01*
X14185000Y-7670000D02*
G75*
G02*
X14155000Y-7670000I-15000J0D01*
G01*
X14155000Y-7670000D02*
G75*
G02*
X14185000Y-7670000I15000J0D01*
G01*
X14265000Y-7670000D02*
G75*
G02*
X14235000Y-7670000I-15000J0D01*
G01*
X14235000Y-7670000D02*
G75*
G02*
X14265000Y-7670000I15000J0D01*
G01*
X14265000Y-12200000D02*
G75*
G02*
X14235000Y-12200000I-15000J0D01*
G01*
X14235000Y-12200000D02*
G75*
G02*
X14265000Y-12200000I15000J0D01*
G01*
X14275000Y-10320000D02*
G75*
G02*
X14245000Y-10320000I-15000J0D01*
G01*
X14245000Y-10320000D02*
G75*
G02*
X14275000Y-10320000I15000J0D01*
G01*
X14285000Y-9670000D02*
G75*
G02*
X14255000Y-9670000I-15000J0D01*
G01*
X14255000Y-9670000D02*
G75*
G02*
X14285000Y-9670000I15000J0D01*
G01*
X14355000Y-7670000D02*
G75*
G02*
X14325000Y-7670000I-15000J0D01*
G01*
X14325000Y-7670000D02*
G75*
G02*
X14355000Y-7670000I15000J0D01*
G01*
X14425000Y-9940000D02*
G75*
G02*
X14395000Y-9940000I-15000J0D01*
G01*
X14395000Y-9940000D02*
G75*
G02*
X14425000Y-9940000I15000J0D01*
G01*
X14425000Y-10040000D02*
G75*
G02*
X14395000Y-10040000I-15000J0D01*
G01*
X14395000Y-10040000D02*
G75*
G02*
X14425000Y-10040000I15000J0D01*
G01*
X14435000Y-7670000D02*
G75*
G02*
X14405000Y-7670000I-15000J0D01*
G01*
X14405000Y-7670000D02*
G75*
G02*
X14435000Y-7670000I15000J0D01*
G01*
X14465000Y-11950000D02*
G75*
G02*
X14435000Y-11950000I-15000J0D01*
G01*
X14435000Y-11950000D02*
G75*
G02*
X14465000Y-11950000I15000J0D01*
G01*
X14525000Y-7670000D02*
G75*
G02*
X14495000Y-7670000I-15000J0D01*
G01*
X14495000Y-7670000D02*
G75*
G02*
X14525000Y-7670000I15000J0D01*
G01*
X14540000Y-12200000D02*
G75*
G02*
X14510000Y-12200000I-15000J0D01*
G01*
X14510000Y-12200000D02*
G75*
G02*
X14540000Y-12200000I15000J0D01*
G01*
X14605000Y-7670000D02*
G75*
G02*
X14575000Y-7670000I-15000J0D01*
G01*
X14575000Y-7670000D02*
G75*
G02*
X14605000Y-7670000I15000J0D01*
G01*
X14605000Y-7840000D02*
G75*
G02*
X14575000Y-7840000I-15000J0D01*
G01*
X14575000Y-7840000D02*
G75*
G02*
X14605000Y-7840000I15000J0D01*
G01*
X14605000Y-7920000D02*
G75*
G02*
X14575000Y-7920000I-15000J0D01*
G01*
X14575000Y-7920000D02*
G75*
G02*
X14605000Y-7920000I15000J0D01*
G01*
X14615000Y-11760000D02*
G75*
G02*
X14585000Y-11760000I-15000J0D01*
G01*
X14585000Y-11760000D02*
G75*
G02*
X14615000Y-11760000I15000J0D01*
G01*
X14655000Y-12160000D02*
G75*
G02*
X14625000Y-12160000I-15000J0D01*
G01*
X14625000Y-12160000D02*
G75*
G02*
X14655000Y-12160000I15000J0D01*
G01*
X14714926Y-12000550D02*
G75*
G02*
X14684926Y-12000550I-15000J0D01*
G01*
X14684926Y-12000550D02*
G75*
G02*
X14714926Y-12000550I15000J0D01*
G01*
X14865000Y-11350000D02*
G75*
G02*
X14835000Y-11350000I-15000J0D01*
G01*
X14835000Y-11350000D02*
G75*
G02*
X14865000Y-11350000I15000J0D01*
G01*
X14865000Y-11450000D02*
G75*
G02*
X14835000Y-11450000I-15000J0D01*
G01*
X14835000Y-11450000D02*
G75*
G02*
X14865000Y-11450000I15000J0D01*
G01*
X14865000Y-11550000D02*
G75*
G02*
X14835000Y-11550000I-15000J0D01*
G01*
X14835000Y-11550000D02*
G75*
G02*
X14865000Y-11550000I15000J0D01*
G01*
X14865000Y-11700000D02*
G75*
G02*
X14835000Y-11700000I-15000J0D01*
G01*
X14835000Y-11700000D02*
G75*
G02*
X14865000Y-11700000I15000J0D01*
G01*
X14965000Y-11450000D02*
G75*
G02*
X14935000Y-11450000I-15000J0D01*
G01*
X14935000Y-11450000D02*
G75*
G02*
X14965000Y-11450000I15000J0D01*
G01*
X14965000Y-11550000D02*
G75*
G02*
X14935000Y-11550000I-15000J0D01*
G01*
X14935000Y-11550000D02*
G75*
G02*
X14965000Y-11550000I15000J0D01*
G01*
X14990000Y-12250000D02*
G75*
G02*
X14960000Y-12250000I-15000J0D01*
G01*
X14960000Y-12250000D02*
G75*
G02*
X14990000Y-12250000I15000J0D01*
G01*
X14995000Y-10500000D02*
G75*
G02*
X14965000Y-10500000I-15000J0D01*
G01*
X14965000Y-10500000D02*
G75*
G02*
X14995000Y-10500000I15000J0D01*
G01*
X15065000Y-11550000D02*
G75*
G02*
X15035000Y-11550000I-15000J0D01*
G01*
X15035000Y-11550000D02*
G75*
G02*
X15065000Y-11550000I15000J0D01*
G01*
X15165000Y-8120000D02*
G75*
G02*
X15135000Y-8120000I-15000J0D01*
G01*
X15135000Y-8120000D02*
G75*
G02*
X15165000Y-8120000I15000J0D01*
G01*
X15225201Y-12014435D02*
G75*
G02*
X15195201Y-12014435I-15000J0D01*
G01*
X15195201Y-12014435D02*
G75*
G02*
X15225201Y-12014435I15000J0D01*
G01*
X15315000Y-11970000D02*
G75*
G02*
X15285000Y-11970000I-15000J0D01*
G01*
X15285000Y-11970000D02*
G75*
G02*
X15315000Y-11970000I15000J0D01*
G01*
X15325000Y-11600000D02*
G75*
G02*
X15295000Y-11600000I-15000J0D01*
G01*
X15295000Y-11600000D02*
G75*
G02*
X15325000Y-11600000I15000J0D01*
G01*
X15415000Y-11390000D02*
G75*
G02*
X15385000Y-11390000I-15000J0D01*
G01*
X15385000Y-11390000D02*
G75*
G02*
X15415000Y-11390000I15000J0D01*
G01*
X15496250Y-11750000D02*
G75*
G02*
X15466250Y-11750000I-15000J0D01*
G01*
X15466250Y-11750000D02*
G75*
G02*
X15496250Y-11750000I15000J0D01*
G01*
X15515000Y-12480000D02*
G75*
G02*
X15485000Y-12480000I-15000J0D01*
G01*
X15485000Y-12480000D02*
G75*
G02*
X15515000Y-12480000I15000J0D01*
G01*
X15525000Y-11140000D02*
G75*
G02*
X15495000Y-11140000I-15000J0D01*
G01*
X15495000Y-11140000D02*
G75*
G02*
X15525000Y-11140000I15000J0D01*
G01*
X15655000Y-11770000D02*
G75*
G02*
X15625000Y-11770000I-15000J0D01*
G01*
X15625000Y-11770000D02*
G75*
G02*
X15655000Y-11770000I15000J0D01*
G01*
X15670000Y-11418750D02*
G75*
G02*
X15640000Y-11418750I-15000J0D01*
G01*
X15640000Y-11418750D02*
G75*
G02*
X15670000Y-11418750I15000J0D01*
G01*
X15690000Y-12075000D02*
G75*
G02*
X15660000Y-12075000I-15000J0D01*
G01*
X15660000Y-12075000D02*
G75*
G02*
X15690000Y-12075000I15000J0D01*
G01*
X15715000Y-11825000D02*
G75*
G02*
X15685000Y-11825000I-15000J0D01*
G01*
X15685000Y-11825000D02*
G75*
G02*
X15715000Y-11825000I15000J0D01*
G01*
X15740000Y-12250000D02*
G75*
G02*
X15710000Y-12250000I-15000J0D01*
G01*
X15710000Y-12250000D02*
G75*
G02*
X15740000Y-12250000I15000J0D01*
G01*
X15795000Y-11130000D02*
G75*
G02*
X15765000Y-11130000I-15000J0D01*
G01*
X15765000Y-11130000D02*
G75*
G02*
X15795000Y-11130000I15000J0D01*
G01*
X15815000Y-11210000D02*
G75*
G02*
X15785000Y-11210000I-15000J0D01*
G01*
X15785000Y-11210000D02*
G75*
G02*
X15815000Y-11210000I15000J0D01*
G01*
X16055000Y-11180000D02*
G75*
G02*
X16025000Y-11180000I-15000J0D01*
G01*
X16025000Y-11180000D02*
G75*
G02*
X16055000Y-11180000I15000J0D01*
G01*
X16535000Y-9840000D02*
G75*
G02*
X16505000Y-9840000I-15000J0D01*
G01*
X16505000Y-9840000D02*
G75*
G02*
X16535000Y-9840000I15000J0D01*
G01*
X16535000Y-9920000D02*
G75*
G02*
X16505000Y-9920000I-15000J0D01*
G01*
X16505000Y-9920000D02*
G75*
G02*
X16535000Y-9920000I15000J0D01*
G01*
X16535000Y-10000000D02*
G75*
G02*
X16505000Y-10000000I-15000J0D01*
G01*
X16505000Y-10000000D02*
G75*
G02*
X16535000Y-10000000I15000J0D01*
G01*
X16535000Y-10080000D02*
G75*
G02*
X16505000Y-10080000I-15000J0D01*
G01*
X16505000Y-10080000D02*
G75*
G02*
X16535000Y-10080000I15000J0D01*
G01*
X16535000Y-10500000D02*
G75*
G02*
X16505000Y-10500000I-15000J0D01*
G01*
X16505000Y-10500000D02*
G75*
G02*
X16535000Y-10500000I15000J0D01*
G01*
X16535000Y-10600000D02*
G75*
G02*
X16505000Y-10600000I-15000J0D01*
G01*
X16505000Y-10600000D02*
G75*
G02*
X16535000Y-10600000I15000J0D01*
G01*
X16535000Y-10700000D02*
G75*
G02*
X16505000Y-10700000I-15000J0D01*
G01*
X16505000Y-10700000D02*
G75*
G02*
X16535000Y-10700000I15000J0D01*
G01*
X16635000Y-9840000D02*
G75*
G02*
X16605000Y-9840000I-15000J0D01*
G01*
X16605000Y-9840000D02*
G75*
G02*
X16635000Y-9840000I15000J0D01*
G01*
X16635000Y-9920000D02*
G75*
G02*
X16605000Y-9920000I-15000J0D01*
G01*
X16605000Y-9920000D02*
G75*
G02*
X16635000Y-9920000I15000J0D01*
G01*
X16635000Y-10000000D02*
G75*
G02*
X16605000Y-10000000I-15000J0D01*
G01*
X16605000Y-10000000D02*
G75*
G02*
X16635000Y-10000000I15000J0D01*
G01*
X16635000Y-10500000D02*
G75*
G02*
X16605000Y-10500000I-15000J0D01*
G01*
X16605000Y-10500000D02*
G75*
G02*
X16635000Y-10500000I15000J0D01*
G01*
X16635000Y-10600000D02*
G75*
G02*
X16605000Y-10600000I-15000J0D01*
G01*
X16605000Y-10600000D02*
G75*
G02*
X16635000Y-10600000I15000J0D01*
G01*
X16645000Y-9690000D02*
G75*
G02*
X16615000Y-9690000I-15000J0D01*
G01*
X16615000Y-9690000D02*
G75*
G02*
X16645000Y-9690000I15000J0D01*
G01*
X16655000Y-10100000D02*
G75*
G02*
X16625000Y-10100000I-15000J0D01*
G01*
X16625000Y-10100000D02*
G75*
G02*
X16655000Y-10100000I15000J0D01*
G01*
X16735000Y-10420000D02*
G75*
G02*
X16705000Y-10420000I-15000J0D01*
G01*
X16705000Y-10420000D02*
G75*
G02*
X16735000Y-10420000I15000J0D01*
G01*
X16735000Y-10500000D02*
G75*
G02*
X16705000Y-10500000I-15000J0D01*
G01*
X16705000Y-10500000D02*
G75*
G02*
X16735000Y-10500000I15000J0D01*
G01*
X14917500Y-12368650D02*
X14917500Y-12428650D01*
X14887500Y-12398650D02*
X14947500Y-12398650D01*
X14887500Y-12353650D02*
X14887500Y-12443650D01*
X14947500Y-12443650D02*
G75*
G02*
X14887500Y-12443650I-30000J0D01*
G01*
X14947500Y-12443650D02*
X14947500Y-12353650D01*
X14947500Y-12353650D02*
G75*
G03*
X14887500Y-12353650I-30000J0D01*
G01*
X14917500Y-12788650D02*
X14917500Y-12848650D01*
X14887500Y-12818650D02*
X14947500Y-12818650D01*
X14887500Y-12788650D02*
X14887500Y-12848650D01*
X14947500Y-12848650D02*
G75*
G02*
X14887500Y-12848650I-30000J0D01*
G01*
X14947500Y-12848650D02*
X14947500Y-12788650D01*
X14947500Y-12788650D02*
G75*
G03*
X14887500Y-12788650I-30000J0D01*
G01*
X15782500Y-12368650D02*
X15782500Y-12428650D01*
X15752500Y-12398650D02*
X15812500Y-12398650D01*
X15752500Y-12353650D02*
X15752500Y-12443650D01*
X15812500Y-12443650D02*
G75*
G02*
X15752500Y-12443650I-30000J0D01*
G01*
X15812500Y-12443650D02*
X15812500Y-12353650D01*
X15812500Y-12353650D02*
G75*
G03*
X15752500Y-12353650I-30000J0D01*
G01*
X15782500Y-12788650D02*
X15782500Y-12848650D01*
X15752500Y-12818650D02*
X15812500Y-12818650D01*
X15752500Y-12788650D02*
X15752500Y-12848650D01*
X15812500Y-12848650D02*
G75*
G02*
X15752500Y-12848650I-30000J0D01*
G01*
X15812500Y-12848650D02*
X15812500Y-12788650D01*
X15812500Y-12788650D02*
G75*
G03*
X15752500Y-12788650I-30000J0D01*
G01*
X12035556Y-9890856D02*
X12035556Y-9834287D01*
X11978987Y-9834287D01*
X11978987Y-9890856D01*
X12035556Y-9890856D01*
X12035556Y-10144856D02*
X12035556Y-10088287D01*
X11978987Y-10088287D01*
X11978987Y-10144856D01*
X12035556Y-10144856D01*
X12035556Y-10398856D02*
X12035556Y-10342287D01*
X11978987Y-10342287D01*
X11978987Y-10398856D01*
X12035556Y-10398856D01*
X12035556Y-9636856D02*
X12035556Y-9580287D01*
X11978987Y-9580287D01*
X11978987Y-9636856D01*
X12035556Y-9636856D01*
X16127104Y-10141584D02*
X16127104Y-10085015D01*
X16070535Y-10085015D01*
X16070535Y-10141584D01*
X16127104Y-10141584D01*
X16127104Y-9887584D02*
X16127104Y-9831015D01*
X16070535Y-9831015D01*
X16070535Y-9887584D01*
X16127104Y-9887584D01*
X12340000Y-8102500D02*
X12385000Y-8057500D01*
X12340000Y-8012500D01*
X12295000Y-8057500D01*
X12340000Y-8102500D01*
X12594000Y-8102500D02*
X12639000Y-8057500D01*
X12594000Y-8012500D01*
X12549000Y-8057500D01*
X12594000Y-8102500D01*
X15413000Y-8102500D02*
X15458000Y-8057500D01*
X15413000Y-8012500D01*
X15368000Y-8057500D01*
X15413000Y-8102500D01*
X15667000Y-8102500D02*
X15712000Y-8057500D01*
X15667000Y-8012500D01*
X15622000Y-8057500D01*
X15667000Y-8102500D01*
X12370000Y-12742500D02*
X12470000Y-12842500D01*
X12470000Y-12742500D02*
X12370000Y-12842500D01*
X12470000Y-12792500D02*
G75*
G02*
X12370000Y-12792500I-50000J0D01*
G01*
X12370000Y-12792500D02*
G75*
G02*
X12470000Y-12792500I50000J0D01*
G01*
X13470000Y-12742500D02*
X13570000Y-12842500D01*
X13570000Y-12742500D02*
X13470000Y-12842500D01*
X13570000Y-12792500D02*
G75*
G02*
X13470000Y-12792500I-50000J0D01*
G01*
X13470000Y-12792500D02*
G75*
G02*
X13570000Y-12792500I50000J0D01*
G01*
D14*
X11130000Y-7120000D02*
X11270000Y-7260000D01*
X11270000Y-7120000D02*
X11130000Y-7260000D01*
X11200000Y-7120000D02*
X11200000Y-7260000D01*
X11130000Y-7190000D02*
X11270000Y-7190000D01*
X11130000Y-12730000D02*
X11270000Y-12870000D01*
X11270000Y-12730000D02*
X11130000Y-12870000D01*
X11200000Y-12730000D02*
X11200000Y-12870000D01*
X11130000Y-12800000D02*
X11270000Y-12800000D01*
X11412843Y-7402843D02*
X11552843Y-7542843D01*
X11552843Y-7402843D02*
X11412843Y-7542843D01*
X11482843Y-7402843D02*
X11482843Y-7542843D01*
X11412843Y-7472843D02*
X11552843Y-7472843D01*
X11412843Y-12447157D02*
X11552843Y-12587157D01*
X11552843Y-12447157D02*
X11412843Y-12587157D01*
X11482843Y-12447157D02*
X11482843Y-12587157D01*
X11412843Y-12517157D02*
X11552843Y-12517157D01*
X16457157Y-7392843D02*
X16597157Y-7532843D01*
X16597157Y-7392843D02*
X16457157Y-7532843D01*
X16527157Y-7392843D02*
X16527157Y-7532843D01*
X16457157Y-7462843D02*
X16597157Y-7462843D01*
X16457157Y-12437157D02*
X16597157Y-12577157D01*
X16597157Y-12437157D02*
X16457157Y-12577157D01*
X16527157Y-12437157D02*
X16527157Y-12577157D01*
X16457157Y-12507157D02*
X16597157Y-12507157D01*
X16740000Y-7110000D02*
X16880000Y-7250000D01*
X16880000Y-7110000D02*
X16740000Y-7250000D01*
X16810000Y-7110000D02*
X16810000Y-7250000D01*
X16740000Y-7180000D02*
X16880000Y-7180000D01*
X16740000Y-12720000D02*
X16880000Y-12860000D01*
X16880000Y-12720000D02*
X16740000Y-12860000D01*
X16810000Y-12720000D02*
X16810000Y-12860000D01*
X16740000Y-12790000D02*
X16880000Y-12790000D01*
D15*
X12625000Y-11697500D02*
X12815000Y-11887500D01*
X12815000Y-11697500D02*
X12625000Y-11887500D01*
X12787176Y-11859676D02*
X12787176Y-11725324D01*
X12652824Y-11725324D01*
X12652824Y-11859676D01*
X12787176Y-11859676D01*
X13125000Y-11697500D02*
X13315000Y-11887500D01*
X13315000Y-11697500D02*
X13125000Y-11887500D01*
X13287176Y-11859676D02*
X13287176Y-11725324D01*
X13152824Y-11725324D01*
X13152824Y-11859676D01*
X13287176Y-11859676D01*
D12*
X11907271Y-9254572D02*
X12107271Y-9454572D01*
X12107271Y-9254572D02*
X11907271Y-9454572D01*
X12007271Y-9454572D02*
X12107271Y-9354572D01*
X12007271Y-9254572D01*
X11907271Y-9354572D01*
X12007271Y-9454572D01*
X11907271Y-10524572D02*
X12107271Y-10724572D01*
X12107271Y-10524572D02*
X11907271Y-10724572D01*
X12007271Y-10724572D02*
X12107271Y-10624572D01*
X12007271Y-10524572D01*
X11907271Y-10624572D01*
X12007271Y-10724572D01*
X15998820Y-9505299D02*
X16198820Y-9705299D01*
X16198820Y-9505299D02*
X15998820Y-9705299D01*
X16098820Y-9705299D02*
X16198820Y-9605299D01*
X16098820Y-9505299D01*
X15998820Y-9605299D01*
X16098820Y-9705299D01*
X15998820Y-10267299D02*
X16198820Y-10467299D01*
X16198820Y-10267299D02*
X15998820Y-10467299D01*
X16098820Y-10467299D02*
X16198820Y-10367299D01*
X16098820Y-10267299D01*
X15998820Y-10367299D01*
X16098820Y-10467299D01*
D16*
X11500000Y-11360786D02*
X11500000Y-11610786D01*
X11375000Y-11485786D02*
X11625000Y-11485786D01*
X11625000Y-11485786D02*
G75*
G02*
X11375000Y-11485786I-125000J0D01*
G01*
X11375000Y-11485786D02*
G75*
G02*
X11625000Y-11485786I125000J0D01*
G01*
X11500000Y-8360786D02*
X11500000Y-8610786D01*
X11375000Y-8485786D02*
X11625000Y-8485786D01*
X11625000Y-8485786D02*
G75*
G02*
X11375000Y-8485786I-125000J0D01*
G01*
X11375000Y-8485786D02*
G75*
G02*
X11625000Y-8485786I125000J0D01*
G01*
X16500000Y-8360786D02*
X16500000Y-8610786D01*
X16375000Y-8485786D02*
X16625000Y-8485786D01*
X16625000Y-8485786D02*
G75*
G02*
X16375000Y-8485786I-125000J0D01*
G01*
X16375000Y-8485786D02*
G75*
G02*
X16625000Y-8485786I125000J0D01*
G01*
X16500000Y-11360786D02*
X16500000Y-11610786D01*
X16375000Y-11485786D02*
X16625000Y-11485786D01*
X16625000Y-11485786D02*
G75*
G02*
X16375000Y-11485786I-125000J0D01*
G01*
X16375000Y-11485786D02*
G75*
G02*
X16625000Y-11485786I125000J0D01*
G01*
D12*
X10591347Y-13966704D02*
X10591347Y-13766704D01*
X10591347Y-13766704D02*
X10638966Y-13766704D01*
X10638966Y-13766704D02*
X10667537Y-13776228D01*
X10667537Y-13776228D02*
X10686585Y-13795275D01*
X10686585Y-13795275D02*
X10696109Y-13814323D01*
X10696109Y-13814323D02*
X10705632Y-13852418D01*
X10705632Y-13852418D02*
X10705632Y-13880990D01*
X10705632Y-13880990D02*
X10696109Y-13919085D01*
X10696109Y-13919085D02*
X10686585Y-13938133D01*
X10686585Y-13938133D02*
X10667537Y-13957180D01*
X10667537Y-13957180D02*
X10638966Y-13966704D01*
X10638966Y-13966704D02*
X10591347Y-13966704D01*
X10791347Y-13966704D02*
X10791347Y-13833371D01*
X10791347Y-13871466D02*
X10800871Y-13852418D01*
X10800871Y-13852418D02*
X10810394Y-13842894D01*
X10810394Y-13842894D02*
X10829442Y-13833371D01*
X10829442Y-13833371D02*
X10848490Y-13833371D01*
X10915156Y-13966704D02*
X10915156Y-13833371D01*
X10915156Y-13766704D02*
X10905632Y-13776228D01*
X10905632Y-13776228D02*
X10915156Y-13785752D01*
X10915156Y-13785752D02*
X10924680Y-13776228D01*
X10924680Y-13776228D02*
X10915156Y-13766704D01*
X10915156Y-13766704D02*
X10915156Y-13785752D01*
X11038966Y-13966704D02*
X11019918Y-13957180D01*
X11019918Y-13957180D02*
X11010394Y-13938133D01*
X11010394Y-13938133D02*
X11010394Y-13766704D01*
X11143728Y-13966704D02*
X11124680Y-13957180D01*
X11124680Y-13957180D02*
X11115156Y-13938133D01*
X11115156Y-13938133D02*
X11115156Y-13766704D01*
X11372299Y-13966704D02*
X11372299Y-13766704D01*
X11372299Y-13766704D02*
X11438966Y-13909561D01*
X11438966Y-13909561D02*
X11505632Y-13766704D01*
X11505632Y-13766704D02*
X11505632Y-13966704D01*
X11686585Y-13966704D02*
X11686585Y-13861942D01*
X11686585Y-13861942D02*
X11677061Y-13842894D01*
X11677061Y-13842894D02*
X11658013Y-13833371D01*
X11658013Y-13833371D02*
X11619918Y-13833371D01*
X11619918Y-13833371D02*
X11600870Y-13842894D01*
X11686585Y-13957180D02*
X11667537Y-13966704D01*
X11667537Y-13966704D02*
X11619918Y-13966704D01*
X11619918Y-13966704D02*
X11600870Y-13957180D01*
X11600870Y-13957180D02*
X11591347Y-13938133D01*
X11591347Y-13938133D02*
X11591347Y-13919085D01*
X11591347Y-13919085D02*
X11600870Y-13900037D01*
X11600870Y-13900037D02*
X11619918Y-13890514D01*
X11619918Y-13890514D02*
X11667537Y-13890514D01*
X11667537Y-13890514D02*
X11686585Y-13880990D01*
X11781823Y-13833371D02*
X11781823Y-14033371D01*
X11781823Y-13842894D02*
X11800870Y-13833371D01*
X11800870Y-13833371D02*
X11838966Y-13833371D01*
X11838966Y-13833371D02*
X11858013Y-13842894D01*
X11858013Y-13842894D02*
X11867537Y-13852418D01*
X11867537Y-13852418D02*
X11877061Y-13871466D01*
X11877061Y-13871466D02*
X11877061Y-13928609D01*
X11877061Y-13928609D02*
X11867537Y-13947656D01*
X11867537Y-13947656D02*
X11858013Y-13957180D01*
X11858013Y-13957180D02*
X11838966Y-13966704D01*
X11838966Y-13966704D02*
X11800870Y-13966704D01*
X11800870Y-13966704D02*
X11781823Y-13957180D01*
X11962775Y-13947656D02*
X11972299Y-13957180D01*
X11972299Y-13957180D02*
X11962775Y-13966704D01*
X11962775Y-13966704D02*
X11953251Y-13957180D01*
X11953251Y-13957180D02*
X11962775Y-13947656D01*
X11962775Y-13947656D02*
X11962775Y-13966704D01*
X11962775Y-13842894D02*
X11972299Y-13852418D01*
X11972299Y-13852418D02*
X11962775Y-13861942D01*
X11962775Y-13861942D02*
X11953251Y-13852418D01*
X11953251Y-13852418D02*
X11962775Y-13842894D01*
X11962775Y-13842894D02*
X11962775Y-13861942D01*
D13*
X10305570Y-14282720D02*
X10330570Y-14307720D01*
X10330570Y-14282720D02*
X10305570Y-14307720D01*
D12*
X10629442Y-14186704D02*
X10648490Y-14186704D01*
X10648490Y-14186704D02*
X10667537Y-14196228D01*
X10667537Y-14196228D02*
X10677061Y-14205752D01*
X10677061Y-14205752D02*
X10686585Y-14224799D01*
X10686585Y-14224799D02*
X10696109Y-14262894D01*
X10696109Y-14262894D02*
X10696109Y-14310514D01*
X10696109Y-14310514D02*
X10686585Y-14348609D01*
X10686585Y-14348609D02*
X10677061Y-14367656D01*
X10677061Y-14367656D02*
X10667537Y-14377180D01*
X10667537Y-14377180D02*
X10648490Y-14386704D01*
X10648490Y-14386704D02*
X10629442Y-14386704D01*
X10629442Y-14386704D02*
X10610394Y-14377180D01*
X10610394Y-14377180D02*
X10600871Y-14367656D01*
X10600871Y-14367656D02*
X10591347Y-14348609D01*
X10591347Y-14348609D02*
X10581823Y-14310514D01*
X10581823Y-14310514D02*
X10581823Y-14262894D01*
X10581823Y-14262894D02*
X10591347Y-14224799D01*
X10591347Y-14224799D02*
X10600871Y-14205752D01*
X10600871Y-14205752D02*
X10610394Y-14196228D01*
X10610394Y-14196228D02*
X10629442Y-14186704D01*
X10781823Y-14367656D02*
X10791347Y-14377180D01*
X10791347Y-14377180D02*
X10781823Y-14386704D01*
X10781823Y-14386704D02*
X10772299Y-14377180D01*
X10772299Y-14377180D02*
X10781823Y-14367656D01*
X10781823Y-14367656D02*
X10781823Y-14386704D01*
X10867537Y-14205752D02*
X10877061Y-14196228D01*
X10877061Y-14196228D02*
X10896109Y-14186704D01*
X10896109Y-14186704D02*
X10943728Y-14186704D01*
X10943728Y-14186704D02*
X10962775Y-14196228D01*
X10962775Y-14196228D02*
X10972299Y-14205752D01*
X10972299Y-14205752D02*
X10981823Y-14224799D01*
X10981823Y-14224799D02*
X10981823Y-14243847D01*
X10981823Y-14243847D02*
X10972299Y-14272418D01*
X10972299Y-14272418D02*
X10858013Y-14386704D01*
X10858013Y-14386704D02*
X10981823Y-14386704D01*
X11162775Y-14186704D02*
X11067537Y-14186704D01*
X11067537Y-14186704D02*
X11058013Y-14281942D01*
X11058013Y-14281942D02*
X11067537Y-14272418D01*
X11067537Y-14272418D02*
X11086585Y-14262894D01*
X11086585Y-14262894D02*
X11134204Y-14262894D01*
X11134204Y-14262894D02*
X11153252Y-14272418D01*
X11153252Y-14272418D02*
X11162775Y-14281942D01*
X11162775Y-14281942D02*
X11172299Y-14300990D01*
X11172299Y-14300990D02*
X11172299Y-14348609D01*
X11172299Y-14348609D02*
X11162775Y-14367656D01*
X11162775Y-14367656D02*
X11153252Y-14377180D01*
X11153252Y-14377180D02*
X11134204Y-14386704D01*
X11134204Y-14386704D02*
X11086585Y-14386704D01*
X11086585Y-14386704D02*
X11067537Y-14377180D01*
X11067537Y-14377180D02*
X11058013Y-14367656D01*
X11296109Y-14186704D02*
X11315156Y-14186704D01*
X11315156Y-14186704D02*
X11334204Y-14196228D01*
X11334204Y-14196228D02*
X11343728Y-14205752D01*
X11343728Y-14205752D02*
X11353251Y-14224799D01*
X11353251Y-14224799D02*
X11362775Y-14262894D01*
X11362775Y-14262894D02*
X11362775Y-14310514D01*
X11362775Y-14310514D02*
X11353251Y-14348609D01*
X11353251Y-14348609D02*
X11343728Y-14367656D01*
X11343728Y-14367656D02*
X11334204Y-14377180D01*
X11334204Y-14377180D02*
X11315156Y-14386704D01*
X11315156Y-14386704D02*
X11296109Y-14386704D01*
X11296109Y-14386704D02*
X11277061Y-14377180D01*
X11277061Y-14377180D02*
X11267537Y-14367656D01*
X11267537Y-14367656D02*
X11258013Y-14348609D01*
X11258013Y-14348609D02*
X11248490Y-14310514D01*
X11248490Y-14310514D02*
X11248490Y-14262894D01*
X11248490Y-14262894D02*
X11258013Y-14224799D01*
X11258013Y-14224799D02*
X11267537Y-14205752D01*
X11267537Y-14205752D02*
X11277061Y-14196228D01*
X11277061Y-14196228D02*
X11296109Y-14186704D01*
X11448490Y-14386704D02*
X11448490Y-14253371D01*
X11448490Y-14272418D02*
X11458013Y-14262894D01*
X11458013Y-14262894D02*
X11477061Y-14253371D01*
X11477061Y-14253371D02*
X11505632Y-14253371D01*
X11505632Y-14253371D02*
X11524680Y-14262894D01*
X11524680Y-14262894D02*
X11534204Y-14281942D01*
X11534204Y-14281942D02*
X11534204Y-14386704D01*
X11534204Y-14281942D02*
X11543728Y-14262894D01*
X11543728Y-14262894D02*
X11562775Y-14253371D01*
X11562775Y-14253371D02*
X11591347Y-14253371D01*
X11591347Y-14253371D02*
X11610394Y-14262894D01*
X11610394Y-14262894D02*
X11619918Y-14281942D01*
X11619918Y-14281942D02*
X11619918Y-14386704D01*
X11715156Y-14386704D02*
X11715156Y-14253371D01*
X11715156Y-14272418D02*
X11724680Y-14262894D01*
X11724680Y-14262894D02*
X11743728Y-14253371D01*
X11743728Y-14253371D02*
X11772299Y-14253371D01*
X11772299Y-14253371D02*
X11791347Y-14262894D01*
X11791347Y-14262894D02*
X11800871Y-14281942D01*
X11800871Y-14281942D02*
X11800871Y-14386704D01*
X11800871Y-14281942D02*
X11810394Y-14262894D01*
X11810394Y-14262894D02*
X11829442Y-14253371D01*
X11829442Y-14253371D02*
X11858013Y-14253371D01*
X11858013Y-14253371D02*
X11877061Y-14262894D01*
X11877061Y-14262894D02*
X11886585Y-14281942D01*
X11886585Y-14281942D02*
X11886585Y-14386704D01*
X12277061Y-14177180D02*
X12105633Y-14434323D01*
X12534204Y-14186704D02*
X12553252Y-14186704D01*
X12553252Y-14186704D02*
X12572299Y-14196228D01*
X12572299Y-14196228D02*
X12581823Y-14205752D01*
X12581823Y-14205752D02*
X12591347Y-14224799D01*
X12591347Y-14224799D02*
X12600871Y-14262894D01*
X12600871Y-14262894D02*
X12600871Y-14310514D01*
X12600871Y-14310514D02*
X12591347Y-14348609D01*
X12591347Y-14348609D02*
X12581823Y-14367656D01*
X12581823Y-14367656D02*
X12572299Y-14377180D01*
X12572299Y-14377180D02*
X12553252Y-14386704D01*
X12553252Y-14386704D02*
X12534204Y-14386704D01*
X12534204Y-14386704D02*
X12515156Y-14377180D01*
X12515156Y-14377180D02*
X12505633Y-14367656D01*
X12505633Y-14367656D02*
X12496109Y-14348609D01*
X12496109Y-14348609D02*
X12486585Y-14310514D01*
X12486585Y-14310514D02*
X12486585Y-14262894D01*
X12486585Y-14262894D02*
X12496109Y-14224799D01*
X12496109Y-14224799D02*
X12505633Y-14205752D01*
X12505633Y-14205752D02*
X12515156Y-14196228D01*
X12515156Y-14196228D02*
X12534204Y-14186704D01*
X12686585Y-14367656D02*
X12696109Y-14377180D01*
X12696109Y-14377180D02*
X12686585Y-14386704D01*
X12686585Y-14386704D02*
X12677061Y-14377180D01*
X12677061Y-14377180D02*
X12686585Y-14367656D01*
X12686585Y-14367656D02*
X12686585Y-14386704D01*
X12819918Y-14186704D02*
X12838966Y-14186704D01*
X12838966Y-14186704D02*
X12858014Y-14196228D01*
X12858014Y-14196228D02*
X12867537Y-14205752D01*
X12867537Y-14205752D02*
X12877061Y-14224799D01*
X12877061Y-14224799D02*
X12886585Y-14262894D01*
X12886585Y-14262894D02*
X12886585Y-14310514D01*
X12886585Y-14310514D02*
X12877061Y-14348609D01*
X12877061Y-14348609D02*
X12867537Y-14367656D01*
X12867537Y-14367656D02*
X12858014Y-14377180D01*
X12858014Y-14377180D02*
X12838966Y-14386704D01*
X12838966Y-14386704D02*
X12819918Y-14386704D01*
X12819918Y-14386704D02*
X12800871Y-14377180D01*
X12800871Y-14377180D02*
X12791347Y-14367656D01*
X12791347Y-14367656D02*
X12781823Y-14348609D01*
X12781823Y-14348609D02*
X12772299Y-14310514D01*
X12772299Y-14310514D02*
X12772299Y-14262894D01*
X12772299Y-14262894D02*
X12781823Y-14224799D01*
X12781823Y-14224799D02*
X12791347Y-14205752D01*
X12791347Y-14205752D02*
X12800871Y-14196228D01*
X12800871Y-14196228D02*
X12819918Y-14186704D01*
X13010394Y-14186704D02*
X13029442Y-14186704D01*
X13029442Y-14186704D02*
X13048490Y-14196228D01*
X13048490Y-14196228D02*
X13058014Y-14205752D01*
X13058014Y-14205752D02*
X13067537Y-14224799D01*
X13067537Y-14224799D02*
X13077061Y-14262894D01*
X13077061Y-14262894D02*
X13077061Y-14310514D01*
X13077061Y-14310514D02*
X13067537Y-14348609D01*
X13067537Y-14348609D02*
X13058014Y-14367656D01*
X13058014Y-14367656D02*
X13048490Y-14377180D01*
X13048490Y-14377180D02*
X13029442Y-14386704D01*
X13029442Y-14386704D02*
X13010394Y-14386704D01*
X13010394Y-14386704D02*
X12991347Y-14377180D01*
X12991347Y-14377180D02*
X12981823Y-14367656D01*
X12981823Y-14367656D02*
X12972299Y-14348609D01*
X12972299Y-14348609D02*
X12962775Y-14310514D01*
X12962775Y-14310514D02*
X12962775Y-14262894D01*
X12962775Y-14262894D02*
X12972299Y-14224799D01*
X12972299Y-14224799D02*
X12981823Y-14205752D01*
X12981823Y-14205752D02*
X12991347Y-14196228D01*
X12991347Y-14196228D02*
X13010394Y-14186704D01*
X13172299Y-14386704D02*
X13210394Y-14386704D01*
X13210394Y-14386704D02*
X13229442Y-14377180D01*
X13229442Y-14377180D02*
X13238966Y-14367656D01*
X13238966Y-14367656D02*
X13258014Y-14339085D01*
X13258014Y-14339085D02*
X13267537Y-14300990D01*
X13267537Y-14300990D02*
X13267537Y-14224799D01*
X13267537Y-14224799D02*
X13258014Y-14205752D01*
X13258014Y-14205752D02*
X13248490Y-14196228D01*
X13248490Y-14196228D02*
X13229442Y-14186704D01*
X13229442Y-14186704D02*
X13191347Y-14186704D01*
X13191347Y-14186704D02*
X13172299Y-14196228D01*
X13172299Y-14196228D02*
X13162775Y-14205752D01*
X13162775Y-14205752D02*
X13153252Y-14224799D01*
X13153252Y-14224799D02*
X13153252Y-14272418D01*
X13153252Y-14272418D02*
X13162775Y-14291466D01*
X13162775Y-14291466D02*
X13172299Y-14300990D01*
X13172299Y-14300990D02*
X13191347Y-14310514D01*
X13191347Y-14310514D02*
X13229442Y-14310514D01*
X13229442Y-14310514D02*
X13248490Y-14300990D01*
X13248490Y-14300990D02*
X13258014Y-14291466D01*
X13258014Y-14291466D02*
X13267537Y-14272418D01*
X13381823Y-14272418D02*
X13362775Y-14262894D01*
X13362775Y-14262894D02*
X13353252Y-14253371D01*
X13353252Y-14253371D02*
X13343728Y-14234323D01*
X13343728Y-14234323D02*
X13343728Y-14224799D01*
X13343728Y-14224799D02*
X13353252Y-14205752D01*
X13353252Y-14205752D02*
X13362775Y-14196228D01*
X13362775Y-14196228D02*
X13381823Y-14186704D01*
X13381823Y-14186704D02*
X13419918Y-14186704D01*
X13419918Y-14186704D02*
X13438966Y-14196228D01*
X13438966Y-14196228D02*
X13448490Y-14205752D01*
X13448490Y-14205752D02*
X13458014Y-14224799D01*
X13458014Y-14224799D02*
X13458014Y-14234323D01*
X13458014Y-14234323D02*
X13448490Y-14253371D01*
X13448490Y-14253371D02*
X13438966Y-14262894D01*
X13438966Y-14262894D02*
X13419918Y-14272418D01*
X13419918Y-14272418D02*
X13381823Y-14272418D01*
X13381823Y-14272418D02*
X13362775Y-14281942D01*
X13362775Y-14281942D02*
X13353252Y-14291466D01*
X13353252Y-14291466D02*
X13343728Y-14310514D01*
X13343728Y-14310514D02*
X13343728Y-14348609D01*
X13343728Y-14348609D02*
X13353252Y-14367656D01*
X13353252Y-14367656D02*
X13362775Y-14377180D01*
X13362775Y-14377180D02*
X13381823Y-14386704D01*
X13381823Y-14386704D02*
X13419918Y-14386704D01*
X13419918Y-14386704D02*
X13438966Y-14377180D01*
X13438966Y-14377180D02*
X13448490Y-14367656D01*
X13448490Y-14367656D02*
X13458014Y-14348609D01*
X13458014Y-14348609D02*
X13458014Y-14310514D01*
X13458014Y-14310514D02*
X13448490Y-14291466D01*
X13448490Y-14291466D02*
X13438966Y-14281942D01*
X13438966Y-14281942D02*
X13419918Y-14272418D01*
X13534204Y-14186704D02*
X13534204Y-14224799D01*
X13610395Y-14186704D02*
X13610395Y-14224799D01*
X13905633Y-14462894D02*
X13896109Y-14453371D01*
X13896109Y-14453371D02*
X13877061Y-14424799D01*
X13877061Y-14424799D02*
X13867537Y-14405752D01*
X13867537Y-14405752D02*
X13858014Y-14377180D01*
X13858014Y-14377180D02*
X13848490Y-14329561D01*
X13848490Y-14329561D02*
X13848490Y-14291466D01*
X13848490Y-14291466D02*
X13858014Y-14243847D01*
X13858014Y-14243847D02*
X13867537Y-14215275D01*
X13867537Y-14215275D02*
X13877061Y-14196228D01*
X13877061Y-14196228D02*
X13896109Y-14167656D01*
X13896109Y-14167656D02*
X13905633Y-14158133D01*
X14086585Y-14386704D02*
X13972299Y-14386704D01*
X14029442Y-14386704D02*
X14029442Y-14186704D01*
X14029442Y-14186704D02*
X14010395Y-14215275D01*
X14010395Y-14215275D02*
X13991347Y-14234323D01*
X13991347Y-14234323D02*
X13972299Y-14243847D01*
X14210395Y-14186704D02*
X14229442Y-14186704D01*
X14229442Y-14186704D02*
X14248490Y-14196228D01*
X14248490Y-14196228D02*
X14258014Y-14205752D01*
X14258014Y-14205752D02*
X14267537Y-14224799D01*
X14267537Y-14224799D02*
X14277061Y-14262894D01*
X14277061Y-14262894D02*
X14277061Y-14310514D01*
X14277061Y-14310514D02*
X14267537Y-14348609D01*
X14267537Y-14348609D02*
X14258014Y-14367656D01*
X14258014Y-14367656D02*
X14248490Y-14377180D01*
X14248490Y-14377180D02*
X14229442Y-14386704D01*
X14229442Y-14386704D02*
X14210395Y-14386704D01*
X14210395Y-14386704D02*
X14191347Y-14377180D01*
X14191347Y-14377180D02*
X14181823Y-14367656D01*
X14181823Y-14367656D02*
X14172299Y-14348609D01*
X14172299Y-14348609D02*
X14162776Y-14310514D01*
X14162776Y-14310514D02*
X14162776Y-14262894D01*
X14162776Y-14262894D02*
X14172299Y-14224799D01*
X14172299Y-14224799D02*
X14181823Y-14205752D01*
X14181823Y-14205752D02*
X14191347Y-14196228D01*
X14191347Y-14196228D02*
X14210395Y-14186704D01*
X14515157Y-14386704D02*
X14515157Y-14186704D01*
X14600871Y-14386704D02*
X14600871Y-14281942D01*
X14600871Y-14281942D02*
X14591347Y-14262894D01*
X14591347Y-14262894D02*
X14572299Y-14253371D01*
X14572299Y-14253371D02*
X14543728Y-14253371D01*
X14543728Y-14253371D02*
X14524680Y-14262894D01*
X14524680Y-14262894D02*
X14515157Y-14272418D01*
X14724680Y-14386704D02*
X14705633Y-14377180D01*
X14705633Y-14377180D02*
X14696109Y-14367656D01*
X14696109Y-14367656D02*
X14686585Y-14348609D01*
X14686585Y-14348609D02*
X14686585Y-14291466D01*
X14686585Y-14291466D02*
X14696109Y-14272418D01*
X14696109Y-14272418D02*
X14705633Y-14262894D01*
X14705633Y-14262894D02*
X14724680Y-14253371D01*
X14724680Y-14253371D02*
X14753252Y-14253371D01*
X14753252Y-14253371D02*
X14772299Y-14262894D01*
X14772299Y-14262894D02*
X14781823Y-14272418D01*
X14781823Y-14272418D02*
X14791347Y-14291466D01*
X14791347Y-14291466D02*
X14791347Y-14348609D01*
X14791347Y-14348609D02*
X14781823Y-14367656D01*
X14781823Y-14367656D02*
X14772299Y-14377180D01*
X14772299Y-14377180D02*
X14753252Y-14386704D01*
X14753252Y-14386704D02*
X14724680Y-14386704D01*
X14905633Y-14386704D02*
X14886585Y-14377180D01*
X14886585Y-14377180D02*
X14877061Y-14358133D01*
X14877061Y-14358133D02*
X14877061Y-14186704D01*
X15058014Y-14377180D02*
X15038966Y-14386704D01*
X15038966Y-14386704D02*
X15000871Y-14386704D01*
X15000871Y-14386704D02*
X14981823Y-14377180D01*
X14981823Y-14377180D02*
X14972299Y-14358133D01*
X14972299Y-14358133D02*
X14972299Y-14281942D01*
X14972299Y-14281942D02*
X14981823Y-14262894D01*
X14981823Y-14262894D02*
X15000871Y-14253371D01*
X15000871Y-14253371D02*
X15038966Y-14253371D01*
X15038966Y-14253371D02*
X15058014Y-14262894D01*
X15058014Y-14262894D02*
X15067538Y-14281942D01*
X15067538Y-14281942D02*
X15067538Y-14300990D01*
X15067538Y-14300990D02*
X14972299Y-14320037D01*
X15143728Y-14377180D02*
X15162776Y-14386704D01*
X15162776Y-14386704D02*
X15200871Y-14386704D01*
X15200871Y-14386704D02*
X15219919Y-14377180D01*
X15219919Y-14377180D02*
X15229442Y-14358133D01*
X15229442Y-14358133D02*
X15229442Y-14348609D01*
X15229442Y-14348609D02*
X15219919Y-14329561D01*
X15219919Y-14329561D02*
X15200871Y-14320037D01*
X15200871Y-14320037D02*
X15172299Y-14320037D01*
X15172299Y-14320037D02*
X15153252Y-14310514D01*
X15153252Y-14310514D02*
X15143728Y-14291466D01*
X15143728Y-14291466D02*
X15143728Y-14281942D01*
X15143728Y-14281942D02*
X15153252Y-14262894D01*
X15153252Y-14262894D02*
X15172299Y-14253371D01*
X15172299Y-14253371D02*
X15200871Y-14253371D01*
X15200871Y-14253371D02*
X15219919Y-14262894D01*
X15296109Y-14462894D02*
X15305633Y-14453371D01*
X15305633Y-14453371D02*
X15324680Y-14424799D01*
X15324680Y-14424799D02*
X15334204Y-14405752D01*
X15334204Y-14405752D02*
X15343728Y-14377180D01*
X15343728Y-14377180D02*
X15353252Y-14329561D01*
X15353252Y-14329561D02*
X15353252Y-14291466D01*
X15353252Y-14291466D02*
X15343728Y-14243847D01*
X15343728Y-14243847D02*
X15334204Y-14215275D01*
X15334204Y-14215275D02*
X15324680Y-14196228D01*
X15324680Y-14196228D02*
X15305633Y-14167656D01*
X15305633Y-14167656D02*
X15296109Y-14158133D01*
D13*
X10330570Y-14559220D02*
G75*
G02*
X10300570Y-14559220I-15000J0D01*
G01*
X10300570Y-14559220D02*
G75*
G02*
X10330570Y-14559220I15000J0D01*
G01*
D12*
X10629442Y-14450704D02*
X10648490Y-14450704D01*
X10648490Y-14450704D02*
X10667537Y-14460228D01*
X10667537Y-14460228D02*
X10677061Y-14469752D01*
X10677061Y-14469752D02*
X10686585Y-14488799D01*
X10686585Y-14488799D02*
X10696109Y-14526894D01*
X10696109Y-14526894D02*
X10696109Y-14574514D01*
X10696109Y-14574514D02*
X10686585Y-14612609D01*
X10686585Y-14612609D02*
X10677061Y-14631656D01*
X10677061Y-14631656D02*
X10667537Y-14641180D01*
X10667537Y-14641180D02*
X10648490Y-14650704D01*
X10648490Y-14650704D02*
X10629442Y-14650704D01*
X10629442Y-14650704D02*
X10610394Y-14641180D01*
X10610394Y-14641180D02*
X10600871Y-14631656D01*
X10600871Y-14631656D02*
X10591347Y-14612609D01*
X10591347Y-14612609D02*
X10581823Y-14574514D01*
X10581823Y-14574514D02*
X10581823Y-14526894D01*
X10581823Y-14526894D02*
X10591347Y-14488799D01*
X10591347Y-14488799D02*
X10600871Y-14469752D01*
X10600871Y-14469752D02*
X10610394Y-14460228D01*
X10610394Y-14460228D02*
X10629442Y-14450704D01*
X10781823Y-14631656D02*
X10791347Y-14641180D01*
X10791347Y-14641180D02*
X10781823Y-14650704D01*
X10781823Y-14650704D02*
X10772299Y-14641180D01*
X10772299Y-14641180D02*
X10781823Y-14631656D01*
X10781823Y-14631656D02*
X10781823Y-14650704D01*
X10858013Y-14450704D02*
X10981823Y-14450704D01*
X10981823Y-14450704D02*
X10915156Y-14526894D01*
X10915156Y-14526894D02*
X10943728Y-14526894D01*
X10943728Y-14526894D02*
X10962775Y-14536418D01*
X10962775Y-14536418D02*
X10972299Y-14545942D01*
X10972299Y-14545942D02*
X10981823Y-14564990D01*
X10981823Y-14564990D02*
X10981823Y-14612609D01*
X10981823Y-14612609D02*
X10972299Y-14631656D01*
X10972299Y-14631656D02*
X10962775Y-14641180D01*
X10962775Y-14641180D02*
X10943728Y-14650704D01*
X10943728Y-14650704D02*
X10886585Y-14650704D01*
X10886585Y-14650704D02*
X10867537Y-14641180D01*
X10867537Y-14641180D02*
X10858013Y-14631656D01*
X11105632Y-14450704D02*
X11124680Y-14450704D01*
X11124680Y-14450704D02*
X11143728Y-14460228D01*
X11143728Y-14460228D02*
X11153252Y-14469752D01*
X11153252Y-14469752D02*
X11162775Y-14488799D01*
X11162775Y-14488799D02*
X11172299Y-14526894D01*
X11172299Y-14526894D02*
X11172299Y-14574514D01*
X11172299Y-14574514D02*
X11162775Y-14612609D01*
X11162775Y-14612609D02*
X11153252Y-14631656D01*
X11153252Y-14631656D02*
X11143728Y-14641180D01*
X11143728Y-14641180D02*
X11124680Y-14650704D01*
X11124680Y-14650704D02*
X11105632Y-14650704D01*
X11105632Y-14650704D02*
X11086585Y-14641180D01*
X11086585Y-14641180D02*
X11077061Y-14631656D01*
X11077061Y-14631656D02*
X11067537Y-14612609D01*
X11067537Y-14612609D02*
X11058013Y-14574514D01*
X11058013Y-14574514D02*
X11058013Y-14526894D01*
X11058013Y-14526894D02*
X11067537Y-14488799D01*
X11067537Y-14488799D02*
X11077061Y-14469752D01*
X11077061Y-14469752D02*
X11086585Y-14460228D01*
X11086585Y-14460228D02*
X11105632Y-14450704D01*
X11296109Y-14450704D02*
X11315156Y-14450704D01*
X11315156Y-14450704D02*
X11334204Y-14460228D01*
X11334204Y-14460228D02*
X11343728Y-14469752D01*
X11343728Y-14469752D02*
X11353251Y-14488799D01*
X11353251Y-14488799D02*
X11362775Y-14526894D01*
X11362775Y-14526894D02*
X11362775Y-14574514D01*
X11362775Y-14574514D02*
X11353251Y-14612609D01*
X11353251Y-14612609D02*
X11343728Y-14631656D01*
X11343728Y-14631656D02*
X11334204Y-14641180D01*
X11334204Y-14641180D02*
X11315156Y-14650704D01*
X11315156Y-14650704D02*
X11296109Y-14650704D01*
X11296109Y-14650704D02*
X11277061Y-14641180D01*
X11277061Y-14641180D02*
X11267537Y-14631656D01*
X11267537Y-14631656D02*
X11258013Y-14612609D01*
X11258013Y-14612609D02*
X11248490Y-14574514D01*
X11248490Y-14574514D02*
X11248490Y-14526894D01*
X11248490Y-14526894D02*
X11258013Y-14488799D01*
X11258013Y-14488799D02*
X11267537Y-14469752D01*
X11267537Y-14469752D02*
X11277061Y-14460228D01*
X11277061Y-14460228D02*
X11296109Y-14450704D01*
X11448490Y-14650704D02*
X11448490Y-14517371D01*
X11448490Y-14536418D02*
X11458013Y-14526894D01*
X11458013Y-14526894D02*
X11477061Y-14517371D01*
X11477061Y-14517371D02*
X11505632Y-14517371D01*
X11505632Y-14517371D02*
X11524680Y-14526894D01*
X11524680Y-14526894D02*
X11534204Y-14545942D01*
X11534204Y-14545942D02*
X11534204Y-14650704D01*
X11534204Y-14545942D02*
X11543728Y-14526894D01*
X11543728Y-14526894D02*
X11562775Y-14517371D01*
X11562775Y-14517371D02*
X11591347Y-14517371D01*
X11591347Y-14517371D02*
X11610394Y-14526894D01*
X11610394Y-14526894D02*
X11619918Y-14545942D01*
X11619918Y-14545942D02*
X11619918Y-14650704D01*
X11715156Y-14650704D02*
X11715156Y-14517371D01*
X11715156Y-14536418D02*
X11724680Y-14526894D01*
X11724680Y-14526894D02*
X11743728Y-14517371D01*
X11743728Y-14517371D02*
X11772299Y-14517371D01*
X11772299Y-14517371D02*
X11791347Y-14526894D01*
X11791347Y-14526894D02*
X11800871Y-14545942D01*
X11800871Y-14545942D02*
X11800871Y-14650704D01*
X11800871Y-14545942D02*
X11810394Y-14526894D01*
X11810394Y-14526894D02*
X11829442Y-14517371D01*
X11829442Y-14517371D02*
X11858013Y-14517371D01*
X11858013Y-14517371D02*
X11877061Y-14526894D01*
X11877061Y-14526894D02*
X11886585Y-14545942D01*
X11886585Y-14545942D02*
X11886585Y-14650704D01*
X12277061Y-14441180D02*
X12105633Y-14698323D01*
X12534204Y-14450704D02*
X12553252Y-14450704D01*
X12553252Y-14450704D02*
X12572299Y-14460228D01*
X12572299Y-14460228D02*
X12581823Y-14469752D01*
X12581823Y-14469752D02*
X12591347Y-14488799D01*
X12591347Y-14488799D02*
X12600871Y-14526894D01*
X12600871Y-14526894D02*
X12600871Y-14574514D01*
X12600871Y-14574514D02*
X12591347Y-14612609D01*
X12591347Y-14612609D02*
X12581823Y-14631656D01*
X12581823Y-14631656D02*
X12572299Y-14641180D01*
X12572299Y-14641180D02*
X12553252Y-14650704D01*
X12553252Y-14650704D02*
X12534204Y-14650704D01*
X12534204Y-14650704D02*
X12515156Y-14641180D01*
X12515156Y-14641180D02*
X12505633Y-14631656D01*
X12505633Y-14631656D02*
X12496109Y-14612609D01*
X12496109Y-14612609D02*
X12486585Y-14574514D01*
X12486585Y-14574514D02*
X12486585Y-14526894D01*
X12486585Y-14526894D02*
X12496109Y-14488799D01*
X12496109Y-14488799D02*
X12505633Y-14469752D01*
X12505633Y-14469752D02*
X12515156Y-14460228D01*
X12515156Y-14460228D02*
X12534204Y-14450704D01*
X12686585Y-14631656D02*
X12696109Y-14641180D01*
X12696109Y-14641180D02*
X12686585Y-14650704D01*
X12686585Y-14650704D02*
X12677061Y-14641180D01*
X12677061Y-14641180D02*
X12686585Y-14631656D01*
X12686585Y-14631656D02*
X12686585Y-14650704D01*
X12819918Y-14450704D02*
X12838966Y-14450704D01*
X12838966Y-14450704D02*
X12858014Y-14460228D01*
X12858014Y-14460228D02*
X12867537Y-14469752D01*
X12867537Y-14469752D02*
X12877061Y-14488799D01*
X12877061Y-14488799D02*
X12886585Y-14526894D01*
X12886585Y-14526894D02*
X12886585Y-14574514D01*
X12886585Y-14574514D02*
X12877061Y-14612609D01*
X12877061Y-14612609D02*
X12867537Y-14631656D01*
X12867537Y-14631656D02*
X12858014Y-14641180D01*
X12858014Y-14641180D02*
X12838966Y-14650704D01*
X12838966Y-14650704D02*
X12819918Y-14650704D01*
X12819918Y-14650704D02*
X12800871Y-14641180D01*
X12800871Y-14641180D02*
X12791347Y-14631656D01*
X12791347Y-14631656D02*
X12781823Y-14612609D01*
X12781823Y-14612609D02*
X12772299Y-14574514D01*
X12772299Y-14574514D02*
X12772299Y-14526894D01*
X12772299Y-14526894D02*
X12781823Y-14488799D01*
X12781823Y-14488799D02*
X12791347Y-14469752D01*
X12791347Y-14469752D02*
X12800871Y-14460228D01*
X12800871Y-14460228D02*
X12819918Y-14450704D01*
X13077061Y-14650704D02*
X12962775Y-14650704D01*
X13019918Y-14650704D02*
X13019918Y-14450704D01*
X13019918Y-14450704D02*
X13000871Y-14479275D01*
X13000871Y-14479275D02*
X12981823Y-14498323D01*
X12981823Y-14498323D02*
X12962775Y-14507847D01*
X13267537Y-14650704D02*
X13153252Y-14650704D01*
X13210394Y-14650704D02*
X13210394Y-14450704D01*
X13210394Y-14450704D02*
X13191347Y-14479275D01*
X13191347Y-14479275D02*
X13172299Y-14498323D01*
X13172299Y-14498323D02*
X13153252Y-14507847D01*
X13381823Y-14536418D02*
X13362775Y-14526894D01*
X13362775Y-14526894D02*
X13353252Y-14517371D01*
X13353252Y-14517371D02*
X13343728Y-14498323D01*
X13343728Y-14498323D02*
X13343728Y-14488799D01*
X13343728Y-14488799D02*
X13353252Y-14469752D01*
X13353252Y-14469752D02*
X13362775Y-14460228D01*
X13362775Y-14460228D02*
X13381823Y-14450704D01*
X13381823Y-14450704D02*
X13419918Y-14450704D01*
X13419918Y-14450704D02*
X13438966Y-14460228D01*
X13438966Y-14460228D02*
X13448490Y-14469752D01*
X13448490Y-14469752D02*
X13458014Y-14488799D01*
X13458014Y-14488799D02*
X13458014Y-14498323D01*
X13458014Y-14498323D02*
X13448490Y-14517371D01*
X13448490Y-14517371D02*
X13438966Y-14526894D01*
X13438966Y-14526894D02*
X13419918Y-14536418D01*
X13419918Y-14536418D02*
X13381823Y-14536418D01*
X13381823Y-14536418D02*
X13362775Y-14545942D01*
X13362775Y-14545942D02*
X13353252Y-14555466D01*
X13353252Y-14555466D02*
X13343728Y-14574514D01*
X13343728Y-14574514D02*
X13343728Y-14612609D01*
X13343728Y-14612609D02*
X13353252Y-14631656D01*
X13353252Y-14631656D02*
X13362775Y-14641180D01*
X13362775Y-14641180D02*
X13381823Y-14650704D01*
X13381823Y-14650704D02*
X13419918Y-14650704D01*
X13419918Y-14650704D02*
X13438966Y-14641180D01*
X13438966Y-14641180D02*
X13448490Y-14631656D01*
X13448490Y-14631656D02*
X13458014Y-14612609D01*
X13458014Y-14612609D02*
X13458014Y-14574514D01*
X13458014Y-14574514D02*
X13448490Y-14555466D01*
X13448490Y-14555466D02*
X13438966Y-14545942D01*
X13438966Y-14545942D02*
X13419918Y-14536418D01*
X13534204Y-14450704D02*
X13534204Y-14488799D01*
X13610395Y-14450704D02*
X13610395Y-14488799D01*
X13905633Y-14726894D02*
X13896109Y-14717371D01*
X13896109Y-14717371D02*
X13877061Y-14688799D01*
X13877061Y-14688799D02*
X13867537Y-14669752D01*
X13867537Y-14669752D02*
X13858014Y-14641180D01*
X13858014Y-14641180D02*
X13848490Y-14593561D01*
X13848490Y-14593561D02*
X13848490Y-14555466D01*
X13848490Y-14555466D02*
X13858014Y-14507847D01*
X13858014Y-14507847D02*
X13867537Y-14479275D01*
X13867537Y-14479275D02*
X13877061Y-14460228D01*
X13877061Y-14460228D02*
X13896109Y-14431656D01*
X13896109Y-14431656D02*
X13905633Y-14422133D01*
X13972299Y-14469752D02*
X13981823Y-14460228D01*
X13981823Y-14460228D02*
X14000871Y-14450704D01*
X14000871Y-14450704D02*
X14048490Y-14450704D01*
X14048490Y-14450704D02*
X14067537Y-14460228D01*
X14067537Y-14460228D02*
X14077061Y-14469752D01*
X14077061Y-14469752D02*
X14086585Y-14488799D01*
X14086585Y-14488799D02*
X14086585Y-14507847D01*
X14086585Y-14507847D02*
X14077061Y-14536418D01*
X14077061Y-14536418D02*
X13962776Y-14650704D01*
X13962776Y-14650704D02*
X14086585Y-14650704D01*
X14258014Y-14517371D02*
X14258014Y-14650704D01*
X14210395Y-14441180D02*
X14162776Y-14584037D01*
X14162776Y-14584037D02*
X14286585Y-14584037D01*
X14343728Y-14450704D02*
X14477061Y-14450704D01*
X14477061Y-14450704D02*
X14391347Y-14650704D01*
X14705633Y-14650704D02*
X14705633Y-14450704D01*
X14791347Y-14650704D02*
X14791347Y-14545942D01*
X14791347Y-14545942D02*
X14781823Y-14526894D01*
X14781823Y-14526894D02*
X14762776Y-14517371D01*
X14762776Y-14517371D02*
X14734204Y-14517371D01*
X14734204Y-14517371D02*
X14715157Y-14526894D01*
X14715157Y-14526894D02*
X14705633Y-14536418D01*
X14915157Y-14650704D02*
X14896109Y-14641180D01*
X14896109Y-14641180D02*
X14886585Y-14631656D01*
X14886585Y-14631656D02*
X14877061Y-14612609D01*
X14877061Y-14612609D02*
X14877061Y-14555466D01*
X14877061Y-14555466D02*
X14886585Y-14536418D01*
X14886585Y-14536418D02*
X14896109Y-14526894D01*
X14896109Y-14526894D02*
X14915157Y-14517371D01*
X14915157Y-14517371D02*
X14943728Y-14517371D01*
X14943728Y-14517371D02*
X14962776Y-14526894D01*
X14962776Y-14526894D02*
X14972299Y-14536418D01*
X14972299Y-14536418D02*
X14981823Y-14555466D01*
X14981823Y-14555466D02*
X14981823Y-14612609D01*
X14981823Y-14612609D02*
X14972299Y-14631656D01*
X14972299Y-14631656D02*
X14962776Y-14641180D01*
X14962776Y-14641180D02*
X14943728Y-14650704D01*
X14943728Y-14650704D02*
X14915157Y-14650704D01*
X15096109Y-14650704D02*
X15077061Y-14641180D01*
X15077061Y-14641180D02*
X15067538Y-14622133D01*
X15067538Y-14622133D02*
X15067538Y-14450704D01*
X15248490Y-14641180D02*
X15229442Y-14650704D01*
X15229442Y-14650704D02*
X15191347Y-14650704D01*
X15191347Y-14650704D02*
X15172299Y-14641180D01*
X15172299Y-14641180D02*
X15162776Y-14622133D01*
X15162776Y-14622133D02*
X15162776Y-14545942D01*
X15162776Y-14545942D02*
X15172299Y-14526894D01*
X15172299Y-14526894D02*
X15191347Y-14517371D01*
X15191347Y-14517371D02*
X15229442Y-14517371D01*
X15229442Y-14517371D02*
X15248490Y-14526894D01*
X15248490Y-14526894D02*
X15258014Y-14545942D01*
X15258014Y-14545942D02*
X15258014Y-14564990D01*
X15258014Y-14564990D02*
X15162776Y-14584037D01*
X15334204Y-14641180D02*
X15353252Y-14650704D01*
X15353252Y-14650704D02*
X15391347Y-14650704D01*
X15391347Y-14650704D02*
X15410395Y-14641180D01*
X15410395Y-14641180D02*
X15419919Y-14622133D01*
X15419919Y-14622133D02*
X15419919Y-14612609D01*
X15419919Y-14612609D02*
X15410395Y-14593561D01*
X15410395Y-14593561D02*
X15391347Y-14584037D01*
X15391347Y-14584037D02*
X15362776Y-14584037D01*
X15362776Y-14584037D02*
X15343728Y-14574514D01*
X15343728Y-14574514D02*
X15334204Y-14555466D01*
X15334204Y-14555466D02*
X15334204Y-14545942D01*
X15334204Y-14545942D02*
X15343728Y-14526894D01*
X15343728Y-14526894D02*
X15362776Y-14517371D01*
X15362776Y-14517371D02*
X15391347Y-14517371D01*
X15391347Y-14517371D02*
X15410395Y-14526894D01*
X15486585Y-14726894D02*
X15496109Y-14717371D01*
X15496109Y-14717371D02*
X15515157Y-14688799D01*
X15515157Y-14688799D02*
X15524680Y-14669752D01*
X15524680Y-14669752D02*
X15534204Y-14641180D01*
X15534204Y-14641180D02*
X15543728Y-14593561D01*
X15543728Y-14593561D02*
X15543728Y-14555466D01*
X15543728Y-14555466D02*
X15534204Y-14507847D01*
X15534204Y-14507847D02*
X15524680Y-14479275D01*
X15524680Y-14479275D02*
X15515157Y-14460228D01*
X15515157Y-14460228D02*
X15496109Y-14431656D01*
X15496109Y-14431656D02*
X15486585Y-14422133D01*
D13*
X10300570Y-14793220D02*
X10300570Y-14853220D01*
X10270570Y-14823220D02*
X10330570Y-14823220D01*
D12*
X10629442Y-14714704D02*
X10648490Y-14714704D01*
X10648490Y-14714704D02*
X10667537Y-14724228D01*
X10667537Y-14724228D02*
X10677061Y-14733752D01*
X10677061Y-14733752D02*
X10686585Y-14752799D01*
X10686585Y-14752799D02*
X10696109Y-14790894D01*
X10696109Y-14790894D02*
X10696109Y-14838514D01*
X10696109Y-14838514D02*
X10686585Y-14876609D01*
X10686585Y-14876609D02*
X10677061Y-14895656D01*
X10677061Y-14895656D02*
X10667537Y-14905180D01*
X10667537Y-14905180D02*
X10648490Y-14914704D01*
X10648490Y-14914704D02*
X10629442Y-14914704D01*
X10629442Y-14914704D02*
X10610394Y-14905180D01*
X10610394Y-14905180D02*
X10600871Y-14895656D01*
X10600871Y-14895656D02*
X10591347Y-14876609D01*
X10591347Y-14876609D02*
X10581823Y-14838514D01*
X10581823Y-14838514D02*
X10581823Y-14790894D01*
X10581823Y-14790894D02*
X10591347Y-14752799D01*
X10591347Y-14752799D02*
X10600871Y-14733752D01*
X10600871Y-14733752D02*
X10610394Y-14724228D01*
X10610394Y-14724228D02*
X10629442Y-14714704D01*
X10781823Y-14895656D02*
X10791347Y-14905180D01*
X10791347Y-14905180D02*
X10781823Y-14914704D01*
X10781823Y-14914704D02*
X10772299Y-14905180D01*
X10772299Y-14905180D02*
X10781823Y-14895656D01*
X10781823Y-14895656D02*
X10781823Y-14914704D01*
X10962775Y-14714704D02*
X10924680Y-14714704D01*
X10924680Y-14714704D02*
X10905632Y-14724228D01*
X10905632Y-14724228D02*
X10896109Y-14733752D01*
X10896109Y-14733752D02*
X10877061Y-14762323D01*
X10877061Y-14762323D02*
X10867537Y-14800418D01*
X10867537Y-14800418D02*
X10867537Y-14876609D01*
X10867537Y-14876609D02*
X10877061Y-14895656D01*
X10877061Y-14895656D02*
X10886585Y-14905180D01*
X10886585Y-14905180D02*
X10905632Y-14914704D01*
X10905632Y-14914704D02*
X10943728Y-14914704D01*
X10943728Y-14914704D02*
X10962775Y-14905180D01*
X10962775Y-14905180D02*
X10972299Y-14895656D01*
X10972299Y-14895656D02*
X10981823Y-14876609D01*
X10981823Y-14876609D02*
X10981823Y-14828990D01*
X10981823Y-14828990D02*
X10972299Y-14809942D01*
X10972299Y-14809942D02*
X10962775Y-14800418D01*
X10962775Y-14800418D02*
X10943728Y-14790894D01*
X10943728Y-14790894D02*
X10905632Y-14790894D01*
X10905632Y-14790894D02*
X10886585Y-14800418D01*
X10886585Y-14800418D02*
X10877061Y-14809942D01*
X10877061Y-14809942D02*
X10867537Y-14828990D01*
X11105632Y-14714704D02*
X11124680Y-14714704D01*
X11124680Y-14714704D02*
X11143728Y-14724228D01*
X11143728Y-14724228D02*
X11153252Y-14733752D01*
X11153252Y-14733752D02*
X11162775Y-14752799D01*
X11162775Y-14752799D02*
X11172299Y-14790894D01*
X11172299Y-14790894D02*
X11172299Y-14838514D01*
X11172299Y-14838514D02*
X11162775Y-14876609D01*
X11162775Y-14876609D02*
X11153252Y-14895656D01*
X11153252Y-14895656D02*
X11143728Y-14905180D01*
X11143728Y-14905180D02*
X11124680Y-14914704D01*
X11124680Y-14914704D02*
X11105632Y-14914704D01*
X11105632Y-14914704D02*
X11086585Y-14905180D01*
X11086585Y-14905180D02*
X11077061Y-14895656D01*
X11077061Y-14895656D02*
X11067537Y-14876609D01*
X11067537Y-14876609D02*
X11058013Y-14838514D01*
X11058013Y-14838514D02*
X11058013Y-14790894D01*
X11058013Y-14790894D02*
X11067537Y-14752799D01*
X11067537Y-14752799D02*
X11077061Y-14733752D01*
X11077061Y-14733752D02*
X11086585Y-14724228D01*
X11086585Y-14724228D02*
X11105632Y-14714704D01*
X11296109Y-14714704D02*
X11315156Y-14714704D01*
X11315156Y-14714704D02*
X11334204Y-14724228D01*
X11334204Y-14724228D02*
X11343728Y-14733752D01*
X11343728Y-14733752D02*
X11353251Y-14752799D01*
X11353251Y-14752799D02*
X11362775Y-14790894D01*
X11362775Y-14790894D02*
X11362775Y-14838514D01*
X11362775Y-14838514D02*
X11353251Y-14876609D01*
X11353251Y-14876609D02*
X11343728Y-14895656D01*
X11343728Y-14895656D02*
X11334204Y-14905180D01*
X11334204Y-14905180D02*
X11315156Y-14914704D01*
X11315156Y-14914704D02*
X11296109Y-14914704D01*
X11296109Y-14914704D02*
X11277061Y-14905180D01*
X11277061Y-14905180D02*
X11267537Y-14895656D01*
X11267537Y-14895656D02*
X11258013Y-14876609D01*
X11258013Y-14876609D02*
X11248490Y-14838514D01*
X11248490Y-14838514D02*
X11248490Y-14790894D01*
X11248490Y-14790894D02*
X11258013Y-14752799D01*
X11258013Y-14752799D02*
X11267537Y-14733752D01*
X11267537Y-14733752D02*
X11277061Y-14724228D01*
X11277061Y-14724228D02*
X11296109Y-14714704D01*
X11448490Y-14914704D02*
X11448490Y-14781371D01*
X11448490Y-14800418D02*
X11458013Y-14790894D01*
X11458013Y-14790894D02*
X11477061Y-14781371D01*
X11477061Y-14781371D02*
X11505632Y-14781371D01*
X11505632Y-14781371D02*
X11524680Y-14790894D01*
X11524680Y-14790894D02*
X11534204Y-14809942D01*
X11534204Y-14809942D02*
X11534204Y-14914704D01*
X11534204Y-14809942D02*
X11543728Y-14790894D01*
X11543728Y-14790894D02*
X11562775Y-14781371D01*
X11562775Y-14781371D02*
X11591347Y-14781371D01*
X11591347Y-14781371D02*
X11610394Y-14790894D01*
X11610394Y-14790894D02*
X11619918Y-14809942D01*
X11619918Y-14809942D02*
X11619918Y-14914704D01*
X11715156Y-14914704D02*
X11715156Y-14781371D01*
X11715156Y-14800418D02*
X11724680Y-14790894D01*
X11724680Y-14790894D02*
X11743728Y-14781371D01*
X11743728Y-14781371D02*
X11772299Y-14781371D01*
X11772299Y-14781371D02*
X11791347Y-14790894D01*
X11791347Y-14790894D02*
X11800871Y-14809942D01*
X11800871Y-14809942D02*
X11800871Y-14914704D01*
X11800871Y-14809942D02*
X11810394Y-14790894D01*
X11810394Y-14790894D02*
X11829442Y-14781371D01*
X11829442Y-14781371D02*
X11858013Y-14781371D01*
X11858013Y-14781371D02*
X11877061Y-14790894D01*
X11877061Y-14790894D02*
X11886585Y-14809942D01*
X11886585Y-14809942D02*
X11886585Y-14914704D01*
X12277061Y-14705180D02*
X12105633Y-14962323D01*
X12534204Y-14714704D02*
X12553252Y-14714704D01*
X12553252Y-14714704D02*
X12572299Y-14724228D01*
X12572299Y-14724228D02*
X12581823Y-14733752D01*
X12581823Y-14733752D02*
X12591347Y-14752799D01*
X12591347Y-14752799D02*
X12600871Y-14790894D01*
X12600871Y-14790894D02*
X12600871Y-14838514D01*
X12600871Y-14838514D02*
X12591347Y-14876609D01*
X12591347Y-14876609D02*
X12581823Y-14895656D01*
X12581823Y-14895656D02*
X12572299Y-14905180D01*
X12572299Y-14905180D02*
X12553252Y-14914704D01*
X12553252Y-14914704D02*
X12534204Y-14914704D01*
X12534204Y-14914704D02*
X12515156Y-14905180D01*
X12515156Y-14905180D02*
X12505633Y-14895656D01*
X12505633Y-14895656D02*
X12496109Y-14876609D01*
X12496109Y-14876609D02*
X12486585Y-14838514D01*
X12486585Y-14838514D02*
X12486585Y-14790894D01*
X12486585Y-14790894D02*
X12496109Y-14752799D01*
X12496109Y-14752799D02*
X12505633Y-14733752D01*
X12505633Y-14733752D02*
X12515156Y-14724228D01*
X12515156Y-14724228D02*
X12534204Y-14714704D01*
X12686585Y-14895656D02*
X12696109Y-14905180D01*
X12696109Y-14905180D02*
X12686585Y-14914704D01*
X12686585Y-14914704D02*
X12677061Y-14905180D01*
X12677061Y-14905180D02*
X12686585Y-14895656D01*
X12686585Y-14895656D02*
X12686585Y-14914704D01*
X12819918Y-14714704D02*
X12838966Y-14714704D01*
X12838966Y-14714704D02*
X12858014Y-14724228D01*
X12858014Y-14724228D02*
X12867537Y-14733752D01*
X12867537Y-14733752D02*
X12877061Y-14752799D01*
X12877061Y-14752799D02*
X12886585Y-14790894D01*
X12886585Y-14790894D02*
X12886585Y-14838514D01*
X12886585Y-14838514D02*
X12877061Y-14876609D01*
X12877061Y-14876609D02*
X12867537Y-14895656D01*
X12867537Y-14895656D02*
X12858014Y-14905180D01*
X12858014Y-14905180D02*
X12838966Y-14914704D01*
X12838966Y-14914704D02*
X12819918Y-14914704D01*
X12819918Y-14914704D02*
X12800871Y-14905180D01*
X12800871Y-14905180D02*
X12791347Y-14895656D01*
X12791347Y-14895656D02*
X12781823Y-14876609D01*
X12781823Y-14876609D02*
X12772299Y-14838514D01*
X12772299Y-14838514D02*
X12772299Y-14790894D01*
X12772299Y-14790894D02*
X12781823Y-14752799D01*
X12781823Y-14752799D02*
X12791347Y-14733752D01*
X12791347Y-14733752D02*
X12800871Y-14724228D01*
X12800871Y-14724228D02*
X12819918Y-14714704D01*
X12962775Y-14733752D02*
X12972299Y-14724228D01*
X12972299Y-14724228D02*
X12991347Y-14714704D01*
X12991347Y-14714704D02*
X13038966Y-14714704D01*
X13038966Y-14714704D02*
X13058014Y-14724228D01*
X13058014Y-14724228D02*
X13067537Y-14733752D01*
X13067537Y-14733752D02*
X13077061Y-14752799D01*
X13077061Y-14752799D02*
X13077061Y-14771847D01*
X13077061Y-14771847D02*
X13067537Y-14800418D01*
X13067537Y-14800418D02*
X12953252Y-14914704D01*
X12953252Y-14914704D02*
X13077061Y-14914704D01*
X13143728Y-14714704D02*
X13267537Y-14714704D01*
X13267537Y-14714704D02*
X13200871Y-14790894D01*
X13200871Y-14790894D02*
X13229442Y-14790894D01*
X13229442Y-14790894D02*
X13248490Y-14800418D01*
X13248490Y-14800418D02*
X13258014Y-14809942D01*
X13258014Y-14809942D02*
X13267537Y-14828990D01*
X13267537Y-14828990D02*
X13267537Y-14876609D01*
X13267537Y-14876609D02*
X13258014Y-14895656D01*
X13258014Y-14895656D02*
X13248490Y-14905180D01*
X13248490Y-14905180D02*
X13229442Y-14914704D01*
X13229442Y-14914704D02*
X13172299Y-14914704D01*
X13172299Y-14914704D02*
X13153252Y-14905180D01*
X13153252Y-14905180D02*
X13143728Y-14895656D01*
X13438966Y-14714704D02*
X13400871Y-14714704D01*
X13400871Y-14714704D02*
X13381823Y-14724228D01*
X13381823Y-14724228D02*
X13372299Y-14733752D01*
X13372299Y-14733752D02*
X13353252Y-14762323D01*
X13353252Y-14762323D02*
X13343728Y-14800418D01*
X13343728Y-14800418D02*
X13343728Y-14876609D01*
X13343728Y-14876609D02*
X13353252Y-14895656D01*
X13353252Y-14895656D02*
X13362775Y-14905180D01*
X13362775Y-14905180D02*
X13381823Y-14914704D01*
X13381823Y-14914704D02*
X13419918Y-14914704D01*
X13419918Y-14914704D02*
X13438966Y-14905180D01*
X13438966Y-14905180D02*
X13448490Y-14895656D01*
X13448490Y-14895656D02*
X13458014Y-14876609D01*
X13458014Y-14876609D02*
X13458014Y-14828990D01*
X13458014Y-14828990D02*
X13448490Y-14809942D01*
X13448490Y-14809942D02*
X13438966Y-14800418D01*
X13438966Y-14800418D02*
X13419918Y-14790894D01*
X13419918Y-14790894D02*
X13381823Y-14790894D01*
X13381823Y-14790894D02*
X13362775Y-14800418D01*
X13362775Y-14800418D02*
X13353252Y-14809942D01*
X13353252Y-14809942D02*
X13343728Y-14828990D01*
X13534204Y-14714704D02*
X13534204Y-14752799D01*
X13610395Y-14714704D02*
X13610395Y-14752799D01*
X13905633Y-14990894D02*
X13896109Y-14981371D01*
X13896109Y-14981371D02*
X13877061Y-14952799D01*
X13877061Y-14952799D02*
X13867537Y-14933752D01*
X13867537Y-14933752D02*
X13858014Y-14905180D01*
X13858014Y-14905180D02*
X13848490Y-14857561D01*
X13848490Y-14857561D02*
X13848490Y-14819466D01*
X13848490Y-14819466D02*
X13858014Y-14771847D01*
X13858014Y-14771847D02*
X13867537Y-14743275D01*
X13867537Y-14743275D02*
X13877061Y-14724228D01*
X13877061Y-14724228D02*
X13896109Y-14695656D01*
X13896109Y-14695656D02*
X13905633Y-14686133D01*
X14019918Y-14714704D02*
X14038966Y-14714704D01*
X14038966Y-14714704D02*
X14058014Y-14724228D01*
X14058014Y-14724228D02*
X14067537Y-14733752D01*
X14067537Y-14733752D02*
X14077061Y-14752799D01*
X14077061Y-14752799D02*
X14086585Y-14790894D01*
X14086585Y-14790894D02*
X14086585Y-14838514D01*
X14086585Y-14838514D02*
X14077061Y-14876609D01*
X14077061Y-14876609D02*
X14067537Y-14895656D01*
X14067537Y-14895656D02*
X14058014Y-14905180D01*
X14058014Y-14905180D02*
X14038966Y-14914704D01*
X14038966Y-14914704D02*
X14019918Y-14914704D01*
X14019918Y-14914704D02*
X14000871Y-14905180D01*
X14000871Y-14905180D02*
X13991347Y-14895656D01*
X13991347Y-14895656D02*
X13981823Y-14876609D01*
X13981823Y-14876609D02*
X13972299Y-14838514D01*
X13972299Y-14838514D02*
X13972299Y-14790894D01*
X13972299Y-14790894D02*
X13981823Y-14752799D01*
X13981823Y-14752799D02*
X13991347Y-14733752D01*
X13991347Y-14733752D02*
X14000871Y-14724228D01*
X14000871Y-14724228D02*
X14019918Y-14714704D01*
X14324680Y-14914704D02*
X14324680Y-14714704D01*
X14410395Y-14914704D02*
X14410395Y-14809942D01*
X14410395Y-14809942D02*
X14400871Y-14790894D01*
X14400871Y-14790894D02*
X14381823Y-14781371D01*
X14381823Y-14781371D02*
X14353252Y-14781371D01*
X14353252Y-14781371D02*
X14334204Y-14790894D01*
X14334204Y-14790894D02*
X14324680Y-14800418D01*
X14534204Y-14914704D02*
X14515157Y-14905180D01*
X14515157Y-14905180D02*
X14505633Y-14895656D01*
X14505633Y-14895656D02*
X14496109Y-14876609D01*
X14496109Y-14876609D02*
X14496109Y-14819466D01*
X14496109Y-14819466D02*
X14505633Y-14800418D01*
X14505633Y-14800418D02*
X14515157Y-14790894D01*
X14515157Y-14790894D02*
X14534204Y-14781371D01*
X14534204Y-14781371D02*
X14562776Y-14781371D01*
X14562776Y-14781371D02*
X14581823Y-14790894D01*
X14581823Y-14790894D02*
X14591347Y-14800418D01*
X14591347Y-14800418D02*
X14600871Y-14819466D01*
X14600871Y-14819466D02*
X14600871Y-14876609D01*
X14600871Y-14876609D02*
X14591347Y-14895656D01*
X14591347Y-14895656D02*
X14581823Y-14905180D01*
X14581823Y-14905180D02*
X14562776Y-14914704D01*
X14562776Y-14914704D02*
X14534204Y-14914704D01*
X14715157Y-14914704D02*
X14696109Y-14905180D01*
X14696109Y-14905180D02*
X14686585Y-14886133D01*
X14686585Y-14886133D02*
X14686585Y-14714704D01*
X14867538Y-14905180D02*
X14848490Y-14914704D01*
X14848490Y-14914704D02*
X14810395Y-14914704D01*
X14810395Y-14914704D02*
X14791347Y-14905180D01*
X14791347Y-14905180D02*
X14781823Y-14886133D01*
X14781823Y-14886133D02*
X14781823Y-14809942D01*
X14781823Y-14809942D02*
X14791347Y-14790894D01*
X14791347Y-14790894D02*
X14810395Y-14781371D01*
X14810395Y-14781371D02*
X14848490Y-14781371D01*
X14848490Y-14781371D02*
X14867538Y-14790894D01*
X14867538Y-14790894D02*
X14877061Y-14809942D01*
X14877061Y-14809942D02*
X14877061Y-14828990D01*
X14877061Y-14828990D02*
X14781823Y-14848037D01*
X14953252Y-14905180D02*
X14972299Y-14914704D01*
X14972299Y-14914704D02*
X15010395Y-14914704D01*
X15010395Y-14914704D02*
X15029442Y-14905180D01*
X15029442Y-14905180D02*
X15038966Y-14886133D01*
X15038966Y-14886133D02*
X15038966Y-14876609D01*
X15038966Y-14876609D02*
X15029442Y-14857561D01*
X15029442Y-14857561D02*
X15010395Y-14848037D01*
X15010395Y-14848037D02*
X14981823Y-14848037D01*
X14981823Y-14848037D02*
X14962776Y-14838514D01*
X14962776Y-14838514D02*
X14953252Y-14819466D01*
X14953252Y-14819466D02*
X14953252Y-14809942D01*
X14953252Y-14809942D02*
X14962776Y-14790894D01*
X14962776Y-14790894D02*
X14981823Y-14781371D01*
X14981823Y-14781371D02*
X15010395Y-14781371D01*
X15010395Y-14781371D02*
X15029442Y-14790894D01*
X15277061Y-14838514D02*
X15429442Y-14838514D01*
X15353252Y-14914704D02*
X15353252Y-14762323D01*
X15762776Y-14781371D02*
X15762776Y-14914704D01*
X15715157Y-14705180D02*
X15667538Y-14848037D01*
X15667538Y-14848037D02*
X15791347Y-14848037D01*
X16010395Y-14905180D02*
X16029442Y-14914704D01*
X16029442Y-14914704D02*
X16067538Y-14914704D01*
X16067538Y-14914704D02*
X16086585Y-14905180D01*
X16086585Y-14905180D02*
X16096109Y-14886133D01*
X16096109Y-14886133D02*
X16096109Y-14876609D01*
X16096109Y-14876609D02*
X16086585Y-14857561D01*
X16086585Y-14857561D02*
X16067538Y-14848037D01*
X16067538Y-14848037D02*
X16038966Y-14848037D01*
X16038966Y-14848037D02*
X16019919Y-14838514D01*
X16019919Y-14838514D02*
X16010395Y-14819466D01*
X16010395Y-14819466D02*
X16010395Y-14809942D01*
X16010395Y-14809942D02*
X16019919Y-14790894D01*
X16019919Y-14790894D02*
X16038966Y-14781371D01*
X16038966Y-14781371D02*
X16067538Y-14781371D01*
X16067538Y-14781371D02*
X16086585Y-14790894D01*
X16210395Y-14914704D02*
X16191347Y-14905180D01*
X16191347Y-14905180D02*
X16181823Y-14886133D01*
X16181823Y-14886133D02*
X16181823Y-14714704D01*
X16315157Y-14914704D02*
X16296109Y-14905180D01*
X16296109Y-14905180D02*
X16286585Y-14895656D01*
X16286585Y-14895656D02*
X16277062Y-14876609D01*
X16277062Y-14876609D02*
X16277062Y-14819466D01*
X16277062Y-14819466D02*
X16286585Y-14800418D01*
X16286585Y-14800418D02*
X16296109Y-14790894D01*
X16296109Y-14790894D02*
X16315157Y-14781371D01*
X16315157Y-14781371D02*
X16343728Y-14781371D01*
X16343728Y-14781371D02*
X16362776Y-14790894D01*
X16362776Y-14790894D02*
X16372300Y-14800418D01*
X16372300Y-14800418D02*
X16381823Y-14819466D01*
X16381823Y-14819466D02*
X16381823Y-14876609D01*
X16381823Y-14876609D02*
X16372300Y-14895656D01*
X16372300Y-14895656D02*
X16362776Y-14905180D01*
X16362776Y-14905180D02*
X16343728Y-14914704D01*
X16343728Y-14914704D02*
X16315157Y-14914704D01*
X16438966Y-14781371D02*
X16515157Y-14781371D01*
X16467538Y-14714704D02*
X16467538Y-14886133D01*
X16467538Y-14886133D02*
X16477062Y-14905180D01*
X16477062Y-14905180D02*
X16496109Y-14914704D01*
X16496109Y-14914704D02*
X16515157Y-14914704D01*
X16572300Y-14905180D02*
X16591347Y-14914704D01*
X16591347Y-14914704D02*
X16629442Y-14914704D01*
X16629442Y-14914704D02*
X16648490Y-14905180D01*
X16648490Y-14905180D02*
X16658014Y-14886133D01*
X16658014Y-14886133D02*
X16658014Y-14876609D01*
X16658014Y-14876609D02*
X16648490Y-14857561D01*
X16648490Y-14857561D02*
X16629442Y-14848037D01*
X16629442Y-14848037D02*
X16600871Y-14848037D01*
X16600871Y-14848037D02*
X16581823Y-14838514D01*
X16581823Y-14838514D02*
X16572300Y-14819466D01*
X16572300Y-14819466D02*
X16572300Y-14809942D01*
X16572300Y-14809942D02*
X16581823Y-14790894D01*
X16581823Y-14790894D02*
X16600871Y-14781371D01*
X16600871Y-14781371D02*
X16629442Y-14781371D01*
X16629442Y-14781371D02*
X16648490Y-14790894D01*
X16724681Y-14990894D02*
X16734204Y-14981371D01*
X16734204Y-14981371D02*
X16753252Y-14952799D01*
X16753252Y-14952799D02*
X16762776Y-14933752D01*
X16762776Y-14933752D02*
X16772300Y-14905180D01*
X16772300Y-14905180D02*
X16781824Y-14857561D01*
X16781824Y-14857561D02*
X16781824Y-14819466D01*
X16781824Y-14819466D02*
X16772300Y-14771847D01*
X16772300Y-14771847D02*
X16762776Y-14743275D01*
X16762776Y-14743275D02*
X16753252Y-14724228D01*
X16753252Y-14724228D02*
X16734204Y-14695656D01*
X16734204Y-14695656D02*
X16724681Y-14686133D01*
D13*
X10318854Y-15115505D02*
X10318854Y-15058936D01*
X10262285Y-15058936D01*
X10262285Y-15115505D01*
X10318854Y-15115505D01*
D12*
X10629442Y-14978704D02*
X10648490Y-14978704D01*
X10648490Y-14978704D02*
X10667537Y-14988228D01*
X10667537Y-14988228D02*
X10677061Y-14997752D01*
X10677061Y-14997752D02*
X10686585Y-15016799D01*
X10686585Y-15016799D02*
X10696109Y-15054894D01*
X10696109Y-15054894D02*
X10696109Y-15102514D01*
X10696109Y-15102514D02*
X10686585Y-15140609D01*
X10686585Y-15140609D02*
X10677061Y-15159656D01*
X10677061Y-15159656D02*
X10667537Y-15169180D01*
X10667537Y-15169180D02*
X10648490Y-15178704D01*
X10648490Y-15178704D02*
X10629442Y-15178704D01*
X10629442Y-15178704D02*
X10610394Y-15169180D01*
X10610394Y-15169180D02*
X10600871Y-15159656D01*
X10600871Y-15159656D02*
X10591347Y-15140609D01*
X10591347Y-15140609D02*
X10581823Y-15102514D01*
X10581823Y-15102514D02*
X10581823Y-15054894D01*
X10581823Y-15054894D02*
X10591347Y-15016799D01*
X10591347Y-15016799D02*
X10600871Y-14997752D01*
X10600871Y-14997752D02*
X10610394Y-14988228D01*
X10610394Y-14988228D02*
X10629442Y-14978704D01*
X10781823Y-15159656D02*
X10791347Y-15169180D01*
X10791347Y-15169180D02*
X10781823Y-15178704D01*
X10781823Y-15178704D02*
X10772299Y-15169180D01*
X10772299Y-15169180D02*
X10781823Y-15159656D01*
X10781823Y-15159656D02*
X10781823Y-15178704D01*
X10905632Y-15064418D02*
X10886585Y-15054894D01*
X10886585Y-15054894D02*
X10877061Y-15045371D01*
X10877061Y-15045371D02*
X10867537Y-15026323D01*
X10867537Y-15026323D02*
X10867537Y-15016799D01*
X10867537Y-15016799D02*
X10877061Y-14997752D01*
X10877061Y-14997752D02*
X10886585Y-14988228D01*
X10886585Y-14988228D02*
X10905632Y-14978704D01*
X10905632Y-14978704D02*
X10943728Y-14978704D01*
X10943728Y-14978704D02*
X10962775Y-14988228D01*
X10962775Y-14988228D02*
X10972299Y-14997752D01*
X10972299Y-14997752D02*
X10981823Y-15016799D01*
X10981823Y-15016799D02*
X10981823Y-15026323D01*
X10981823Y-15026323D02*
X10972299Y-15045371D01*
X10972299Y-15045371D02*
X10962775Y-15054894D01*
X10962775Y-15054894D02*
X10943728Y-15064418D01*
X10943728Y-15064418D02*
X10905632Y-15064418D01*
X10905632Y-15064418D02*
X10886585Y-15073942D01*
X10886585Y-15073942D02*
X10877061Y-15083466D01*
X10877061Y-15083466D02*
X10867537Y-15102514D01*
X10867537Y-15102514D02*
X10867537Y-15140609D01*
X10867537Y-15140609D02*
X10877061Y-15159656D01*
X10877061Y-15159656D02*
X10886585Y-15169180D01*
X10886585Y-15169180D02*
X10905632Y-15178704D01*
X10905632Y-15178704D02*
X10943728Y-15178704D01*
X10943728Y-15178704D02*
X10962775Y-15169180D01*
X10962775Y-15169180D02*
X10972299Y-15159656D01*
X10972299Y-15159656D02*
X10981823Y-15140609D01*
X10981823Y-15140609D02*
X10981823Y-15102514D01*
X10981823Y-15102514D02*
X10972299Y-15083466D01*
X10972299Y-15083466D02*
X10962775Y-15073942D01*
X10962775Y-15073942D02*
X10943728Y-15064418D01*
X11105632Y-14978704D02*
X11124680Y-14978704D01*
X11124680Y-14978704D02*
X11143728Y-14988228D01*
X11143728Y-14988228D02*
X11153252Y-14997752D01*
X11153252Y-14997752D02*
X11162775Y-15016799D01*
X11162775Y-15016799D02*
X11172299Y-15054894D01*
X11172299Y-15054894D02*
X11172299Y-15102514D01*
X11172299Y-15102514D02*
X11162775Y-15140609D01*
X11162775Y-15140609D02*
X11153252Y-15159656D01*
X11153252Y-15159656D02*
X11143728Y-15169180D01*
X11143728Y-15169180D02*
X11124680Y-15178704D01*
X11124680Y-15178704D02*
X11105632Y-15178704D01*
X11105632Y-15178704D02*
X11086585Y-15169180D01*
X11086585Y-15169180D02*
X11077061Y-15159656D01*
X11077061Y-15159656D02*
X11067537Y-15140609D01*
X11067537Y-15140609D02*
X11058013Y-15102514D01*
X11058013Y-15102514D02*
X11058013Y-15054894D01*
X11058013Y-15054894D02*
X11067537Y-15016799D01*
X11067537Y-15016799D02*
X11077061Y-14997752D01*
X11077061Y-14997752D02*
X11086585Y-14988228D01*
X11086585Y-14988228D02*
X11105632Y-14978704D01*
X11296109Y-14978704D02*
X11315156Y-14978704D01*
X11315156Y-14978704D02*
X11334204Y-14988228D01*
X11334204Y-14988228D02*
X11343728Y-14997752D01*
X11343728Y-14997752D02*
X11353251Y-15016799D01*
X11353251Y-15016799D02*
X11362775Y-15054894D01*
X11362775Y-15054894D02*
X11362775Y-15102514D01*
X11362775Y-15102514D02*
X11353251Y-15140609D01*
X11353251Y-15140609D02*
X11343728Y-15159656D01*
X11343728Y-15159656D02*
X11334204Y-15169180D01*
X11334204Y-15169180D02*
X11315156Y-15178704D01*
X11315156Y-15178704D02*
X11296109Y-15178704D01*
X11296109Y-15178704D02*
X11277061Y-15169180D01*
X11277061Y-15169180D02*
X11267537Y-15159656D01*
X11267537Y-15159656D02*
X11258013Y-15140609D01*
X11258013Y-15140609D02*
X11248490Y-15102514D01*
X11248490Y-15102514D02*
X11248490Y-15054894D01*
X11248490Y-15054894D02*
X11258013Y-15016799D01*
X11258013Y-15016799D02*
X11267537Y-14997752D01*
X11267537Y-14997752D02*
X11277061Y-14988228D01*
X11277061Y-14988228D02*
X11296109Y-14978704D01*
X11448490Y-15178704D02*
X11448490Y-15045371D01*
X11448490Y-15064418D02*
X11458013Y-15054894D01*
X11458013Y-15054894D02*
X11477061Y-15045371D01*
X11477061Y-15045371D02*
X11505632Y-15045371D01*
X11505632Y-15045371D02*
X11524680Y-15054894D01*
X11524680Y-15054894D02*
X11534204Y-15073942D01*
X11534204Y-15073942D02*
X11534204Y-15178704D01*
X11534204Y-15073942D02*
X11543728Y-15054894D01*
X11543728Y-15054894D02*
X11562775Y-15045371D01*
X11562775Y-15045371D02*
X11591347Y-15045371D01*
X11591347Y-15045371D02*
X11610394Y-15054894D01*
X11610394Y-15054894D02*
X11619918Y-15073942D01*
X11619918Y-15073942D02*
X11619918Y-15178704D01*
X11715156Y-15178704D02*
X11715156Y-15045371D01*
X11715156Y-15064418D02*
X11724680Y-15054894D01*
X11724680Y-15054894D02*
X11743728Y-15045371D01*
X11743728Y-15045371D02*
X11772299Y-15045371D01*
X11772299Y-15045371D02*
X11791347Y-15054894D01*
X11791347Y-15054894D02*
X11800871Y-15073942D01*
X11800871Y-15073942D02*
X11800871Y-15178704D01*
X11800871Y-15073942D02*
X11810394Y-15054894D01*
X11810394Y-15054894D02*
X11829442Y-15045371D01*
X11829442Y-15045371D02*
X11858013Y-15045371D01*
X11858013Y-15045371D02*
X11877061Y-15054894D01*
X11877061Y-15054894D02*
X11886585Y-15073942D01*
X11886585Y-15073942D02*
X11886585Y-15178704D01*
X12277061Y-14969180D02*
X12105633Y-15226323D01*
X12534204Y-14978704D02*
X12553252Y-14978704D01*
X12553252Y-14978704D02*
X12572299Y-14988228D01*
X12572299Y-14988228D02*
X12581823Y-14997752D01*
X12581823Y-14997752D02*
X12591347Y-15016799D01*
X12591347Y-15016799D02*
X12600871Y-15054894D01*
X12600871Y-15054894D02*
X12600871Y-15102514D01*
X12600871Y-15102514D02*
X12591347Y-15140609D01*
X12591347Y-15140609D02*
X12581823Y-15159656D01*
X12581823Y-15159656D02*
X12572299Y-15169180D01*
X12572299Y-15169180D02*
X12553252Y-15178704D01*
X12553252Y-15178704D02*
X12534204Y-15178704D01*
X12534204Y-15178704D02*
X12515156Y-15169180D01*
X12515156Y-15169180D02*
X12505633Y-15159656D01*
X12505633Y-15159656D02*
X12496109Y-15140609D01*
X12496109Y-15140609D02*
X12486585Y-15102514D01*
X12486585Y-15102514D02*
X12486585Y-15054894D01*
X12486585Y-15054894D02*
X12496109Y-15016799D01*
X12496109Y-15016799D02*
X12505633Y-14997752D01*
X12505633Y-14997752D02*
X12515156Y-14988228D01*
X12515156Y-14988228D02*
X12534204Y-14978704D01*
X12686585Y-15159656D02*
X12696109Y-15169180D01*
X12696109Y-15169180D02*
X12686585Y-15178704D01*
X12686585Y-15178704D02*
X12677061Y-15169180D01*
X12677061Y-15169180D02*
X12686585Y-15159656D01*
X12686585Y-15159656D02*
X12686585Y-15178704D01*
X12819918Y-14978704D02*
X12838966Y-14978704D01*
X12838966Y-14978704D02*
X12858014Y-14988228D01*
X12858014Y-14988228D02*
X12867537Y-14997752D01*
X12867537Y-14997752D02*
X12877061Y-15016799D01*
X12877061Y-15016799D02*
X12886585Y-15054894D01*
X12886585Y-15054894D02*
X12886585Y-15102514D01*
X12886585Y-15102514D02*
X12877061Y-15140609D01*
X12877061Y-15140609D02*
X12867537Y-15159656D01*
X12867537Y-15159656D02*
X12858014Y-15169180D01*
X12858014Y-15169180D02*
X12838966Y-15178704D01*
X12838966Y-15178704D02*
X12819918Y-15178704D01*
X12819918Y-15178704D02*
X12800871Y-15169180D01*
X12800871Y-15169180D02*
X12791347Y-15159656D01*
X12791347Y-15159656D02*
X12781823Y-15140609D01*
X12781823Y-15140609D02*
X12772299Y-15102514D01*
X12772299Y-15102514D02*
X12772299Y-15054894D01*
X12772299Y-15054894D02*
X12781823Y-15016799D01*
X12781823Y-15016799D02*
X12791347Y-14997752D01*
X12791347Y-14997752D02*
X12800871Y-14988228D01*
X12800871Y-14988228D02*
X12819918Y-14978704D01*
X12953252Y-14978704D02*
X13077061Y-14978704D01*
X13077061Y-14978704D02*
X13010394Y-15054894D01*
X13010394Y-15054894D02*
X13038966Y-15054894D01*
X13038966Y-15054894D02*
X13058014Y-15064418D01*
X13058014Y-15064418D02*
X13067537Y-15073942D01*
X13067537Y-15073942D02*
X13077061Y-15092990D01*
X13077061Y-15092990D02*
X13077061Y-15140609D01*
X13077061Y-15140609D02*
X13067537Y-15159656D01*
X13067537Y-15159656D02*
X13058014Y-15169180D01*
X13058014Y-15169180D02*
X13038966Y-15178704D01*
X13038966Y-15178704D02*
X12981823Y-15178704D01*
X12981823Y-15178704D02*
X12962775Y-15169180D01*
X12962775Y-15169180D02*
X12953252Y-15159656D01*
X13267537Y-15178704D02*
X13153252Y-15178704D01*
X13210394Y-15178704D02*
X13210394Y-14978704D01*
X13210394Y-14978704D02*
X13191347Y-15007275D01*
X13191347Y-15007275D02*
X13172299Y-15026323D01*
X13172299Y-15026323D02*
X13153252Y-15035847D01*
X13448490Y-14978704D02*
X13353252Y-14978704D01*
X13353252Y-14978704D02*
X13343728Y-15073942D01*
X13343728Y-15073942D02*
X13353252Y-15064418D01*
X13353252Y-15064418D02*
X13372299Y-15054894D01*
X13372299Y-15054894D02*
X13419918Y-15054894D01*
X13419918Y-15054894D02*
X13438966Y-15064418D01*
X13438966Y-15064418D02*
X13448490Y-15073942D01*
X13448490Y-15073942D02*
X13458014Y-15092990D01*
X13458014Y-15092990D02*
X13458014Y-15140609D01*
X13458014Y-15140609D02*
X13448490Y-15159656D01*
X13448490Y-15159656D02*
X13438966Y-15169180D01*
X13438966Y-15169180D02*
X13419918Y-15178704D01*
X13419918Y-15178704D02*
X13372299Y-15178704D01*
X13372299Y-15178704D02*
X13353252Y-15169180D01*
X13353252Y-15169180D02*
X13343728Y-15159656D01*
X13534204Y-14978704D02*
X13534204Y-15016799D01*
X13610395Y-14978704D02*
X13610395Y-15016799D01*
X13905633Y-15254894D02*
X13896109Y-15245371D01*
X13896109Y-15245371D02*
X13877061Y-15216799D01*
X13877061Y-15216799D02*
X13867537Y-15197752D01*
X13867537Y-15197752D02*
X13858014Y-15169180D01*
X13858014Y-15169180D02*
X13848490Y-15121561D01*
X13848490Y-15121561D02*
X13848490Y-15083466D01*
X13848490Y-15083466D02*
X13858014Y-15035847D01*
X13858014Y-15035847D02*
X13867537Y-15007275D01*
X13867537Y-15007275D02*
X13877061Y-14988228D01*
X13877061Y-14988228D02*
X13896109Y-14959656D01*
X13896109Y-14959656D02*
X13905633Y-14950133D01*
X14067537Y-14978704D02*
X14029442Y-14978704D01*
X14029442Y-14978704D02*
X14010395Y-14988228D01*
X14010395Y-14988228D02*
X14000871Y-14997752D01*
X14000871Y-14997752D02*
X13981823Y-15026323D01*
X13981823Y-15026323D02*
X13972299Y-15064418D01*
X13972299Y-15064418D02*
X13972299Y-15140609D01*
X13972299Y-15140609D02*
X13981823Y-15159656D01*
X13981823Y-15159656D02*
X13991347Y-15169180D01*
X13991347Y-15169180D02*
X14010395Y-15178704D01*
X14010395Y-15178704D02*
X14048490Y-15178704D01*
X14048490Y-15178704D02*
X14067537Y-15169180D01*
X14067537Y-15169180D02*
X14077061Y-15159656D01*
X14077061Y-15159656D02*
X14086585Y-15140609D01*
X14086585Y-15140609D02*
X14086585Y-15092990D01*
X14086585Y-15092990D02*
X14077061Y-15073942D01*
X14077061Y-15073942D02*
X14067537Y-15064418D01*
X14067537Y-15064418D02*
X14048490Y-15054894D01*
X14048490Y-15054894D02*
X14010395Y-15054894D01*
X14010395Y-15054894D02*
X13991347Y-15064418D01*
X13991347Y-15064418D02*
X13981823Y-15073942D01*
X13981823Y-15073942D02*
X13972299Y-15092990D01*
X14324680Y-15178704D02*
X14324680Y-14978704D01*
X14410395Y-15178704D02*
X14410395Y-15073942D01*
X14410395Y-15073942D02*
X14400871Y-15054894D01*
X14400871Y-15054894D02*
X14381823Y-15045371D01*
X14381823Y-15045371D02*
X14353252Y-15045371D01*
X14353252Y-15045371D02*
X14334204Y-15054894D01*
X14334204Y-15054894D02*
X14324680Y-15064418D01*
X14534204Y-15178704D02*
X14515157Y-15169180D01*
X14515157Y-15169180D02*
X14505633Y-15159656D01*
X14505633Y-15159656D02*
X14496109Y-15140609D01*
X14496109Y-15140609D02*
X14496109Y-15083466D01*
X14496109Y-15083466D02*
X14505633Y-15064418D01*
X14505633Y-15064418D02*
X14515157Y-15054894D01*
X14515157Y-15054894D02*
X14534204Y-15045371D01*
X14534204Y-15045371D02*
X14562776Y-15045371D01*
X14562776Y-15045371D02*
X14581823Y-15054894D01*
X14581823Y-15054894D02*
X14591347Y-15064418D01*
X14591347Y-15064418D02*
X14600871Y-15083466D01*
X14600871Y-15083466D02*
X14600871Y-15140609D01*
X14600871Y-15140609D02*
X14591347Y-15159656D01*
X14591347Y-15159656D02*
X14581823Y-15169180D01*
X14581823Y-15169180D02*
X14562776Y-15178704D01*
X14562776Y-15178704D02*
X14534204Y-15178704D01*
X14715157Y-15178704D02*
X14696109Y-15169180D01*
X14696109Y-15169180D02*
X14686585Y-15150133D01*
X14686585Y-15150133D02*
X14686585Y-14978704D01*
X14867538Y-15169180D02*
X14848490Y-15178704D01*
X14848490Y-15178704D02*
X14810395Y-15178704D01*
X14810395Y-15178704D02*
X14791347Y-15169180D01*
X14791347Y-15169180D02*
X14781823Y-15150133D01*
X14781823Y-15150133D02*
X14781823Y-15073942D01*
X14781823Y-15073942D02*
X14791347Y-15054894D01*
X14791347Y-15054894D02*
X14810395Y-15045371D01*
X14810395Y-15045371D02*
X14848490Y-15045371D01*
X14848490Y-15045371D02*
X14867538Y-15054894D01*
X14867538Y-15054894D02*
X14877061Y-15073942D01*
X14877061Y-15073942D02*
X14877061Y-15092990D01*
X14877061Y-15092990D02*
X14781823Y-15112037D01*
X14953252Y-15169180D02*
X14972299Y-15178704D01*
X14972299Y-15178704D02*
X15010395Y-15178704D01*
X15010395Y-15178704D02*
X15029442Y-15169180D01*
X15029442Y-15169180D02*
X15038966Y-15150133D01*
X15038966Y-15150133D02*
X15038966Y-15140609D01*
X15038966Y-15140609D02*
X15029442Y-15121561D01*
X15029442Y-15121561D02*
X15010395Y-15112037D01*
X15010395Y-15112037D02*
X14981823Y-15112037D01*
X14981823Y-15112037D02*
X14962776Y-15102514D01*
X14962776Y-15102514D02*
X14953252Y-15083466D01*
X14953252Y-15083466D02*
X14953252Y-15073942D01*
X14953252Y-15073942D02*
X14962776Y-15054894D01*
X14962776Y-15054894D02*
X14981823Y-15045371D01*
X14981823Y-15045371D02*
X15010395Y-15045371D01*
X15010395Y-15045371D02*
X15029442Y-15054894D01*
X15105633Y-15254894D02*
X15115157Y-15245371D01*
X15115157Y-15245371D02*
X15134204Y-15216799D01*
X15134204Y-15216799D02*
X15143728Y-15197752D01*
X15143728Y-15197752D02*
X15153252Y-15169180D01*
X15153252Y-15169180D02*
X15162776Y-15121561D01*
X15162776Y-15121561D02*
X15162776Y-15083466D01*
X15162776Y-15083466D02*
X15153252Y-15035847D01*
X15153252Y-15035847D02*
X15143728Y-15007275D01*
X15143728Y-15007275D02*
X15134204Y-14988228D01*
X15134204Y-14988228D02*
X15115157Y-14959656D01*
X15115157Y-14959656D02*
X15105633Y-14950133D01*
D13*
X10285570Y-15396220D02*
X10330570Y-15351220D01*
X10285570Y-15306220D01*
X10240570Y-15351220D01*
X10285570Y-15396220D01*
D12*
X10629442Y-15242704D02*
X10648490Y-15242704D01*
X10648490Y-15242704D02*
X10667537Y-15252228D01*
X10667537Y-15252228D02*
X10677061Y-15261752D01*
X10677061Y-15261752D02*
X10686585Y-15280799D01*
X10686585Y-15280799D02*
X10696109Y-15318894D01*
X10696109Y-15318894D02*
X10696109Y-15366514D01*
X10696109Y-15366514D02*
X10686585Y-15404609D01*
X10686585Y-15404609D02*
X10677061Y-15423656D01*
X10677061Y-15423656D02*
X10667537Y-15433180D01*
X10667537Y-15433180D02*
X10648490Y-15442704D01*
X10648490Y-15442704D02*
X10629442Y-15442704D01*
X10629442Y-15442704D02*
X10610394Y-15433180D01*
X10610394Y-15433180D02*
X10600871Y-15423656D01*
X10600871Y-15423656D02*
X10591347Y-15404609D01*
X10591347Y-15404609D02*
X10581823Y-15366514D01*
X10581823Y-15366514D02*
X10581823Y-15318894D01*
X10581823Y-15318894D02*
X10591347Y-15280799D01*
X10591347Y-15280799D02*
X10600871Y-15261752D01*
X10600871Y-15261752D02*
X10610394Y-15252228D01*
X10610394Y-15252228D02*
X10629442Y-15242704D01*
X10781823Y-15423656D02*
X10791347Y-15433180D01*
X10791347Y-15433180D02*
X10781823Y-15442704D01*
X10781823Y-15442704D02*
X10772299Y-15433180D01*
X10772299Y-15433180D02*
X10781823Y-15423656D01*
X10781823Y-15423656D02*
X10781823Y-15442704D01*
X10886585Y-15442704D02*
X10924680Y-15442704D01*
X10924680Y-15442704D02*
X10943728Y-15433180D01*
X10943728Y-15433180D02*
X10953252Y-15423656D01*
X10953252Y-15423656D02*
X10972299Y-15395085D01*
X10972299Y-15395085D02*
X10981823Y-15356990D01*
X10981823Y-15356990D02*
X10981823Y-15280799D01*
X10981823Y-15280799D02*
X10972299Y-15261752D01*
X10972299Y-15261752D02*
X10962775Y-15252228D01*
X10962775Y-15252228D02*
X10943728Y-15242704D01*
X10943728Y-15242704D02*
X10905632Y-15242704D01*
X10905632Y-15242704D02*
X10886585Y-15252228D01*
X10886585Y-15252228D02*
X10877061Y-15261752D01*
X10877061Y-15261752D02*
X10867537Y-15280799D01*
X10867537Y-15280799D02*
X10867537Y-15328418D01*
X10867537Y-15328418D02*
X10877061Y-15347466D01*
X10877061Y-15347466D02*
X10886585Y-15356990D01*
X10886585Y-15356990D02*
X10905632Y-15366514D01*
X10905632Y-15366514D02*
X10943728Y-15366514D01*
X10943728Y-15366514D02*
X10962775Y-15356990D01*
X10962775Y-15356990D02*
X10972299Y-15347466D01*
X10972299Y-15347466D02*
X10981823Y-15328418D01*
X11105632Y-15242704D02*
X11124680Y-15242704D01*
X11124680Y-15242704D02*
X11143728Y-15252228D01*
X11143728Y-15252228D02*
X11153252Y-15261752D01*
X11153252Y-15261752D02*
X11162775Y-15280799D01*
X11162775Y-15280799D02*
X11172299Y-15318894D01*
X11172299Y-15318894D02*
X11172299Y-15366514D01*
X11172299Y-15366514D02*
X11162775Y-15404609D01*
X11162775Y-15404609D02*
X11153252Y-15423656D01*
X11153252Y-15423656D02*
X11143728Y-15433180D01*
X11143728Y-15433180D02*
X11124680Y-15442704D01*
X11124680Y-15442704D02*
X11105632Y-15442704D01*
X11105632Y-15442704D02*
X11086585Y-15433180D01*
X11086585Y-15433180D02*
X11077061Y-15423656D01*
X11077061Y-15423656D02*
X11067537Y-15404609D01*
X11067537Y-15404609D02*
X11058013Y-15366514D01*
X11058013Y-15366514D02*
X11058013Y-15318894D01*
X11058013Y-15318894D02*
X11067537Y-15280799D01*
X11067537Y-15280799D02*
X11077061Y-15261752D01*
X11077061Y-15261752D02*
X11086585Y-15252228D01*
X11086585Y-15252228D02*
X11105632Y-15242704D01*
X11296109Y-15242704D02*
X11315156Y-15242704D01*
X11315156Y-15242704D02*
X11334204Y-15252228D01*
X11334204Y-15252228D02*
X11343728Y-15261752D01*
X11343728Y-15261752D02*
X11353251Y-15280799D01*
X11353251Y-15280799D02*
X11362775Y-15318894D01*
X11362775Y-15318894D02*
X11362775Y-15366514D01*
X11362775Y-15366514D02*
X11353251Y-15404609D01*
X11353251Y-15404609D02*
X11343728Y-15423656D01*
X11343728Y-15423656D02*
X11334204Y-15433180D01*
X11334204Y-15433180D02*
X11315156Y-15442704D01*
X11315156Y-15442704D02*
X11296109Y-15442704D01*
X11296109Y-15442704D02*
X11277061Y-15433180D01*
X11277061Y-15433180D02*
X11267537Y-15423656D01*
X11267537Y-15423656D02*
X11258013Y-15404609D01*
X11258013Y-15404609D02*
X11248490Y-15366514D01*
X11248490Y-15366514D02*
X11248490Y-15318894D01*
X11248490Y-15318894D02*
X11258013Y-15280799D01*
X11258013Y-15280799D02*
X11267537Y-15261752D01*
X11267537Y-15261752D02*
X11277061Y-15252228D01*
X11277061Y-15252228D02*
X11296109Y-15242704D01*
X11448490Y-15442704D02*
X11448490Y-15309371D01*
X11448490Y-15328418D02*
X11458013Y-15318894D01*
X11458013Y-15318894D02*
X11477061Y-15309371D01*
X11477061Y-15309371D02*
X11505632Y-15309371D01*
X11505632Y-15309371D02*
X11524680Y-15318894D01*
X11524680Y-15318894D02*
X11534204Y-15337942D01*
X11534204Y-15337942D02*
X11534204Y-15442704D01*
X11534204Y-15337942D02*
X11543728Y-15318894D01*
X11543728Y-15318894D02*
X11562775Y-15309371D01*
X11562775Y-15309371D02*
X11591347Y-15309371D01*
X11591347Y-15309371D02*
X11610394Y-15318894D01*
X11610394Y-15318894D02*
X11619918Y-15337942D01*
X11619918Y-15337942D02*
X11619918Y-15442704D01*
X11715156Y-15442704D02*
X11715156Y-15309371D01*
X11715156Y-15328418D02*
X11724680Y-15318894D01*
X11724680Y-15318894D02*
X11743728Y-15309371D01*
X11743728Y-15309371D02*
X11772299Y-15309371D01*
X11772299Y-15309371D02*
X11791347Y-15318894D01*
X11791347Y-15318894D02*
X11800871Y-15337942D01*
X11800871Y-15337942D02*
X11800871Y-15442704D01*
X11800871Y-15337942D02*
X11810394Y-15318894D01*
X11810394Y-15318894D02*
X11829442Y-15309371D01*
X11829442Y-15309371D02*
X11858013Y-15309371D01*
X11858013Y-15309371D02*
X11877061Y-15318894D01*
X11877061Y-15318894D02*
X11886585Y-15337942D01*
X11886585Y-15337942D02*
X11886585Y-15442704D01*
X12277061Y-15233180D02*
X12105633Y-15490323D01*
X12534204Y-15242704D02*
X12553252Y-15242704D01*
X12553252Y-15242704D02*
X12572299Y-15252228D01*
X12572299Y-15252228D02*
X12581823Y-15261752D01*
X12581823Y-15261752D02*
X12591347Y-15280799D01*
X12591347Y-15280799D02*
X12600871Y-15318894D01*
X12600871Y-15318894D02*
X12600871Y-15366514D01*
X12600871Y-15366514D02*
X12591347Y-15404609D01*
X12591347Y-15404609D02*
X12581823Y-15423656D01*
X12581823Y-15423656D02*
X12572299Y-15433180D01*
X12572299Y-15433180D02*
X12553252Y-15442704D01*
X12553252Y-15442704D02*
X12534204Y-15442704D01*
X12534204Y-15442704D02*
X12515156Y-15433180D01*
X12515156Y-15433180D02*
X12505633Y-15423656D01*
X12505633Y-15423656D02*
X12496109Y-15404609D01*
X12496109Y-15404609D02*
X12486585Y-15366514D01*
X12486585Y-15366514D02*
X12486585Y-15318894D01*
X12486585Y-15318894D02*
X12496109Y-15280799D01*
X12496109Y-15280799D02*
X12505633Y-15261752D01*
X12505633Y-15261752D02*
X12515156Y-15252228D01*
X12515156Y-15252228D02*
X12534204Y-15242704D01*
X12686585Y-15423656D02*
X12696109Y-15433180D01*
X12696109Y-15433180D02*
X12686585Y-15442704D01*
X12686585Y-15442704D02*
X12677061Y-15433180D01*
X12677061Y-15433180D02*
X12686585Y-15423656D01*
X12686585Y-15423656D02*
X12686585Y-15442704D01*
X12819918Y-15242704D02*
X12838966Y-15242704D01*
X12838966Y-15242704D02*
X12858014Y-15252228D01*
X12858014Y-15252228D02*
X12867537Y-15261752D01*
X12867537Y-15261752D02*
X12877061Y-15280799D01*
X12877061Y-15280799D02*
X12886585Y-15318894D01*
X12886585Y-15318894D02*
X12886585Y-15366514D01*
X12886585Y-15366514D02*
X12877061Y-15404609D01*
X12877061Y-15404609D02*
X12867537Y-15423656D01*
X12867537Y-15423656D02*
X12858014Y-15433180D01*
X12858014Y-15433180D02*
X12838966Y-15442704D01*
X12838966Y-15442704D02*
X12819918Y-15442704D01*
X12819918Y-15442704D02*
X12800871Y-15433180D01*
X12800871Y-15433180D02*
X12791347Y-15423656D01*
X12791347Y-15423656D02*
X12781823Y-15404609D01*
X12781823Y-15404609D02*
X12772299Y-15366514D01*
X12772299Y-15366514D02*
X12772299Y-15318894D01*
X12772299Y-15318894D02*
X12781823Y-15280799D01*
X12781823Y-15280799D02*
X12791347Y-15261752D01*
X12791347Y-15261752D02*
X12800871Y-15252228D01*
X12800871Y-15252228D02*
X12819918Y-15242704D01*
X12953252Y-15242704D02*
X13077061Y-15242704D01*
X13077061Y-15242704D02*
X13010394Y-15318894D01*
X13010394Y-15318894D02*
X13038966Y-15318894D01*
X13038966Y-15318894D02*
X13058014Y-15328418D01*
X13058014Y-15328418D02*
X13067537Y-15337942D01*
X13067537Y-15337942D02*
X13077061Y-15356990D01*
X13077061Y-15356990D02*
X13077061Y-15404609D01*
X13077061Y-15404609D02*
X13067537Y-15423656D01*
X13067537Y-15423656D02*
X13058014Y-15433180D01*
X13058014Y-15433180D02*
X13038966Y-15442704D01*
X13038966Y-15442704D02*
X12981823Y-15442704D01*
X12981823Y-15442704D02*
X12962775Y-15433180D01*
X12962775Y-15433180D02*
X12953252Y-15423656D01*
X13258014Y-15242704D02*
X13162775Y-15242704D01*
X13162775Y-15242704D02*
X13153252Y-15337942D01*
X13153252Y-15337942D02*
X13162775Y-15328418D01*
X13162775Y-15328418D02*
X13181823Y-15318894D01*
X13181823Y-15318894D02*
X13229442Y-15318894D01*
X13229442Y-15318894D02*
X13248490Y-15328418D01*
X13248490Y-15328418D02*
X13258014Y-15337942D01*
X13258014Y-15337942D02*
X13267537Y-15356990D01*
X13267537Y-15356990D02*
X13267537Y-15404609D01*
X13267537Y-15404609D02*
X13258014Y-15423656D01*
X13258014Y-15423656D02*
X13248490Y-15433180D01*
X13248490Y-15433180D02*
X13229442Y-15442704D01*
X13229442Y-15442704D02*
X13181823Y-15442704D01*
X13181823Y-15442704D02*
X13162775Y-15433180D01*
X13162775Y-15433180D02*
X13153252Y-15423656D01*
X13438966Y-15309371D02*
X13438966Y-15442704D01*
X13391347Y-15233180D02*
X13343728Y-15376037D01*
X13343728Y-15376037D02*
X13467537Y-15376037D01*
X13534204Y-15242704D02*
X13534204Y-15280799D01*
X13610395Y-15242704D02*
X13610395Y-15280799D01*
X13905633Y-15518894D02*
X13896109Y-15509371D01*
X13896109Y-15509371D02*
X13877061Y-15480799D01*
X13877061Y-15480799D02*
X13867537Y-15461752D01*
X13867537Y-15461752D02*
X13858014Y-15433180D01*
X13858014Y-15433180D02*
X13848490Y-15385561D01*
X13848490Y-15385561D02*
X13848490Y-15347466D01*
X13848490Y-15347466D02*
X13858014Y-15299847D01*
X13858014Y-15299847D02*
X13867537Y-15271275D01*
X13867537Y-15271275D02*
X13877061Y-15252228D01*
X13877061Y-15252228D02*
X13896109Y-15223656D01*
X13896109Y-15223656D02*
X13905633Y-15214133D01*
X14067537Y-15309371D02*
X14067537Y-15442704D01*
X14019918Y-15233180D02*
X13972299Y-15376037D01*
X13972299Y-15376037D02*
X14096109Y-15376037D01*
X14324680Y-15442704D02*
X14324680Y-15242704D01*
X14410395Y-15442704D02*
X14410395Y-15337942D01*
X14410395Y-15337942D02*
X14400871Y-15318894D01*
X14400871Y-15318894D02*
X14381823Y-15309371D01*
X14381823Y-15309371D02*
X14353252Y-15309371D01*
X14353252Y-15309371D02*
X14334204Y-15318894D01*
X14334204Y-15318894D02*
X14324680Y-15328418D01*
X14534204Y-15442704D02*
X14515157Y-15433180D01*
X14515157Y-15433180D02*
X14505633Y-15423656D01*
X14505633Y-15423656D02*
X14496109Y-15404609D01*
X14496109Y-15404609D02*
X14496109Y-15347466D01*
X14496109Y-15347466D02*
X14505633Y-15328418D01*
X14505633Y-15328418D02*
X14515157Y-15318894D01*
X14515157Y-15318894D02*
X14534204Y-15309371D01*
X14534204Y-15309371D02*
X14562776Y-15309371D01*
X14562776Y-15309371D02*
X14581823Y-15318894D01*
X14581823Y-15318894D02*
X14591347Y-15328418D01*
X14591347Y-15328418D02*
X14600871Y-15347466D01*
X14600871Y-15347466D02*
X14600871Y-15404609D01*
X14600871Y-15404609D02*
X14591347Y-15423656D01*
X14591347Y-15423656D02*
X14581823Y-15433180D01*
X14581823Y-15433180D02*
X14562776Y-15442704D01*
X14562776Y-15442704D02*
X14534204Y-15442704D01*
X14715157Y-15442704D02*
X14696109Y-15433180D01*
X14696109Y-15433180D02*
X14686585Y-15414133D01*
X14686585Y-15414133D02*
X14686585Y-15242704D01*
X14867538Y-15433180D02*
X14848490Y-15442704D01*
X14848490Y-15442704D02*
X14810395Y-15442704D01*
X14810395Y-15442704D02*
X14791347Y-15433180D01*
X14791347Y-15433180D02*
X14781823Y-15414133D01*
X14781823Y-15414133D02*
X14781823Y-15337942D01*
X14781823Y-15337942D02*
X14791347Y-15318894D01*
X14791347Y-15318894D02*
X14810395Y-15309371D01*
X14810395Y-15309371D02*
X14848490Y-15309371D01*
X14848490Y-15309371D02*
X14867538Y-15318894D01*
X14867538Y-15318894D02*
X14877061Y-15337942D01*
X14877061Y-15337942D02*
X14877061Y-15356990D01*
X14877061Y-15356990D02*
X14781823Y-15376037D01*
X14953252Y-15433180D02*
X14972299Y-15442704D01*
X14972299Y-15442704D02*
X15010395Y-15442704D01*
X15010395Y-15442704D02*
X15029442Y-15433180D01*
X15029442Y-15433180D02*
X15038966Y-15414133D01*
X15038966Y-15414133D02*
X15038966Y-15404609D01*
X15038966Y-15404609D02*
X15029442Y-15385561D01*
X15029442Y-15385561D02*
X15010395Y-15376037D01*
X15010395Y-15376037D02*
X14981823Y-15376037D01*
X14981823Y-15376037D02*
X14962776Y-15366514D01*
X14962776Y-15366514D02*
X14953252Y-15347466D01*
X14953252Y-15347466D02*
X14953252Y-15337942D01*
X14953252Y-15337942D02*
X14962776Y-15318894D01*
X14962776Y-15318894D02*
X14981823Y-15309371D01*
X14981823Y-15309371D02*
X15010395Y-15309371D01*
X15010395Y-15309371D02*
X15029442Y-15318894D01*
X15105633Y-15518894D02*
X15115157Y-15509371D01*
X15115157Y-15509371D02*
X15134204Y-15480799D01*
X15134204Y-15480799D02*
X15143728Y-15461752D01*
X15143728Y-15461752D02*
X15153252Y-15433180D01*
X15153252Y-15433180D02*
X15162776Y-15385561D01*
X15162776Y-15385561D02*
X15162776Y-15347466D01*
X15162776Y-15347466D02*
X15153252Y-15299847D01*
X15153252Y-15299847D02*
X15143728Y-15271275D01*
X15143728Y-15271275D02*
X15134204Y-15252228D01*
X15134204Y-15252228D02*
X15115157Y-15223656D01*
X15115157Y-15223656D02*
X15105633Y-15214133D01*
D13*
X10230570Y-15565220D02*
X10330570Y-15665220D01*
X10330570Y-15565220D02*
X10230570Y-15665220D01*
X10330570Y-15615220D02*
G75*
G02*
X10230570Y-15615220I-50000J0D01*
G01*
X10230570Y-15615220D02*
G75*
G02*
X10330570Y-15615220I50000J0D01*
G01*
D12*
X10696109Y-15706704D02*
X10581823Y-15706704D01*
X10638966Y-15706704D02*
X10638966Y-15506704D01*
X10638966Y-15506704D02*
X10619918Y-15535275D01*
X10619918Y-15535275D02*
X10600871Y-15554323D01*
X10600871Y-15554323D02*
X10581823Y-15563847D01*
X10781823Y-15687656D02*
X10791347Y-15697180D01*
X10791347Y-15697180D02*
X10781823Y-15706704D01*
X10781823Y-15706704D02*
X10772299Y-15697180D01*
X10772299Y-15697180D02*
X10781823Y-15687656D01*
X10781823Y-15687656D02*
X10781823Y-15706704D01*
X10915156Y-15506704D02*
X10934204Y-15506704D01*
X10934204Y-15506704D02*
X10953252Y-15516228D01*
X10953252Y-15516228D02*
X10962775Y-15525752D01*
X10962775Y-15525752D02*
X10972299Y-15544799D01*
X10972299Y-15544799D02*
X10981823Y-15582894D01*
X10981823Y-15582894D02*
X10981823Y-15630514D01*
X10981823Y-15630514D02*
X10972299Y-15668609D01*
X10972299Y-15668609D02*
X10962775Y-15687656D01*
X10962775Y-15687656D02*
X10953252Y-15697180D01*
X10953252Y-15697180D02*
X10934204Y-15706704D01*
X10934204Y-15706704D02*
X10915156Y-15706704D01*
X10915156Y-15706704D02*
X10896109Y-15697180D01*
X10896109Y-15697180D02*
X10886585Y-15687656D01*
X10886585Y-15687656D02*
X10877061Y-15668609D01*
X10877061Y-15668609D02*
X10867537Y-15630514D01*
X10867537Y-15630514D02*
X10867537Y-15582894D01*
X10867537Y-15582894D02*
X10877061Y-15544799D01*
X10877061Y-15544799D02*
X10886585Y-15525752D01*
X10886585Y-15525752D02*
X10896109Y-15516228D01*
X10896109Y-15516228D02*
X10915156Y-15506704D01*
X11105632Y-15506704D02*
X11124680Y-15506704D01*
X11124680Y-15506704D02*
X11143728Y-15516228D01*
X11143728Y-15516228D02*
X11153252Y-15525752D01*
X11153252Y-15525752D02*
X11162775Y-15544799D01*
X11162775Y-15544799D02*
X11172299Y-15582894D01*
X11172299Y-15582894D02*
X11172299Y-15630514D01*
X11172299Y-15630514D02*
X11162775Y-15668609D01*
X11162775Y-15668609D02*
X11153252Y-15687656D01*
X11153252Y-15687656D02*
X11143728Y-15697180D01*
X11143728Y-15697180D02*
X11124680Y-15706704D01*
X11124680Y-15706704D02*
X11105632Y-15706704D01*
X11105632Y-15706704D02*
X11086585Y-15697180D01*
X11086585Y-15697180D02*
X11077061Y-15687656D01*
X11077061Y-15687656D02*
X11067537Y-15668609D01*
X11067537Y-15668609D02*
X11058013Y-15630514D01*
X11058013Y-15630514D02*
X11058013Y-15582894D01*
X11058013Y-15582894D02*
X11067537Y-15544799D01*
X11067537Y-15544799D02*
X11077061Y-15525752D01*
X11077061Y-15525752D02*
X11086585Y-15516228D01*
X11086585Y-15516228D02*
X11105632Y-15506704D01*
X11296109Y-15506704D02*
X11315156Y-15506704D01*
X11315156Y-15506704D02*
X11334204Y-15516228D01*
X11334204Y-15516228D02*
X11343728Y-15525752D01*
X11343728Y-15525752D02*
X11353251Y-15544799D01*
X11353251Y-15544799D02*
X11362775Y-15582894D01*
X11362775Y-15582894D02*
X11362775Y-15630514D01*
X11362775Y-15630514D02*
X11353251Y-15668609D01*
X11353251Y-15668609D02*
X11343728Y-15687656D01*
X11343728Y-15687656D02*
X11334204Y-15697180D01*
X11334204Y-15697180D02*
X11315156Y-15706704D01*
X11315156Y-15706704D02*
X11296109Y-15706704D01*
X11296109Y-15706704D02*
X11277061Y-15697180D01*
X11277061Y-15697180D02*
X11267537Y-15687656D01*
X11267537Y-15687656D02*
X11258013Y-15668609D01*
X11258013Y-15668609D02*
X11248490Y-15630514D01*
X11248490Y-15630514D02*
X11248490Y-15582894D01*
X11248490Y-15582894D02*
X11258013Y-15544799D01*
X11258013Y-15544799D02*
X11267537Y-15525752D01*
X11267537Y-15525752D02*
X11277061Y-15516228D01*
X11277061Y-15516228D02*
X11296109Y-15506704D01*
X11448490Y-15706704D02*
X11448490Y-15573371D01*
X11448490Y-15592418D02*
X11458013Y-15582894D01*
X11458013Y-15582894D02*
X11477061Y-15573371D01*
X11477061Y-15573371D02*
X11505632Y-15573371D01*
X11505632Y-15573371D02*
X11524680Y-15582894D01*
X11524680Y-15582894D02*
X11534204Y-15601942D01*
X11534204Y-15601942D02*
X11534204Y-15706704D01*
X11534204Y-15601942D02*
X11543728Y-15582894D01*
X11543728Y-15582894D02*
X11562775Y-15573371D01*
X11562775Y-15573371D02*
X11591347Y-15573371D01*
X11591347Y-15573371D02*
X11610394Y-15582894D01*
X11610394Y-15582894D02*
X11619918Y-15601942D01*
X11619918Y-15601942D02*
X11619918Y-15706704D01*
X11715156Y-15706704D02*
X11715156Y-15573371D01*
X11715156Y-15592418D02*
X11724680Y-15582894D01*
X11724680Y-15582894D02*
X11743728Y-15573371D01*
X11743728Y-15573371D02*
X11772299Y-15573371D01*
X11772299Y-15573371D02*
X11791347Y-15582894D01*
X11791347Y-15582894D02*
X11800871Y-15601942D01*
X11800871Y-15601942D02*
X11800871Y-15706704D01*
X11800871Y-15601942D02*
X11810394Y-15582894D01*
X11810394Y-15582894D02*
X11829442Y-15573371D01*
X11829442Y-15573371D02*
X11858013Y-15573371D01*
X11858013Y-15573371D02*
X11877061Y-15582894D01*
X11877061Y-15582894D02*
X11886585Y-15601942D01*
X11886585Y-15601942D02*
X11886585Y-15706704D01*
X12277061Y-15497180D02*
X12105633Y-15754323D01*
X12534204Y-15506704D02*
X12553252Y-15506704D01*
X12553252Y-15506704D02*
X12572299Y-15516228D01*
X12572299Y-15516228D02*
X12581823Y-15525752D01*
X12581823Y-15525752D02*
X12591347Y-15544799D01*
X12591347Y-15544799D02*
X12600871Y-15582894D01*
X12600871Y-15582894D02*
X12600871Y-15630514D01*
X12600871Y-15630514D02*
X12591347Y-15668609D01*
X12591347Y-15668609D02*
X12581823Y-15687656D01*
X12581823Y-15687656D02*
X12572299Y-15697180D01*
X12572299Y-15697180D02*
X12553252Y-15706704D01*
X12553252Y-15706704D02*
X12534204Y-15706704D01*
X12534204Y-15706704D02*
X12515156Y-15697180D01*
X12515156Y-15697180D02*
X12505633Y-15687656D01*
X12505633Y-15687656D02*
X12496109Y-15668609D01*
X12496109Y-15668609D02*
X12486585Y-15630514D01*
X12486585Y-15630514D02*
X12486585Y-15582894D01*
X12486585Y-15582894D02*
X12496109Y-15544799D01*
X12496109Y-15544799D02*
X12505633Y-15525752D01*
X12505633Y-15525752D02*
X12515156Y-15516228D01*
X12515156Y-15516228D02*
X12534204Y-15506704D01*
X12686585Y-15687656D02*
X12696109Y-15697180D01*
X12696109Y-15697180D02*
X12686585Y-15706704D01*
X12686585Y-15706704D02*
X12677061Y-15697180D01*
X12677061Y-15697180D02*
X12686585Y-15687656D01*
X12686585Y-15687656D02*
X12686585Y-15706704D01*
X12819918Y-15506704D02*
X12838966Y-15506704D01*
X12838966Y-15506704D02*
X12858014Y-15516228D01*
X12858014Y-15516228D02*
X12867537Y-15525752D01*
X12867537Y-15525752D02*
X12877061Y-15544799D01*
X12877061Y-15544799D02*
X12886585Y-15582894D01*
X12886585Y-15582894D02*
X12886585Y-15630514D01*
X12886585Y-15630514D02*
X12877061Y-15668609D01*
X12877061Y-15668609D02*
X12867537Y-15687656D01*
X12867537Y-15687656D02*
X12858014Y-15697180D01*
X12858014Y-15697180D02*
X12838966Y-15706704D01*
X12838966Y-15706704D02*
X12819918Y-15706704D01*
X12819918Y-15706704D02*
X12800871Y-15697180D01*
X12800871Y-15697180D02*
X12791347Y-15687656D01*
X12791347Y-15687656D02*
X12781823Y-15668609D01*
X12781823Y-15668609D02*
X12772299Y-15630514D01*
X12772299Y-15630514D02*
X12772299Y-15582894D01*
X12772299Y-15582894D02*
X12781823Y-15544799D01*
X12781823Y-15544799D02*
X12791347Y-15525752D01*
X12791347Y-15525752D02*
X12800871Y-15516228D01*
X12800871Y-15516228D02*
X12819918Y-15506704D01*
X12953252Y-15506704D02*
X13077061Y-15506704D01*
X13077061Y-15506704D02*
X13010394Y-15582894D01*
X13010394Y-15582894D02*
X13038966Y-15582894D01*
X13038966Y-15582894D02*
X13058014Y-15592418D01*
X13058014Y-15592418D02*
X13067537Y-15601942D01*
X13067537Y-15601942D02*
X13077061Y-15620990D01*
X13077061Y-15620990D02*
X13077061Y-15668609D01*
X13077061Y-15668609D02*
X13067537Y-15687656D01*
X13067537Y-15687656D02*
X13058014Y-15697180D01*
X13058014Y-15697180D02*
X13038966Y-15706704D01*
X13038966Y-15706704D02*
X12981823Y-15706704D01*
X12981823Y-15706704D02*
X12962775Y-15697180D01*
X12962775Y-15697180D02*
X12953252Y-15687656D01*
X13172299Y-15706704D02*
X13210394Y-15706704D01*
X13210394Y-15706704D02*
X13229442Y-15697180D01*
X13229442Y-15697180D02*
X13238966Y-15687656D01*
X13238966Y-15687656D02*
X13258014Y-15659085D01*
X13258014Y-15659085D02*
X13267537Y-15620990D01*
X13267537Y-15620990D02*
X13267537Y-15544799D01*
X13267537Y-15544799D02*
X13258014Y-15525752D01*
X13258014Y-15525752D02*
X13248490Y-15516228D01*
X13248490Y-15516228D02*
X13229442Y-15506704D01*
X13229442Y-15506704D02*
X13191347Y-15506704D01*
X13191347Y-15506704D02*
X13172299Y-15516228D01*
X13172299Y-15516228D02*
X13162775Y-15525752D01*
X13162775Y-15525752D02*
X13153252Y-15544799D01*
X13153252Y-15544799D02*
X13153252Y-15592418D01*
X13153252Y-15592418D02*
X13162775Y-15611466D01*
X13162775Y-15611466D02*
X13172299Y-15620990D01*
X13172299Y-15620990D02*
X13191347Y-15630514D01*
X13191347Y-15630514D02*
X13229442Y-15630514D01*
X13229442Y-15630514D02*
X13248490Y-15620990D01*
X13248490Y-15620990D02*
X13258014Y-15611466D01*
X13258014Y-15611466D02*
X13267537Y-15592418D01*
X13438966Y-15573371D02*
X13438966Y-15706704D01*
X13391347Y-15497180D02*
X13343728Y-15640037D01*
X13343728Y-15640037D02*
X13467537Y-15640037D01*
X13534204Y-15506704D02*
X13534204Y-15544799D01*
X13610395Y-15506704D02*
X13610395Y-15544799D01*
X13905633Y-15782894D02*
X13896109Y-15773371D01*
X13896109Y-15773371D02*
X13877061Y-15744799D01*
X13877061Y-15744799D02*
X13867537Y-15725752D01*
X13867537Y-15725752D02*
X13858014Y-15697180D01*
X13858014Y-15697180D02*
X13848490Y-15649561D01*
X13848490Y-15649561D02*
X13848490Y-15611466D01*
X13848490Y-15611466D02*
X13858014Y-15563847D01*
X13858014Y-15563847D02*
X13867537Y-15535275D01*
X13867537Y-15535275D02*
X13877061Y-15516228D01*
X13877061Y-15516228D02*
X13896109Y-15487656D01*
X13896109Y-15487656D02*
X13905633Y-15478133D01*
X13972299Y-15525752D02*
X13981823Y-15516228D01*
X13981823Y-15516228D02*
X14000871Y-15506704D01*
X14000871Y-15506704D02*
X14048490Y-15506704D01*
X14048490Y-15506704D02*
X14067537Y-15516228D01*
X14067537Y-15516228D02*
X14077061Y-15525752D01*
X14077061Y-15525752D02*
X14086585Y-15544799D01*
X14086585Y-15544799D02*
X14086585Y-15563847D01*
X14086585Y-15563847D02*
X14077061Y-15592418D01*
X14077061Y-15592418D02*
X13962776Y-15706704D01*
X13962776Y-15706704D02*
X14086585Y-15706704D01*
X14324680Y-15706704D02*
X14324680Y-15506704D01*
X14410395Y-15706704D02*
X14410395Y-15601942D01*
X14410395Y-15601942D02*
X14400871Y-15582894D01*
X14400871Y-15582894D02*
X14381823Y-15573371D01*
X14381823Y-15573371D02*
X14353252Y-15573371D01*
X14353252Y-15573371D02*
X14334204Y-15582894D01*
X14334204Y-15582894D02*
X14324680Y-15592418D01*
X14534204Y-15706704D02*
X14515157Y-15697180D01*
X14515157Y-15697180D02*
X14505633Y-15687656D01*
X14505633Y-15687656D02*
X14496109Y-15668609D01*
X14496109Y-15668609D02*
X14496109Y-15611466D01*
X14496109Y-15611466D02*
X14505633Y-15592418D01*
X14505633Y-15592418D02*
X14515157Y-15582894D01*
X14515157Y-15582894D02*
X14534204Y-15573371D01*
X14534204Y-15573371D02*
X14562776Y-15573371D01*
X14562776Y-15573371D02*
X14581823Y-15582894D01*
X14581823Y-15582894D02*
X14591347Y-15592418D01*
X14591347Y-15592418D02*
X14600871Y-15611466D01*
X14600871Y-15611466D02*
X14600871Y-15668609D01*
X14600871Y-15668609D02*
X14591347Y-15687656D01*
X14591347Y-15687656D02*
X14581823Y-15697180D01*
X14581823Y-15697180D02*
X14562776Y-15706704D01*
X14562776Y-15706704D02*
X14534204Y-15706704D01*
X14715157Y-15706704D02*
X14696109Y-15697180D01*
X14696109Y-15697180D02*
X14686585Y-15678133D01*
X14686585Y-15678133D02*
X14686585Y-15506704D01*
X14867538Y-15697180D02*
X14848490Y-15706704D01*
X14848490Y-15706704D02*
X14810395Y-15706704D01*
X14810395Y-15706704D02*
X14791347Y-15697180D01*
X14791347Y-15697180D02*
X14781823Y-15678133D01*
X14781823Y-15678133D02*
X14781823Y-15601942D01*
X14781823Y-15601942D02*
X14791347Y-15582894D01*
X14791347Y-15582894D02*
X14810395Y-15573371D01*
X14810395Y-15573371D02*
X14848490Y-15573371D01*
X14848490Y-15573371D02*
X14867538Y-15582894D01*
X14867538Y-15582894D02*
X14877061Y-15601942D01*
X14877061Y-15601942D02*
X14877061Y-15620990D01*
X14877061Y-15620990D02*
X14781823Y-15640037D01*
X14953252Y-15697180D02*
X14972299Y-15706704D01*
X14972299Y-15706704D02*
X15010395Y-15706704D01*
X15010395Y-15706704D02*
X15029442Y-15697180D01*
X15029442Y-15697180D02*
X15038966Y-15678133D01*
X15038966Y-15678133D02*
X15038966Y-15668609D01*
X15038966Y-15668609D02*
X15029442Y-15649561D01*
X15029442Y-15649561D02*
X15010395Y-15640037D01*
X15010395Y-15640037D02*
X14981823Y-15640037D01*
X14981823Y-15640037D02*
X14962776Y-15630514D01*
X14962776Y-15630514D02*
X14953252Y-15611466D01*
X14953252Y-15611466D02*
X14953252Y-15601942D01*
X14953252Y-15601942D02*
X14962776Y-15582894D01*
X14962776Y-15582894D02*
X14981823Y-15573371D01*
X14981823Y-15573371D02*
X15010395Y-15573371D01*
X15010395Y-15573371D02*
X15029442Y-15582894D01*
X15105633Y-15782894D02*
X15115157Y-15773371D01*
X15115157Y-15773371D02*
X15134204Y-15744799D01*
X15134204Y-15744799D02*
X15143728Y-15725752D01*
X15143728Y-15725752D02*
X15153252Y-15697180D01*
X15153252Y-15697180D02*
X15162776Y-15649561D01*
X15162776Y-15649561D02*
X15162776Y-15611466D01*
X15162776Y-15611466D02*
X15153252Y-15563847D01*
X15153252Y-15563847D02*
X15143728Y-15535275D01*
X15143728Y-15535275D02*
X15134204Y-15516228D01*
X15134204Y-15516228D02*
X15115157Y-15487656D01*
X15115157Y-15487656D02*
X15105633Y-15478133D01*
D14*
X10190570Y-15809220D02*
X10330570Y-15949220D01*
X10330570Y-15809220D02*
X10190570Y-15949220D01*
X10260570Y-15809220D02*
X10260570Y-15949220D01*
X10190570Y-15879220D02*
X10330570Y-15879220D01*
D12*
X10696109Y-15970704D02*
X10581823Y-15970704D01*
X10638966Y-15970704D02*
X10638966Y-15770704D01*
X10638966Y-15770704D02*
X10619918Y-15799275D01*
X10619918Y-15799275D02*
X10600871Y-15818323D01*
X10600871Y-15818323D02*
X10581823Y-15827847D01*
X10781823Y-15951656D02*
X10791347Y-15961180D01*
X10791347Y-15961180D02*
X10781823Y-15970704D01*
X10781823Y-15970704D02*
X10772299Y-15961180D01*
X10772299Y-15961180D02*
X10781823Y-15951656D01*
X10781823Y-15951656D02*
X10781823Y-15970704D01*
X10962775Y-15837371D02*
X10962775Y-15970704D01*
X10915156Y-15761180D02*
X10867537Y-15904037D01*
X10867537Y-15904037D02*
X10991347Y-15904037D01*
X11105632Y-15770704D02*
X11124680Y-15770704D01*
X11124680Y-15770704D02*
X11143728Y-15780228D01*
X11143728Y-15780228D02*
X11153252Y-15789752D01*
X11153252Y-15789752D02*
X11162775Y-15808799D01*
X11162775Y-15808799D02*
X11172299Y-15846894D01*
X11172299Y-15846894D02*
X11172299Y-15894514D01*
X11172299Y-15894514D02*
X11162775Y-15932609D01*
X11162775Y-15932609D02*
X11153252Y-15951656D01*
X11153252Y-15951656D02*
X11143728Y-15961180D01*
X11143728Y-15961180D02*
X11124680Y-15970704D01*
X11124680Y-15970704D02*
X11105632Y-15970704D01*
X11105632Y-15970704D02*
X11086585Y-15961180D01*
X11086585Y-15961180D02*
X11077061Y-15951656D01*
X11077061Y-15951656D02*
X11067537Y-15932609D01*
X11067537Y-15932609D02*
X11058013Y-15894514D01*
X11058013Y-15894514D02*
X11058013Y-15846894D01*
X11058013Y-15846894D02*
X11067537Y-15808799D01*
X11067537Y-15808799D02*
X11077061Y-15789752D01*
X11077061Y-15789752D02*
X11086585Y-15780228D01*
X11086585Y-15780228D02*
X11105632Y-15770704D01*
X11296109Y-15770704D02*
X11315156Y-15770704D01*
X11315156Y-15770704D02*
X11334204Y-15780228D01*
X11334204Y-15780228D02*
X11343728Y-15789752D01*
X11343728Y-15789752D02*
X11353251Y-15808799D01*
X11353251Y-15808799D02*
X11362775Y-15846894D01*
X11362775Y-15846894D02*
X11362775Y-15894514D01*
X11362775Y-15894514D02*
X11353251Y-15932609D01*
X11353251Y-15932609D02*
X11343728Y-15951656D01*
X11343728Y-15951656D02*
X11334204Y-15961180D01*
X11334204Y-15961180D02*
X11315156Y-15970704D01*
X11315156Y-15970704D02*
X11296109Y-15970704D01*
X11296109Y-15970704D02*
X11277061Y-15961180D01*
X11277061Y-15961180D02*
X11267537Y-15951656D01*
X11267537Y-15951656D02*
X11258013Y-15932609D01*
X11258013Y-15932609D02*
X11248490Y-15894514D01*
X11248490Y-15894514D02*
X11248490Y-15846894D01*
X11248490Y-15846894D02*
X11258013Y-15808799D01*
X11258013Y-15808799D02*
X11267537Y-15789752D01*
X11267537Y-15789752D02*
X11277061Y-15780228D01*
X11277061Y-15780228D02*
X11296109Y-15770704D01*
X11448490Y-15970704D02*
X11448490Y-15837371D01*
X11448490Y-15856418D02*
X11458013Y-15846894D01*
X11458013Y-15846894D02*
X11477061Y-15837371D01*
X11477061Y-15837371D02*
X11505632Y-15837371D01*
X11505632Y-15837371D02*
X11524680Y-15846894D01*
X11524680Y-15846894D02*
X11534204Y-15865942D01*
X11534204Y-15865942D02*
X11534204Y-15970704D01*
X11534204Y-15865942D02*
X11543728Y-15846894D01*
X11543728Y-15846894D02*
X11562775Y-15837371D01*
X11562775Y-15837371D02*
X11591347Y-15837371D01*
X11591347Y-15837371D02*
X11610394Y-15846894D01*
X11610394Y-15846894D02*
X11619918Y-15865942D01*
X11619918Y-15865942D02*
X11619918Y-15970704D01*
X11715156Y-15970704D02*
X11715156Y-15837371D01*
X11715156Y-15856418D02*
X11724680Y-15846894D01*
X11724680Y-15846894D02*
X11743728Y-15837371D01*
X11743728Y-15837371D02*
X11772299Y-15837371D01*
X11772299Y-15837371D02*
X11791347Y-15846894D01*
X11791347Y-15846894D02*
X11800871Y-15865942D01*
X11800871Y-15865942D02*
X11800871Y-15970704D01*
X11800871Y-15865942D02*
X11810394Y-15846894D01*
X11810394Y-15846894D02*
X11829442Y-15837371D01*
X11829442Y-15837371D02*
X11858013Y-15837371D01*
X11858013Y-15837371D02*
X11877061Y-15846894D01*
X11877061Y-15846894D02*
X11886585Y-15865942D01*
X11886585Y-15865942D02*
X11886585Y-15970704D01*
X12277061Y-15761180D02*
X12105633Y-16018323D01*
X12534204Y-15770704D02*
X12553252Y-15770704D01*
X12553252Y-15770704D02*
X12572299Y-15780228D01*
X12572299Y-15780228D02*
X12581823Y-15789752D01*
X12581823Y-15789752D02*
X12591347Y-15808799D01*
X12591347Y-15808799D02*
X12600871Y-15846894D01*
X12600871Y-15846894D02*
X12600871Y-15894514D01*
X12600871Y-15894514D02*
X12591347Y-15932609D01*
X12591347Y-15932609D02*
X12581823Y-15951656D01*
X12581823Y-15951656D02*
X12572299Y-15961180D01*
X12572299Y-15961180D02*
X12553252Y-15970704D01*
X12553252Y-15970704D02*
X12534204Y-15970704D01*
X12534204Y-15970704D02*
X12515156Y-15961180D01*
X12515156Y-15961180D02*
X12505633Y-15951656D01*
X12505633Y-15951656D02*
X12496109Y-15932609D01*
X12496109Y-15932609D02*
X12486585Y-15894514D01*
X12486585Y-15894514D02*
X12486585Y-15846894D01*
X12486585Y-15846894D02*
X12496109Y-15808799D01*
X12496109Y-15808799D02*
X12505633Y-15789752D01*
X12505633Y-15789752D02*
X12515156Y-15780228D01*
X12515156Y-15780228D02*
X12534204Y-15770704D01*
X12686585Y-15951656D02*
X12696109Y-15961180D01*
X12696109Y-15961180D02*
X12686585Y-15970704D01*
X12686585Y-15970704D02*
X12677061Y-15961180D01*
X12677061Y-15961180D02*
X12686585Y-15951656D01*
X12686585Y-15951656D02*
X12686585Y-15970704D01*
X12819918Y-15770704D02*
X12838966Y-15770704D01*
X12838966Y-15770704D02*
X12858014Y-15780228D01*
X12858014Y-15780228D02*
X12867537Y-15789752D01*
X12867537Y-15789752D02*
X12877061Y-15808799D01*
X12877061Y-15808799D02*
X12886585Y-15846894D01*
X12886585Y-15846894D02*
X12886585Y-15894514D01*
X12886585Y-15894514D02*
X12877061Y-15932609D01*
X12877061Y-15932609D02*
X12867537Y-15951656D01*
X12867537Y-15951656D02*
X12858014Y-15961180D01*
X12858014Y-15961180D02*
X12838966Y-15970704D01*
X12838966Y-15970704D02*
X12819918Y-15970704D01*
X12819918Y-15970704D02*
X12800871Y-15961180D01*
X12800871Y-15961180D02*
X12791347Y-15951656D01*
X12791347Y-15951656D02*
X12781823Y-15932609D01*
X12781823Y-15932609D02*
X12772299Y-15894514D01*
X12772299Y-15894514D02*
X12772299Y-15846894D01*
X12772299Y-15846894D02*
X12781823Y-15808799D01*
X12781823Y-15808799D02*
X12791347Y-15789752D01*
X12791347Y-15789752D02*
X12800871Y-15780228D01*
X12800871Y-15780228D02*
X12819918Y-15770704D01*
X13067537Y-15770704D02*
X12972299Y-15770704D01*
X12972299Y-15770704D02*
X12962775Y-15865942D01*
X12962775Y-15865942D02*
X12972299Y-15856418D01*
X12972299Y-15856418D02*
X12991347Y-15846894D01*
X12991347Y-15846894D02*
X13038966Y-15846894D01*
X13038966Y-15846894D02*
X13058014Y-15856418D01*
X13058014Y-15856418D02*
X13067537Y-15865942D01*
X13067537Y-15865942D02*
X13077061Y-15884990D01*
X13077061Y-15884990D02*
X13077061Y-15932609D01*
X13077061Y-15932609D02*
X13067537Y-15951656D01*
X13067537Y-15951656D02*
X13058014Y-15961180D01*
X13058014Y-15961180D02*
X13038966Y-15970704D01*
X13038966Y-15970704D02*
X12991347Y-15970704D01*
X12991347Y-15970704D02*
X12972299Y-15961180D01*
X12972299Y-15961180D02*
X12962775Y-15951656D01*
X13258014Y-15770704D02*
X13162775Y-15770704D01*
X13162775Y-15770704D02*
X13153252Y-15865942D01*
X13153252Y-15865942D02*
X13162775Y-15856418D01*
X13162775Y-15856418D02*
X13181823Y-15846894D01*
X13181823Y-15846894D02*
X13229442Y-15846894D01*
X13229442Y-15846894D02*
X13248490Y-15856418D01*
X13248490Y-15856418D02*
X13258014Y-15865942D01*
X13258014Y-15865942D02*
X13267537Y-15884990D01*
X13267537Y-15884990D02*
X13267537Y-15932609D01*
X13267537Y-15932609D02*
X13258014Y-15951656D01*
X13258014Y-15951656D02*
X13248490Y-15961180D01*
X13248490Y-15961180D02*
X13229442Y-15970704D01*
X13229442Y-15970704D02*
X13181823Y-15970704D01*
X13181823Y-15970704D02*
X13162775Y-15961180D01*
X13162775Y-15961180D02*
X13153252Y-15951656D01*
X13458014Y-15970704D02*
X13343728Y-15970704D01*
X13400871Y-15970704D02*
X13400871Y-15770704D01*
X13400871Y-15770704D02*
X13381823Y-15799275D01*
X13381823Y-15799275D02*
X13362775Y-15818323D01*
X13362775Y-15818323D02*
X13343728Y-15827847D01*
X13534204Y-15770704D02*
X13534204Y-15808799D01*
X13610395Y-15770704D02*
X13610395Y-15808799D01*
X13905633Y-16046894D02*
X13896109Y-16037371D01*
X13896109Y-16037371D02*
X13877061Y-16008799D01*
X13877061Y-16008799D02*
X13867537Y-15989752D01*
X13867537Y-15989752D02*
X13858014Y-15961180D01*
X13858014Y-15961180D02*
X13848490Y-15913561D01*
X13848490Y-15913561D02*
X13848490Y-15875466D01*
X13848490Y-15875466D02*
X13858014Y-15827847D01*
X13858014Y-15827847D02*
X13867537Y-15799275D01*
X13867537Y-15799275D02*
X13877061Y-15780228D01*
X13877061Y-15780228D02*
X13896109Y-15751656D01*
X13896109Y-15751656D02*
X13905633Y-15742133D01*
X14010395Y-15856418D02*
X13991347Y-15846894D01*
X13991347Y-15846894D02*
X13981823Y-15837371D01*
X13981823Y-15837371D02*
X13972299Y-15818323D01*
X13972299Y-15818323D02*
X13972299Y-15808799D01*
X13972299Y-15808799D02*
X13981823Y-15789752D01*
X13981823Y-15789752D02*
X13991347Y-15780228D01*
X13991347Y-15780228D02*
X14010395Y-15770704D01*
X14010395Y-15770704D02*
X14048490Y-15770704D01*
X14048490Y-15770704D02*
X14067537Y-15780228D01*
X14067537Y-15780228D02*
X14077061Y-15789752D01*
X14077061Y-15789752D02*
X14086585Y-15808799D01*
X14086585Y-15808799D02*
X14086585Y-15818323D01*
X14086585Y-15818323D02*
X14077061Y-15837371D01*
X14077061Y-15837371D02*
X14067537Y-15846894D01*
X14067537Y-15846894D02*
X14048490Y-15856418D01*
X14048490Y-15856418D02*
X14010395Y-15856418D01*
X14010395Y-15856418D02*
X13991347Y-15865942D01*
X13991347Y-15865942D02*
X13981823Y-15875466D01*
X13981823Y-15875466D02*
X13972299Y-15894514D01*
X13972299Y-15894514D02*
X13972299Y-15932609D01*
X13972299Y-15932609D02*
X13981823Y-15951656D01*
X13981823Y-15951656D02*
X13991347Y-15961180D01*
X13991347Y-15961180D02*
X14010395Y-15970704D01*
X14010395Y-15970704D02*
X14048490Y-15970704D01*
X14048490Y-15970704D02*
X14067537Y-15961180D01*
X14067537Y-15961180D02*
X14077061Y-15951656D01*
X14077061Y-15951656D02*
X14086585Y-15932609D01*
X14086585Y-15932609D02*
X14086585Y-15894514D01*
X14086585Y-15894514D02*
X14077061Y-15875466D01*
X14077061Y-15875466D02*
X14067537Y-15865942D01*
X14067537Y-15865942D02*
X14048490Y-15856418D01*
X14324680Y-15970704D02*
X14324680Y-15770704D01*
X14410395Y-15970704D02*
X14410395Y-15865942D01*
X14410395Y-15865942D02*
X14400871Y-15846894D01*
X14400871Y-15846894D02*
X14381823Y-15837371D01*
X14381823Y-15837371D02*
X14353252Y-15837371D01*
X14353252Y-15837371D02*
X14334204Y-15846894D01*
X14334204Y-15846894D02*
X14324680Y-15856418D01*
X14534204Y-15970704D02*
X14515157Y-15961180D01*
X14515157Y-15961180D02*
X14505633Y-15951656D01*
X14505633Y-15951656D02*
X14496109Y-15932609D01*
X14496109Y-15932609D02*
X14496109Y-15875466D01*
X14496109Y-15875466D02*
X14505633Y-15856418D01*
X14505633Y-15856418D02*
X14515157Y-15846894D01*
X14515157Y-15846894D02*
X14534204Y-15837371D01*
X14534204Y-15837371D02*
X14562776Y-15837371D01*
X14562776Y-15837371D02*
X14581823Y-15846894D01*
X14581823Y-15846894D02*
X14591347Y-15856418D01*
X14591347Y-15856418D02*
X14600871Y-15875466D01*
X14600871Y-15875466D02*
X14600871Y-15932609D01*
X14600871Y-15932609D02*
X14591347Y-15951656D01*
X14591347Y-15951656D02*
X14581823Y-15961180D01*
X14581823Y-15961180D02*
X14562776Y-15970704D01*
X14562776Y-15970704D02*
X14534204Y-15970704D01*
X14715157Y-15970704D02*
X14696109Y-15961180D01*
X14696109Y-15961180D02*
X14686585Y-15942133D01*
X14686585Y-15942133D02*
X14686585Y-15770704D01*
X14867538Y-15961180D02*
X14848490Y-15970704D01*
X14848490Y-15970704D02*
X14810395Y-15970704D01*
X14810395Y-15970704D02*
X14791347Y-15961180D01*
X14791347Y-15961180D02*
X14781823Y-15942133D01*
X14781823Y-15942133D02*
X14781823Y-15865942D01*
X14781823Y-15865942D02*
X14791347Y-15846894D01*
X14791347Y-15846894D02*
X14810395Y-15837371D01*
X14810395Y-15837371D02*
X14848490Y-15837371D01*
X14848490Y-15837371D02*
X14867538Y-15846894D01*
X14867538Y-15846894D02*
X14877061Y-15865942D01*
X14877061Y-15865942D02*
X14877061Y-15884990D01*
X14877061Y-15884990D02*
X14781823Y-15904037D01*
X14953252Y-15961180D02*
X14972299Y-15970704D01*
X14972299Y-15970704D02*
X15010395Y-15970704D01*
X15010395Y-15970704D02*
X15029442Y-15961180D01*
X15029442Y-15961180D02*
X15038966Y-15942133D01*
X15038966Y-15942133D02*
X15038966Y-15932609D01*
X15038966Y-15932609D02*
X15029442Y-15913561D01*
X15029442Y-15913561D02*
X15010395Y-15904037D01*
X15010395Y-15904037D02*
X14981823Y-15904037D01*
X14981823Y-15904037D02*
X14962776Y-15894514D01*
X14962776Y-15894514D02*
X14953252Y-15875466D01*
X14953252Y-15875466D02*
X14953252Y-15865942D01*
X14953252Y-15865942D02*
X14962776Y-15846894D01*
X14962776Y-15846894D02*
X14981823Y-15837371D01*
X14981823Y-15837371D02*
X15010395Y-15837371D01*
X15010395Y-15837371D02*
X15029442Y-15846894D01*
X15105633Y-16046894D02*
X15115157Y-16037371D01*
X15115157Y-16037371D02*
X15134204Y-16008799D01*
X15134204Y-16008799D02*
X15143728Y-15989752D01*
X15143728Y-15989752D02*
X15153252Y-15961180D01*
X15153252Y-15961180D02*
X15162776Y-15913561D01*
X15162776Y-15913561D02*
X15162776Y-15875466D01*
X15162776Y-15875466D02*
X15153252Y-15827847D01*
X15153252Y-15827847D02*
X15143728Y-15799275D01*
X15143728Y-15799275D02*
X15134204Y-15780228D01*
X15134204Y-15780228D02*
X15115157Y-15751656D01*
X15115157Y-15751656D02*
X15105633Y-15742133D01*
D15*
X10140570Y-16048220D02*
X10330570Y-16238220D01*
X10330570Y-16048220D02*
X10140570Y-16238220D01*
X10302746Y-16210396D02*
X10302746Y-16076044D01*
X10168394Y-16076044D01*
X10168394Y-16210396D01*
X10302746Y-16210396D01*
D12*
X10696109Y-16234704D02*
X10581823Y-16234704D01*
X10638966Y-16234704D02*
X10638966Y-16034704D01*
X10638966Y-16034704D02*
X10619918Y-16063275D01*
X10619918Y-16063275D02*
X10600871Y-16082323D01*
X10600871Y-16082323D02*
X10581823Y-16091847D01*
X10781823Y-16215656D02*
X10791347Y-16225180D01*
X10791347Y-16225180D02*
X10781823Y-16234704D01*
X10781823Y-16234704D02*
X10772299Y-16225180D01*
X10772299Y-16225180D02*
X10781823Y-16215656D01*
X10781823Y-16215656D02*
X10781823Y-16234704D01*
X10886585Y-16234704D02*
X10924680Y-16234704D01*
X10924680Y-16234704D02*
X10943728Y-16225180D01*
X10943728Y-16225180D02*
X10953252Y-16215656D01*
X10953252Y-16215656D02*
X10972299Y-16187085D01*
X10972299Y-16187085D02*
X10981823Y-16148990D01*
X10981823Y-16148990D02*
X10981823Y-16072799D01*
X10981823Y-16072799D02*
X10972299Y-16053752D01*
X10972299Y-16053752D02*
X10962775Y-16044228D01*
X10962775Y-16044228D02*
X10943728Y-16034704D01*
X10943728Y-16034704D02*
X10905632Y-16034704D01*
X10905632Y-16034704D02*
X10886585Y-16044228D01*
X10886585Y-16044228D02*
X10877061Y-16053752D01*
X10877061Y-16053752D02*
X10867537Y-16072799D01*
X10867537Y-16072799D02*
X10867537Y-16120418D01*
X10867537Y-16120418D02*
X10877061Y-16139466D01*
X10877061Y-16139466D02*
X10886585Y-16148990D01*
X10886585Y-16148990D02*
X10905632Y-16158514D01*
X10905632Y-16158514D02*
X10943728Y-16158514D01*
X10943728Y-16158514D02*
X10962775Y-16148990D01*
X10962775Y-16148990D02*
X10972299Y-16139466D01*
X10972299Y-16139466D02*
X10981823Y-16120418D01*
X11105632Y-16034704D02*
X11124680Y-16034704D01*
X11124680Y-16034704D02*
X11143728Y-16044228D01*
X11143728Y-16044228D02*
X11153252Y-16053752D01*
X11153252Y-16053752D02*
X11162775Y-16072799D01*
X11162775Y-16072799D02*
X11172299Y-16110894D01*
X11172299Y-16110894D02*
X11172299Y-16158514D01*
X11172299Y-16158514D02*
X11162775Y-16196609D01*
X11162775Y-16196609D02*
X11153252Y-16215656D01*
X11153252Y-16215656D02*
X11143728Y-16225180D01*
X11143728Y-16225180D02*
X11124680Y-16234704D01*
X11124680Y-16234704D02*
X11105632Y-16234704D01*
X11105632Y-16234704D02*
X11086585Y-16225180D01*
X11086585Y-16225180D02*
X11077061Y-16215656D01*
X11077061Y-16215656D02*
X11067537Y-16196609D01*
X11067537Y-16196609D02*
X11058013Y-16158514D01*
X11058013Y-16158514D02*
X11058013Y-16110894D01*
X11058013Y-16110894D02*
X11067537Y-16072799D01*
X11067537Y-16072799D02*
X11077061Y-16053752D01*
X11077061Y-16053752D02*
X11086585Y-16044228D01*
X11086585Y-16044228D02*
X11105632Y-16034704D01*
X11296109Y-16034704D02*
X11315156Y-16034704D01*
X11315156Y-16034704D02*
X11334204Y-16044228D01*
X11334204Y-16044228D02*
X11343728Y-16053752D01*
X11343728Y-16053752D02*
X11353251Y-16072799D01*
X11353251Y-16072799D02*
X11362775Y-16110894D01*
X11362775Y-16110894D02*
X11362775Y-16158514D01*
X11362775Y-16158514D02*
X11353251Y-16196609D01*
X11353251Y-16196609D02*
X11343728Y-16215656D01*
X11343728Y-16215656D02*
X11334204Y-16225180D01*
X11334204Y-16225180D02*
X11315156Y-16234704D01*
X11315156Y-16234704D02*
X11296109Y-16234704D01*
X11296109Y-16234704D02*
X11277061Y-16225180D01*
X11277061Y-16225180D02*
X11267537Y-16215656D01*
X11267537Y-16215656D02*
X11258013Y-16196609D01*
X11258013Y-16196609D02*
X11248490Y-16158514D01*
X11248490Y-16158514D02*
X11248490Y-16110894D01*
X11248490Y-16110894D02*
X11258013Y-16072799D01*
X11258013Y-16072799D02*
X11267537Y-16053752D01*
X11267537Y-16053752D02*
X11277061Y-16044228D01*
X11277061Y-16044228D02*
X11296109Y-16034704D01*
X11448490Y-16234704D02*
X11448490Y-16101371D01*
X11448490Y-16120418D02*
X11458013Y-16110894D01*
X11458013Y-16110894D02*
X11477061Y-16101371D01*
X11477061Y-16101371D02*
X11505632Y-16101371D01*
X11505632Y-16101371D02*
X11524680Y-16110894D01*
X11524680Y-16110894D02*
X11534204Y-16129942D01*
X11534204Y-16129942D02*
X11534204Y-16234704D01*
X11534204Y-16129942D02*
X11543728Y-16110894D01*
X11543728Y-16110894D02*
X11562775Y-16101371D01*
X11562775Y-16101371D02*
X11591347Y-16101371D01*
X11591347Y-16101371D02*
X11610394Y-16110894D01*
X11610394Y-16110894D02*
X11619918Y-16129942D01*
X11619918Y-16129942D02*
X11619918Y-16234704D01*
X11715156Y-16234704D02*
X11715156Y-16101371D01*
X11715156Y-16120418D02*
X11724680Y-16110894D01*
X11724680Y-16110894D02*
X11743728Y-16101371D01*
X11743728Y-16101371D02*
X11772299Y-16101371D01*
X11772299Y-16101371D02*
X11791347Y-16110894D01*
X11791347Y-16110894D02*
X11800871Y-16129942D01*
X11800871Y-16129942D02*
X11800871Y-16234704D01*
X11800871Y-16129942D02*
X11810394Y-16110894D01*
X11810394Y-16110894D02*
X11829442Y-16101371D01*
X11829442Y-16101371D02*
X11858013Y-16101371D01*
X11858013Y-16101371D02*
X11877061Y-16110894D01*
X11877061Y-16110894D02*
X11886585Y-16129942D01*
X11886585Y-16129942D02*
X11886585Y-16234704D01*
X12277061Y-16025180D02*
X12105633Y-16282323D01*
X12534204Y-16034704D02*
X12553252Y-16034704D01*
X12553252Y-16034704D02*
X12572299Y-16044228D01*
X12572299Y-16044228D02*
X12581823Y-16053752D01*
X12581823Y-16053752D02*
X12591347Y-16072799D01*
X12591347Y-16072799D02*
X12600871Y-16110894D01*
X12600871Y-16110894D02*
X12600871Y-16158514D01*
X12600871Y-16158514D02*
X12591347Y-16196609D01*
X12591347Y-16196609D02*
X12581823Y-16215656D01*
X12581823Y-16215656D02*
X12572299Y-16225180D01*
X12572299Y-16225180D02*
X12553252Y-16234704D01*
X12553252Y-16234704D02*
X12534204Y-16234704D01*
X12534204Y-16234704D02*
X12515156Y-16225180D01*
X12515156Y-16225180D02*
X12505633Y-16215656D01*
X12505633Y-16215656D02*
X12496109Y-16196609D01*
X12496109Y-16196609D02*
X12486585Y-16158514D01*
X12486585Y-16158514D02*
X12486585Y-16110894D01*
X12486585Y-16110894D02*
X12496109Y-16072799D01*
X12496109Y-16072799D02*
X12505633Y-16053752D01*
X12505633Y-16053752D02*
X12515156Y-16044228D01*
X12515156Y-16044228D02*
X12534204Y-16034704D01*
X12686585Y-16215656D02*
X12696109Y-16225180D01*
X12696109Y-16225180D02*
X12686585Y-16234704D01*
X12686585Y-16234704D02*
X12677061Y-16225180D01*
X12677061Y-16225180D02*
X12686585Y-16215656D01*
X12686585Y-16215656D02*
X12686585Y-16234704D01*
X12819918Y-16034704D02*
X12838966Y-16034704D01*
X12838966Y-16034704D02*
X12858014Y-16044228D01*
X12858014Y-16044228D02*
X12867537Y-16053752D01*
X12867537Y-16053752D02*
X12877061Y-16072799D01*
X12877061Y-16072799D02*
X12886585Y-16110894D01*
X12886585Y-16110894D02*
X12886585Y-16158514D01*
X12886585Y-16158514D02*
X12877061Y-16196609D01*
X12877061Y-16196609D02*
X12867537Y-16215656D01*
X12867537Y-16215656D02*
X12858014Y-16225180D01*
X12858014Y-16225180D02*
X12838966Y-16234704D01*
X12838966Y-16234704D02*
X12819918Y-16234704D01*
X12819918Y-16234704D02*
X12800871Y-16225180D01*
X12800871Y-16225180D02*
X12791347Y-16215656D01*
X12791347Y-16215656D02*
X12781823Y-16196609D01*
X12781823Y-16196609D02*
X12772299Y-16158514D01*
X12772299Y-16158514D02*
X12772299Y-16110894D01*
X12772299Y-16110894D02*
X12781823Y-16072799D01*
X12781823Y-16072799D02*
X12791347Y-16053752D01*
X12791347Y-16053752D02*
X12800871Y-16044228D01*
X12800871Y-16044228D02*
X12819918Y-16034704D01*
X12953252Y-16034704D02*
X13086585Y-16034704D01*
X13086585Y-16034704D02*
X13000871Y-16234704D01*
X13248490Y-16101371D02*
X13248490Y-16234704D01*
X13200871Y-16025180D02*
X13153252Y-16168037D01*
X13153252Y-16168037D02*
X13277061Y-16168037D01*
X13381823Y-16120418D02*
X13362775Y-16110894D01*
X13362775Y-16110894D02*
X13353252Y-16101371D01*
X13353252Y-16101371D02*
X13343728Y-16082323D01*
X13343728Y-16082323D02*
X13343728Y-16072799D01*
X13343728Y-16072799D02*
X13353252Y-16053752D01*
X13353252Y-16053752D02*
X13362775Y-16044228D01*
X13362775Y-16044228D02*
X13381823Y-16034704D01*
X13381823Y-16034704D02*
X13419918Y-16034704D01*
X13419918Y-16034704D02*
X13438966Y-16044228D01*
X13438966Y-16044228D02*
X13448490Y-16053752D01*
X13448490Y-16053752D02*
X13458014Y-16072799D01*
X13458014Y-16072799D02*
X13458014Y-16082323D01*
X13458014Y-16082323D02*
X13448490Y-16101371D01*
X13448490Y-16101371D02*
X13438966Y-16110894D01*
X13438966Y-16110894D02*
X13419918Y-16120418D01*
X13419918Y-16120418D02*
X13381823Y-16120418D01*
X13381823Y-16120418D02*
X13362775Y-16129942D01*
X13362775Y-16129942D02*
X13353252Y-16139466D01*
X13353252Y-16139466D02*
X13343728Y-16158514D01*
X13343728Y-16158514D02*
X13343728Y-16196609D01*
X13343728Y-16196609D02*
X13353252Y-16215656D01*
X13353252Y-16215656D02*
X13362775Y-16225180D01*
X13362775Y-16225180D02*
X13381823Y-16234704D01*
X13381823Y-16234704D02*
X13419918Y-16234704D01*
X13419918Y-16234704D02*
X13438966Y-16225180D01*
X13438966Y-16225180D02*
X13448490Y-16215656D01*
X13448490Y-16215656D02*
X13458014Y-16196609D01*
X13458014Y-16196609D02*
X13458014Y-16158514D01*
X13458014Y-16158514D02*
X13448490Y-16139466D01*
X13448490Y-16139466D02*
X13438966Y-16129942D01*
X13438966Y-16129942D02*
X13419918Y-16120418D01*
X13534204Y-16034704D02*
X13534204Y-16072799D01*
X13610395Y-16034704D02*
X13610395Y-16072799D01*
X13905633Y-16310894D02*
X13896109Y-16301371D01*
X13896109Y-16301371D02*
X13877061Y-16272799D01*
X13877061Y-16272799D02*
X13867537Y-16253752D01*
X13867537Y-16253752D02*
X13858014Y-16225180D01*
X13858014Y-16225180D02*
X13848490Y-16177561D01*
X13848490Y-16177561D02*
X13848490Y-16139466D01*
X13848490Y-16139466D02*
X13858014Y-16091847D01*
X13858014Y-16091847D02*
X13867537Y-16063275D01*
X13867537Y-16063275D02*
X13877061Y-16044228D01*
X13877061Y-16044228D02*
X13896109Y-16015656D01*
X13896109Y-16015656D02*
X13905633Y-16006133D01*
X13972299Y-16053752D02*
X13981823Y-16044228D01*
X13981823Y-16044228D02*
X14000871Y-16034704D01*
X14000871Y-16034704D02*
X14048490Y-16034704D01*
X14048490Y-16034704D02*
X14067537Y-16044228D01*
X14067537Y-16044228D02*
X14077061Y-16053752D01*
X14077061Y-16053752D02*
X14086585Y-16072799D01*
X14086585Y-16072799D02*
X14086585Y-16091847D01*
X14086585Y-16091847D02*
X14077061Y-16120418D01*
X14077061Y-16120418D02*
X13962776Y-16234704D01*
X13962776Y-16234704D02*
X14086585Y-16234704D01*
X14324680Y-16234704D02*
X14324680Y-16034704D01*
X14410395Y-16234704D02*
X14410395Y-16129942D01*
X14410395Y-16129942D02*
X14400871Y-16110894D01*
X14400871Y-16110894D02*
X14381823Y-16101371D01*
X14381823Y-16101371D02*
X14353252Y-16101371D01*
X14353252Y-16101371D02*
X14334204Y-16110894D01*
X14334204Y-16110894D02*
X14324680Y-16120418D01*
X14534204Y-16234704D02*
X14515157Y-16225180D01*
X14515157Y-16225180D02*
X14505633Y-16215656D01*
X14505633Y-16215656D02*
X14496109Y-16196609D01*
X14496109Y-16196609D02*
X14496109Y-16139466D01*
X14496109Y-16139466D02*
X14505633Y-16120418D01*
X14505633Y-16120418D02*
X14515157Y-16110894D01*
X14515157Y-16110894D02*
X14534204Y-16101371D01*
X14534204Y-16101371D02*
X14562776Y-16101371D01*
X14562776Y-16101371D02*
X14581823Y-16110894D01*
X14581823Y-16110894D02*
X14591347Y-16120418D01*
X14591347Y-16120418D02*
X14600871Y-16139466D01*
X14600871Y-16139466D02*
X14600871Y-16196609D01*
X14600871Y-16196609D02*
X14591347Y-16215656D01*
X14591347Y-16215656D02*
X14581823Y-16225180D01*
X14581823Y-16225180D02*
X14562776Y-16234704D01*
X14562776Y-16234704D02*
X14534204Y-16234704D01*
X14715157Y-16234704D02*
X14696109Y-16225180D01*
X14696109Y-16225180D02*
X14686585Y-16206133D01*
X14686585Y-16206133D02*
X14686585Y-16034704D01*
X14867538Y-16225180D02*
X14848490Y-16234704D01*
X14848490Y-16234704D02*
X14810395Y-16234704D01*
X14810395Y-16234704D02*
X14791347Y-16225180D01*
X14791347Y-16225180D02*
X14781823Y-16206133D01*
X14781823Y-16206133D02*
X14781823Y-16129942D01*
X14781823Y-16129942D02*
X14791347Y-16110894D01*
X14791347Y-16110894D02*
X14810395Y-16101371D01*
X14810395Y-16101371D02*
X14848490Y-16101371D01*
X14848490Y-16101371D02*
X14867538Y-16110894D01*
X14867538Y-16110894D02*
X14877061Y-16129942D01*
X14877061Y-16129942D02*
X14877061Y-16148990D01*
X14877061Y-16148990D02*
X14781823Y-16168037D01*
X14953252Y-16225180D02*
X14972299Y-16234704D01*
X14972299Y-16234704D02*
X15010395Y-16234704D01*
X15010395Y-16234704D02*
X15029442Y-16225180D01*
X15029442Y-16225180D02*
X15038966Y-16206133D01*
X15038966Y-16206133D02*
X15038966Y-16196609D01*
X15038966Y-16196609D02*
X15029442Y-16177561D01*
X15029442Y-16177561D02*
X15010395Y-16168037D01*
X15010395Y-16168037D02*
X14981823Y-16168037D01*
X14981823Y-16168037D02*
X14962776Y-16158514D01*
X14962776Y-16158514D02*
X14953252Y-16139466D01*
X14953252Y-16139466D02*
X14953252Y-16129942D01*
X14953252Y-16129942D02*
X14962776Y-16110894D01*
X14962776Y-16110894D02*
X14981823Y-16101371D01*
X14981823Y-16101371D02*
X15010395Y-16101371D01*
X15010395Y-16101371D02*
X15029442Y-16110894D01*
X15105633Y-16310894D02*
X15115157Y-16301371D01*
X15115157Y-16301371D02*
X15134204Y-16272799D01*
X15134204Y-16272799D02*
X15143728Y-16253752D01*
X15143728Y-16253752D02*
X15153252Y-16225180D01*
X15153252Y-16225180D02*
X15162776Y-16177561D01*
X15162776Y-16177561D02*
X15162776Y-16139466D01*
X15162776Y-16139466D02*
X15153252Y-16091847D01*
X15153252Y-16091847D02*
X15143728Y-16063275D01*
X15143728Y-16063275D02*
X15134204Y-16044228D01*
X15134204Y-16044228D02*
X15115157Y-16015656D01*
X15115157Y-16015656D02*
X15105633Y-16006133D01*
X10130570Y-16353220D02*
X10330570Y-16553220D01*
X10330570Y-16353220D02*
X10130570Y-16553220D01*
X10230570Y-16553220D02*
X10330570Y-16453220D01*
X10230570Y-16353220D01*
X10130570Y-16453220D01*
X10230570Y-16553220D01*
X10581823Y-16363752D02*
X10591347Y-16354228D01*
X10591347Y-16354228D02*
X10610394Y-16344704D01*
X10610394Y-16344704D02*
X10658013Y-16344704D01*
X10658013Y-16344704D02*
X10677061Y-16354228D01*
X10677061Y-16354228D02*
X10686585Y-16363752D01*
X10686585Y-16363752D02*
X10696109Y-16382799D01*
X10696109Y-16382799D02*
X10696109Y-16401847D01*
X10696109Y-16401847D02*
X10686585Y-16430418D01*
X10686585Y-16430418D02*
X10572299Y-16544704D01*
X10572299Y-16544704D02*
X10696109Y-16544704D01*
X10781823Y-16525656D02*
X10791347Y-16535180D01*
X10791347Y-16535180D02*
X10781823Y-16544704D01*
X10781823Y-16544704D02*
X10772299Y-16535180D01*
X10772299Y-16535180D02*
X10781823Y-16525656D01*
X10781823Y-16525656D02*
X10781823Y-16544704D01*
X10915156Y-16344704D02*
X10934204Y-16344704D01*
X10934204Y-16344704D02*
X10953252Y-16354228D01*
X10953252Y-16354228D02*
X10962775Y-16363752D01*
X10962775Y-16363752D02*
X10972299Y-16382799D01*
X10972299Y-16382799D02*
X10981823Y-16420894D01*
X10981823Y-16420894D02*
X10981823Y-16468514D01*
X10981823Y-16468514D02*
X10972299Y-16506609D01*
X10972299Y-16506609D02*
X10962775Y-16525656D01*
X10962775Y-16525656D02*
X10953252Y-16535180D01*
X10953252Y-16535180D02*
X10934204Y-16544704D01*
X10934204Y-16544704D02*
X10915156Y-16544704D01*
X10915156Y-16544704D02*
X10896109Y-16535180D01*
X10896109Y-16535180D02*
X10886585Y-16525656D01*
X10886585Y-16525656D02*
X10877061Y-16506609D01*
X10877061Y-16506609D02*
X10867537Y-16468514D01*
X10867537Y-16468514D02*
X10867537Y-16420894D01*
X10867537Y-16420894D02*
X10877061Y-16382799D01*
X10877061Y-16382799D02*
X10886585Y-16363752D01*
X10886585Y-16363752D02*
X10896109Y-16354228D01*
X10896109Y-16354228D02*
X10915156Y-16344704D01*
X11105632Y-16344704D02*
X11124680Y-16344704D01*
X11124680Y-16344704D02*
X11143728Y-16354228D01*
X11143728Y-16354228D02*
X11153252Y-16363752D01*
X11153252Y-16363752D02*
X11162775Y-16382799D01*
X11162775Y-16382799D02*
X11172299Y-16420894D01*
X11172299Y-16420894D02*
X11172299Y-16468514D01*
X11172299Y-16468514D02*
X11162775Y-16506609D01*
X11162775Y-16506609D02*
X11153252Y-16525656D01*
X11153252Y-16525656D02*
X11143728Y-16535180D01*
X11143728Y-16535180D02*
X11124680Y-16544704D01*
X11124680Y-16544704D02*
X11105632Y-16544704D01*
X11105632Y-16544704D02*
X11086585Y-16535180D01*
X11086585Y-16535180D02*
X11077061Y-16525656D01*
X11077061Y-16525656D02*
X11067537Y-16506609D01*
X11067537Y-16506609D02*
X11058013Y-16468514D01*
X11058013Y-16468514D02*
X11058013Y-16420894D01*
X11058013Y-16420894D02*
X11067537Y-16382799D01*
X11067537Y-16382799D02*
X11077061Y-16363752D01*
X11077061Y-16363752D02*
X11086585Y-16354228D01*
X11086585Y-16354228D02*
X11105632Y-16344704D01*
X11296109Y-16344704D02*
X11315156Y-16344704D01*
X11315156Y-16344704D02*
X11334204Y-16354228D01*
X11334204Y-16354228D02*
X11343728Y-16363752D01*
X11343728Y-16363752D02*
X11353251Y-16382799D01*
X11353251Y-16382799D02*
X11362775Y-16420894D01*
X11362775Y-16420894D02*
X11362775Y-16468514D01*
X11362775Y-16468514D02*
X11353251Y-16506609D01*
X11353251Y-16506609D02*
X11343728Y-16525656D01*
X11343728Y-16525656D02*
X11334204Y-16535180D01*
X11334204Y-16535180D02*
X11315156Y-16544704D01*
X11315156Y-16544704D02*
X11296109Y-16544704D01*
X11296109Y-16544704D02*
X11277061Y-16535180D01*
X11277061Y-16535180D02*
X11267537Y-16525656D01*
X11267537Y-16525656D02*
X11258013Y-16506609D01*
X11258013Y-16506609D02*
X11248490Y-16468514D01*
X11248490Y-16468514D02*
X11248490Y-16420894D01*
X11248490Y-16420894D02*
X11258013Y-16382799D01*
X11258013Y-16382799D02*
X11267537Y-16363752D01*
X11267537Y-16363752D02*
X11277061Y-16354228D01*
X11277061Y-16354228D02*
X11296109Y-16344704D01*
X11448490Y-16544704D02*
X11448490Y-16411371D01*
X11448490Y-16430418D02*
X11458013Y-16420894D01*
X11458013Y-16420894D02*
X11477061Y-16411371D01*
X11477061Y-16411371D02*
X11505632Y-16411371D01*
X11505632Y-16411371D02*
X11524680Y-16420894D01*
X11524680Y-16420894D02*
X11534204Y-16439942D01*
X11534204Y-16439942D02*
X11534204Y-16544704D01*
X11534204Y-16439942D02*
X11543728Y-16420894D01*
X11543728Y-16420894D02*
X11562775Y-16411371D01*
X11562775Y-16411371D02*
X11591347Y-16411371D01*
X11591347Y-16411371D02*
X11610394Y-16420894D01*
X11610394Y-16420894D02*
X11619918Y-16439942D01*
X11619918Y-16439942D02*
X11619918Y-16544704D01*
X11715156Y-16544704D02*
X11715156Y-16411371D01*
X11715156Y-16430418D02*
X11724680Y-16420894D01*
X11724680Y-16420894D02*
X11743728Y-16411371D01*
X11743728Y-16411371D02*
X11772299Y-16411371D01*
X11772299Y-16411371D02*
X11791347Y-16420894D01*
X11791347Y-16420894D02*
X11800871Y-16439942D01*
X11800871Y-16439942D02*
X11800871Y-16544704D01*
X11800871Y-16439942D02*
X11810394Y-16420894D01*
X11810394Y-16420894D02*
X11829442Y-16411371D01*
X11829442Y-16411371D02*
X11858013Y-16411371D01*
X11858013Y-16411371D02*
X11877061Y-16420894D01*
X11877061Y-16420894D02*
X11886585Y-16439942D01*
X11886585Y-16439942D02*
X11886585Y-16544704D01*
X12277061Y-16335180D02*
X12105633Y-16592323D01*
X12534204Y-16344704D02*
X12553252Y-16344704D01*
X12553252Y-16344704D02*
X12572299Y-16354228D01*
X12572299Y-16354228D02*
X12581823Y-16363752D01*
X12581823Y-16363752D02*
X12591347Y-16382799D01*
X12591347Y-16382799D02*
X12600871Y-16420894D01*
X12600871Y-16420894D02*
X12600871Y-16468514D01*
X12600871Y-16468514D02*
X12591347Y-16506609D01*
X12591347Y-16506609D02*
X12581823Y-16525656D01*
X12581823Y-16525656D02*
X12572299Y-16535180D01*
X12572299Y-16535180D02*
X12553252Y-16544704D01*
X12553252Y-16544704D02*
X12534204Y-16544704D01*
X12534204Y-16544704D02*
X12515156Y-16535180D01*
X12515156Y-16535180D02*
X12505633Y-16525656D01*
X12505633Y-16525656D02*
X12496109Y-16506609D01*
X12496109Y-16506609D02*
X12486585Y-16468514D01*
X12486585Y-16468514D02*
X12486585Y-16420894D01*
X12486585Y-16420894D02*
X12496109Y-16382799D01*
X12496109Y-16382799D02*
X12505633Y-16363752D01*
X12505633Y-16363752D02*
X12515156Y-16354228D01*
X12515156Y-16354228D02*
X12534204Y-16344704D01*
X12686585Y-16525656D02*
X12696109Y-16535180D01*
X12696109Y-16535180D02*
X12686585Y-16544704D01*
X12686585Y-16544704D02*
X12677061Y-16535180D01*
X12677061Y-16535180D02*
X12686585Y-16525656D01*
X12686585Y-16525656D02*
X12686585Y-16544704D01*
X12819918Y-16344704D02*
X12838966Y-16344704D01*
X12838966Y-16344704D02*
X12858014Y-16354228D01*
X12858014Y-16354228D02*
X12867537Y-16363752D01*
X12867537Y-16363752D02*
X12877061Y-16382799D01*
X12877061Y-16382799D02*
X12886585Y-16420894D01*
X12886585Y-16420894D02*
X12886585Y-16468514D01*
X12886585Y-16468514D02*
X12877061Y-16506609D01*
X12877061Y-16506609D02*
X12867537Y-16525656D01*
X12867537Y-16525656D02*
X12858014Y-16535180D01*
X12858014Y-16535180D02*
X12838966Y-16544704D01*
X12838966Y-16544704D02*
X12819918Y-16544704D01*
X12819918Y-16544704D02*
X12800871Y-16535180D01*
X12800871Y-16535180D02*
X12791347Y-16525656D01*
X12791347Y-16525656D02*
X12781823Y-16506609D01*
X12781823Y-16506609D02*
X12772299Y-16468514D01*
X12772299Y-16468514D02*
X12772299Y-16420894D01*
X12772299Y-16420894D02*
X12781823Y-16382799D01*
X12781823Y-16382799D02*
X12791347Y-16363752D01*
X12791347Y-16363752D02*
X12800871Y-16354228D01*
X12800871Y-16354228D02*
X12819918Y-16344704D01*
X12953252Y-16344704D02*
X13086585Y-16344704D01*
X13086585Y-16344704D02*
X13000871Y-16544704D01*
X13191347Y-16430418D02*
X13172299Y-16420894D01*
X13172299Y-16420894D02*
X13162775Y-16411371D01*
X13162775Y-16411371D02*
X13153252Y-16392323D01*
X13153252Y-16392323D02*
X13153252Y-16382799D01*
X13153252Y-16382799D02*
X13162775Y-16363752D01*
X13162775Y-16363752D02*
X13172299Y-16354228D01*
X13172299Y-16354228D02*
X13191347Y-16344704D01*
X13191347Y-16344704D02*
X13229442Y-16344704D01*
X13229442Y-16344704D02*
X13248490Y-16354228D01*
X13248490Y-16354228D02*
X13258014Y-16363752D01*
X13258014Y-16363752D02*
X13267537Y-16382799D01*
X13267537Y-16382799D02*
X13267537Y-16392323D01*
X13267537Y-16392323D02*
X13258014Y-16411371D01*
X13258014Y-16411371D02*
X13248490Y-16420894D01*
X13248490Y-16420894D02*
X13229442Y-16430418D01*
X13229442Y-16430418D02*
X13191347Y-16430418D01*
X13191347Y-16430418D02*
X13172299Y-16439942D01*
X13172299Y-16439942D02*
X13162775Y-16449466D01*
X13162775Y-16449466D02*
X13153252Y-16468514D01*
X13153252Y-16468514D02*
X13153252Y-16506609D01*
X13153252Y-16506609D02*
X13162775Y-16525656D01*
X13162775Y-16525656D02*
X13172299Y-16535180D01*
X13172299Y-16535180D02*
X13191347Y-16544704D01*
X13191347Y-16544704D02*
X13229442Y-16544704D01*
X13229442Y-16544704D02*
X13248490Y-16535180D01*
X13248490Y-16535180D02*
X13258014Y-16525656D01*
X13258014Y-16525656D02*
X13267537Y-16506609D01*
X13267537Y-16506609D02*
X13267537Y-16468514D01*
X13267537Y-16468514D02*
X13258014Y-16449466D01*
X13258014Y-16449466D02*
X13248490Y-16439942D01*
X13248490Y-16439942D02*
X13229442Y-16430418D01*
X13334204Y-16344704D02*
X13467537Y-16344704D01*
X13467537Y-16344704D02*
X13381823Y-16544704D01*
X13534204Y-16344704D02*
X13534204Y-16382799D01*
X13610395Y-16344704D02*
X13610395Y-16382799D01*
X13905633Y-16620894D02*
X13896109Y-16611371D01*
X13896109Y-16611371D02*
X13877061Y-16582799D01*
X13877061Y-16582799D02*
X13867537Y-16563752D01*
X13867537Y-16563752D02*
X13858014Y-16535180D01*
X13858014Y-16535180D02*
X13848490Y-16487561D01*
X13848490Y-16487561D02*
X13848490Y-16449466D01*
X13848490Y-16449466D02*
X13858014Y-16401847D01*
X13858014Y-16401847D02*
X13867537Y-16373275D01*
X13867537Y-16373275D02*
X13877061Y-16354228D01*
X13877061Y-16354228D02*
X13896109Y-16325656D01*
X13896109Y-16325656D02*
X13905633Y-16316133D01*
X14067537Y-16411371D02*
X14067537Y-16544704D01*
X14019918Y-16335180D02*
X13972299Y-16478037D01*
X13972299Y-16478037D02*
X14096109Y-16478037D01*
X14324680Y-16544704D02*
X14324680Y-16344704D01*
X14410395Y-16544704D02*
X14410395Y-16439942D01*
X14410395Y-16439942D02*
X14400871Y-16420894D01*
X14400871Y-16420894D02*
X14381823Y-16411371D01*
X14381823Y-16411371D02*
X14353252Y-16411371D01*
X14353252Y-16411371D02*
X14334204Y-16420894D01*
X14334204Y-16420894D02*
X14324680Y-16430418D01*
X14534204Y-16544704D02*
X14515157Y-16535180D01*
X14515157Y-16535180D02*
X14505633Y-16525656D01*
X14505633Y-16525656D02*
X14496109Y-16506609D01*
X14496109Y-16506609D02*
X14496109Y-16449466D01*
X14496109Y-16449466D02*
X14505633Y-16430418D01*
X14505633Y-16430418D02*
X14515157Y-16420894D01*
X14515157Y-16420894D02*
X14534204Y-16411371D01*
X14534204Y-16411371D02*
X14562776Y-16411371D01*
X14562776Y-16411371D02*
X14581823Y-16420894D01*
X14581823Y-16420894D02*
X14591347Y-16430418D01*
X14591347Y-16430418D02*
X14600871Y-16449466D01*
X14600871Y-16449466D02*
X14600871Y-16506609D01*
X14600871Y-16506609D02*
X14591347Y-16525656D01*
X14591347Y-16525656D02*
X14581823Y-16535180D01*
X14581823Y-16535180D02*
X14562776Y-16544704D01*
X14562776Y-16544704D02*
X14534204Y-16544704D01*
X14715157Y-16544704D02*
X14696109Y-16535180D01*
X14696109Y-16535180D02*
X14686585Y-16516133D01*
X14686585Y-16516133D02*
X14686585Y-16344704D01*
X14867538Y-16535180D02*
X14848490Y-16544704D01*
X14848490Y-16544704D02*
X14810395Y-16544704D01*
X14810395Y-16544704D02*
X14791347Y-16535180D01*
X14791347Y-16535180D02*
X14781823Y-16516133D01*
X14781823Y-16516133D02*
X14781823Y-16439942D01*
X14781823Y-16439942D02*
X14791347Y-16420894D01*
X14791347Y-16420894D02*
X14810395Y-16411371D01*
X14810395Y-16411371D02*
X14848490Y-16411371D01*
X14848490Y-16411371D02*
X14867538Y-16420894D01*
X14867538Y-16420894D02*
X14877061Y-16439942D01*
X14877061Y-16439942D02*
X14877061Y-16458990D01*
X14877061Y-16458990D02*
X14781823Y-16478037D01*
X14953252Y-16535180D02*
X14972299Y-16544704D01*
X14972299Y-16544704D02*
X15010395Y-16544704D01*
X15010395Y-16544704D02*
X15029442Y-16535180D01*
X15029442Y-16535180D02*
X15038966Y-16516133D01*
X15038966Y-16516133D02*
X15038966Y-16506609D01*
X15038966Y-16506609D02*
X15029442Y-16487561D01*
X15029442Y-16487561D02*
X15010395Y-16478037D01*
X15010395Y-16478037D02*
X14981823Y-16478037D01*
X14981823Y-16478037D02*
X14962776Y-16468514D01*
X14962776Y-16468514D02*
X14953252Y-16449466D01*
X14953252Y-16449466D02*
X14953252Y-16439942D01*
X14953252Y-16439942D02*
X14962776Y-16420894D01*
X14962776Y-16420894D02*
X14981823Y-16411371D01*
X14981823Y-16411371D02*
X15010395Y-16411371D01*
X15010395Y-16411371D02*
X15029442Y-16420894D01*
X15105633Y-16620894D02*
X15115157Y-16611371D01*
X15115157Y-16611371D02*
X15134204Y-16582799D01*
X15134204Y-16582799D02*
X15143728Y-16563752D01*
X15143728Y-16563752D02*
X15153252Y-16535180D01*
X15153252Y-16535180D02*
X15162776Y-16487561D01*
X15162776Y-16487561D02*
X15162776Y-16449466D01*
X15162776Y-16449466D02*
X15153252Y-16401847D01*
X15153252Y-16401847D02*
X15143728Y-16373275D01*
X15143728Y-16373275D02*
X15134204Y-16354228D01*
X15134204Y-16354228D02*
X15115157Y-16325656D01*
X15115157Y-16325656D02*
X15105633Y-16316133D01*
X10230570Y-16673220D02*
X10230570Y-16873220D01*
X10130570Y-16773220D02*
X10330570Y-16773220D01*
X10330570Y-16773220D02*
G75*
G02*
X10130570Y-16773220I-100000J0D01*
G01*
X10130570Y-16773220D02*
G75*
G02*
X10330570Y-16773220I100000J0D01*
G01*
X10581823Y-16683752D02*
X10591347Y-16674228D01*
X10591347Y-16674228D02*
X10610394Y-16664704D01*
X10610394Y-16664704D02*
X10658013Y-16664704D01*
X10658013Y-16664704D02*
X10677061Y-16674228D01*
X10677061Y-16674228D02*
X10686585Y-16683752D01*
X10686585Y-16683752D02*
X10696109Y-16702799D01*
X10696109Y-16702799D02*
X10696109Y-16721847D01*
X10696109Y-16721847D02*
X10686585Y-16750418D01*
X10686585Y-16750418D02*
X10572299Y-16864704D01*
X10572299Y-16864704D02*
X10696109Y-16864704D01*
X10781823Y-16845656D02*
X10791347Y-16855180D01*
X10791347Y-16855180D02*
X10781823Y-16864704D01*
X10781823Y-16864704D02*
X10772299Y-16855180D01*
X10772299Y-16855180D02*
X10781823Y-16845656D01*
X10781823Y-16845656D02*
X10781823Y-16864704D01*
X10972299Y-16664704D02*
X10877061Y-16664704D01*
X10877061Y-16664704D02*
X10867537Y-16759942D01*
X10867537Y-16759942D02*
X10877061Y-16750418D01*
X10877061Y-16750418D02*
X10896109Y-16740894D01*
X10896109Y-16740894D02*
X10943728Y-16740894D01*
X10943728Y-16740894D02*
X10962775Y-16750418D01*
X10962775Y-16750418D02*
X10972299Y-16759942D01*
X10972299Y-16759942D02*
X10981823Y-16778990D01*
X10981823Y-16778990D02*
X10981823Y-16826609D01*
X10981823Y-16826609D02*
X10972299Y-16845656D01*
X10972299Y-16845656D02*
X10962775Y-16855180D01*
X10962775Y-16855180D02*
X10943728Y-16864704D01*
X10943728Y-16864704D02*
X10896109Y-16864704D01*
X10896109Y-16864704D02*
X10877061Y-16855180D01*
X10877061Y-16855180D02*
X10867537Y-16845656D01*
X11105632Y-16664704D02*
X11124680Y-16664704D01*
X11124680Y-16664704D02*
X11143728Y-16674228D01*
X11143728Y-16674228D02*
X11153252Y-16683752D01*
X11153252Y-16683752D02*
X11162775Y-16702799D01*
X11162775Y-16702799D02*
X11172299Y-16740894D01*
X11172299Y-16740894D02*
X11172299Y-16788514D01*
X11172299Y-16788514D02*
X11162775Y-16826609D01*
X11162775Y-16826609D02*
X11153252Y-16845656D01*
X11153252Y-16845656D02*
X11143728Y-16855180D01*
X11143728Y-16855180D02*
X11124680Y-16864704D01*
X11124680Y-16864704D02*
X11105632Y-16864704D01*
X11105632Y-16864704D02*
X11086585Y-16855180D01*
X11086585Y-16855180D02*
X11077061Y-16845656D01*
X11077061Y-16845656D02*
X11067537Y-16826609D01*
X11067537Y-16826609D02*
X11058013Y-16788514D01*
X11058013Y-16788514D02*
X11058013Y-16740894D01*
X11058013Y-16740894D02*
X11067537Y-16702799D01*
X11067537Y-16702799D02*
X11077061Y-16683752D01*
X11077061Y-16683752D02*
X11086585Y-16674228D01*
X11086585Y-16674228D02*
X11105632Y-16664704D01*
X11296109Y-16664704D02*
X11315156Y-16664704D01*
X11315156Y-16664704D02*
X11334204Y-16674228D01*
X11334204Y-16674228D02*
X11343728Y-16683752D01*
X11343728Y-16683752D02*
X11353251Y-16702799D01*
X11353251Y-16702799D02*
X11362775Y-16740894D01*
X11362775Y-16740894D02*
X11362775Y-16788514D01*
X11362775Y-16788514D02*
X11353251Y-16826609D01*
X11353251Y-16826609D02*
X11343728Y-16845656D01*
X11343728Y-16845656D02*
X11334204Y-16855180D01*
X11334204Y-16855180D02*
X11315156Y-16864704D01*
X11315156Y-16864704D02*
X11296109Y-16864704D01*
X11296109Y-16864704D02*
X11277061Y-16855180D01*
X11277061Y-16855180D02*
X11267537Y-16845656D01*
X11267537Y-16845656D02*
X11258013Y-16826609D01*
X11258013Y-16826609D02*
X11248490Y-16788514D01*
X11248490Y-16788514D02*
X11248490Y-16740894D01*
X11248490Y-16740894D02*
X11258013Y-16702799D01*
X11258013Y-16702799D02*
X11267537Y-16683752D01*
X11267537Y-16683752D02*
X11277061Y-16674228D01*
X11277061Y-16674228D02*
X11296109Y-16664704D01*
X11448490Y-16864704D02*
X11448490Y-16731371D01*
X11448490Y-16750418D02*
X11458013Y-16740894D01*
X11458013Y-16740894D02*
X11477061Y-16731371D01*
X11477061Y-16731371D02*
X11505632Y-16731371D01*
X11505632Y-16731371D02*
X11524680Y-16740894D01*
X11524680Y-16740894D02*
X11534204Y-16759942D01*
X11534204Y-16759942D02*
X11534204Y-16864704D01*
X11534204Y-16759942D02*
X11543728Y-16740894D01*
X11543728Y-16740894D02*
X11562775Y-16731371D01*
X11562775Y-16731371D02*
X11591347Y-16731371D01*
X11591347Y-16731371D02*
X11610394Y-16740894D01*
X11610394Y-16740894D02*
X11619918Y-16759942D01*
X11619918Y-16759942D02*
X11619918Y-16864704D01*
X11715156Y-16864704D02*
X11715156Y-16731371D01*
X11715156Y-16750418D02*
X11724680Y-16740894D01*
X11724680Y-16740894D02*
X11743728Y-16731371D01*
X11743728Y-16731371D02*
X11772299Y-16731371D01*
X11772299Y-16731371D02*
X11791347Y-16740894D01*
X11791347Y-16740894D02*
X11800871Y-16759942D01*
X11800871Y-16759942D02*
X11800871Y-16864704D01*
X11800871Y-16759942D02*
X11810394Y-16740894D01*
X11810394Y-16740894D02*
X11829442Y-16731371D01*
X11829442Y-16731371D02*
X11858013Y-16731371D01*
X11858013Y-16731371D02*
X11877061Y-16740894D01*
X11877061Y-16740894D02*
X11886585Y-16759942D01*
X11886585Y-16759942D02*
X11886585Y-16864704D01*
X12277061Y-16655180D02*
X12105633Y-16912323D01*
X12534204Y-16664704D02*
X12553252Y-16664704D01*
X12553252Y-16664704D02*
X12572299Y-16674228D01*
X12572299Y-16674228D02*
X12581823Y-16683752D01*
X12581823Y-16683752D02*
X12591347Y-16702799D01*
X12591347Y-16702799D02*
X12600871Y-16740894D01*
X12600871Y-16740894D02*
X12600871Y-16788514D01*
X12600871Y-16788514D02*
X12591347Y-16826609D01*
X12591347Y-16826609D02*
X12581823Y-16845656D01*
X12581823Y-16845656D02*
X12572299Y-16855180D01*
X12572299Y-16855180D02*
X12553252Y-16864704D01*
X12553252Y-16864704D02*
X12534204Y-16864704D01*
X12534204Y-16864704D02*
X12515156Y-16855180D01*
X12515156Y-16855180D02*
X12505633Y-16845656D01*
X12505633Y-16845656D02*
X12496109Y-16826609D01*
X12496109Y-16826609D02*
X12486585Y-16788514D01*
X12486585Y-16788514D02*
X12486585Y-16740894D01*
X12486585Y-16740894D02*
X12496109Y-16702799D01*
X12496109Y-16702799D02*
X12505633Y-16683752D01*
X12505633Y-16683752D02*
X12515156Y-16674228D01*
X12515156Y-16674228D02*
X12534204Y-16664704D01*
X12686585Y-16845656D02*
X12696109Y-16855180D01*
X12696109Y-16855180D02*
X12686585Y-16864704D01*
X12686585Y-16864704D02*
X12677061Y-16855180D01*
X12677061Y-16855180D02*
X12686585Y-16845656D01*
X12686585Y-16845656D02*
X12686585Y-16864704D01*
X12819918Y-16664704D02*
X12838966Y-16664704D01*
X12838966Y-16664704D02*
X12858014Y-16674228D01*
X12858014Y-16674228D02*
X12867537Y-16683752D01*
X12867537Y-16683752D02*
X12877061Y-16702799D01*
X12877061Y-16702799D02*
X12886585Y-16740894D01*
X12886585Y-16740894D02*
X12886585Y-16788514D01*
X12886585Y-16788514D02*
X12877061Y-16826609D01*
X12877061Y-16826609D02*
X12867537Y-16845656D01*
X12867537Y-16845656D02*
X12858014Y-16855180D01*
X12858014Y-16855180D02*
X12838966Y-16864704D01*
X12838966Y-16864704D02*
X12819918Y-16864704D01*
X12819918Y-16864704D02*
X12800871Y-16855180D01*
X12800871Y-16855180D02*
X12791347Y-16845656D01*
X12791347Y-16845656D02*
X12781823Y-16826609D01*
X12781823Y-16826609D02*
X12772299Y-16788514D01*
X12772299Y-16788514D02*
X12772299Y-16740894D01*
X12772299Y-16740894D02*
X12781823Y-16702799D01*
X12781823Y-16702799D02*
X12791347Y-16683752D01*
X12791347Y-16683752D02*
X12800871Y-16674228D01*
X12800871Y-16674228D02*
X12819918Y-16664704D01*
X12981823Y-16864704D02*
X13019918Y-16864704D01*
X13019918Y-16864704D02*
X13038966Y-16855180D01*
X13038966Y-16855180D02*
X13048490Y-16845656D01*
X13048490Y-16845656D02*
X13067537Y-16817085D01*
X13067537Y-16817085D02*
X13077061Y-16778990D01*
X13077061Y-16778990D02*
X13077061Y-16702799D01*
X13077061Y-16702799D02*
X13067537Y-16683752D01*
X13067537Y-16683752D02*
X13058014Y-16674228D01*
X13058014Y-16674228D02*
X13038966Y-16664704D01*
X13038966Y-16664704D02*
X13000871Y-16664704D01*
X13000871Y-16664704D02*
X12981823Y-16674228D01*
X12981823Y-16674228D02*
X12972299Y-16683752D01*
X12972299Y-16683752D02*
X12962775Y-16702799D01*
X12962775Y-16702799D02*
X12962775Y-16750418D01*
X12962775Y-16750418D02*
X12972299Y-16769466D01*
X12972299Y-16769466D02*
X12981823Y-16778990D01*
X12981823Y-16778990D02*
X13000871Y-16788514D01*
X13000871Y-16788514D02*
X13038966Y-16788514D01*
X13038966Y-16788514D02*
X13058014Y-16778990D01*
X13058014Y-16778990D02*
X13067537Y-16769466D01*
X13067537Y-16769466D02*
X13077061Y-16750418D01*
X13191347Y-16750418D02*
X13172299Y-16740894D01*
X13172299Y-16740894D02*
X13162775Y-16731371D01*
X13162775Y-16731371D02*
X13153252Y-16712323D01*
X13153252Y-16712323D02*
X13153252Y-16702799D01*
X13153252Y-16702799D02*
X13162775Y-16683752D01*
X13162775Y-16683752D02*
X13172299Y-16674228D01*
X13172299Y-16674228D02*
X13191347Y-16664704D01*
X13191347Y-16664704D02*
X13229442Y-16664704D01*
X13229442Y-16664704D02*
X13248490Y-16674228D01*
X13248490Y-16674228D02*
X13258014Y-16683752D01*
X13258014Y-16683752D02*
X13267537Y-16702799D01*
X13267537Y-16702799D02*
X13267537Y-16712323D01*
X13267537Y-16712323D02*
X13258014Y-16731371D01*
X13258014Y-16731371D02*
X13248490Y-16740894D01*
X13248490Y-16740894D02*
X13229442Y-16750418D01*
X13229442Y-16750418D02*
X13191347Y-16750418D01*
X13191347Y-16750418D02*
X13172299Y-16759942D01*
X13172299Y-16759942D02*
X13162775Y-16769466D01*
X13162775Y-16769466D02*
X13153252Y-16788514D01*
X13153252Y-16788514D02*
X13153252Y-16826609D01*
X13153252Y-16826609D02*
X13162775Y-16845656D01*
X13162775Y-16845656D02*
X13172299Y-16855180D01*
X13172299Y-16855180D02*
X13191347Y-16864704D01*
X13191347Y-16864704D02*
X13229442Y-16864704D01*
X13229442Y-16864704D02*
X13248490Y-16855180D01*
X13248490Y-16855180D02*
X13258014Y-16845656D01*
X13258014Y-16845656D02*
X13267537Y-16826609D01*
X13267537Y-16826609D02*
X13267537Y-16788514D01*
X13267537Y-16788514D02*
X13258014Y-16769466D01*
X13258014Y-16769466D02*
X13248490Y-16759942D01*
X13248490Y-16759942D02*
X13229442Y-16750418D01*
X13438966Y-16731371D02*
X13438966Y-16864704D01*
X13391347Y-16655180D02*
X13343728Y-16798037D01*
X13343728Y-16798037D02*
X13467537Y-16798037D01*
X13534204Y-16664704D02*
X13534204Y-16702799D01*
X13610395Y-16664704D02*
X13610395Y-16702799D01*
X13905633Y-16940895D02*
X13896109Y-16931371D01*
X13896109Y-16931371D02*
X13877061Y-16902799D01*
X13877061Y-16902799D02*
X13867537Y-16883752D01*
X13867537Y-16883752D02*
X13858014Y-16855180D01*
X13858014Y-16855180D02*
X13848490Y-16807561D01*
X13848490Y-16807561D02*
X13848490Y-16769466D01*
X13848490Y-16769466D02*
X13858014Y-16721847D01*
X13858014Y-16721847D02*
X13867537Y-16693275D01*
X13867537Y-16693275D02*
X13877061Y-16674228D01*
X13877061Y-16674228D02*
X13896109Y-16645656D01*
X13896109Y-16645656D02*
X13905633Y-16636133D01*
X14067537Y-16731371D02*
X14067537Y-16864704D01*
X14019918Y-16655180D02*
X13972299Y-16798037D01*
X13972299Y-16798037D02*
X14096109Y-16798037D01*
X14324680Y-16864704D02*
X14324680Y-16664704D01*
X14410395Y-16864704D02*
X14410395Y-16759942D01*
X14410395Y-16759942D02*
X14400871Y-16740894D01*
X14400871Y-16740894D02*
X14381823Y-16731371D01*
X14381823Y-16731371D02*
X14353252Y-16731371D01*
X14353252Y-16731371D02*
X14334204Y-16740894D01*
X14334204Y-16740894D02*
X14324680Y-16750418D01*
X14534204Y-16864704D02*
X14515157Y-16855180D01*
X14515157Y-16855180D02*
X14505633Y-16845656D01*
X14505633Y-16845656D02*
X14496109Y-16826609D01*
X14496109Y-16826609D02*
X14496109Y-16769466D01*
X14496109Y-16769466D02*
X14505633Y-16750418D01*
X14505633Y-16750418D02*
X14515157Y-16740894D01*
X14515157Y-16740894D02*
X14534204Y-16731371D01*
X14534204Y-16731371D02*
X14562776Y-16731371D01*
X14562776Y-16731371D02*
X14581823Y-16740894D01*
X14581823Y-16740894D02*
X14591347Y-16750418D01*
X14591347Y-16750418D02*
X14600871Y-16769466D01*
X14600871Y-16769466D02*
X14600871Y-16826609D01*
X14600871Y-16826609D02*
X14591347Y-16845656D01*
X14591347Y-16845656D02*
X14581823Y-16855180D01*
X14581823Y-16855180D02*
X14562776Y-16864704D01*
X14562776Y-16864704D02*
X14534204Y-16864704D01*
X14715157Y-16864704D02*
X14696109Y-16855180D01*
X14696109Y-16855180D02*
X14686585Y-16836133D01*
X14686585Y-16836133D02*
X14686585Y-16664704D01*
X14867538Y-16855180D02*
X14848490Y-16864704D01*
X14848490Y-16864704D02*
X14810395Y-16864704D01*
X14810395Y-16864704D02*
X14791347Y-16855180D01*
X14791347Y-16855180D02*
X14781823Y-16836133D01*
X14781823Y-16836133D02*
X14781823Y-16759942D01*
X14781823Y-16759942D02*
X14791347Y-16740894D01*
X14791347Y-16740894D02*
X14810395Y-16731371D01*
X14810395Y-16731371D02*
X14848490Y-16731371D01*
X14848490Y-16731371D02*
X14867538Y-16740894D01*
X14867538Y-16740894D02*
X14877061Y-16759942D01*
X14877061Y-16759942D02*
X14877061Y-16778990D01*
X14877061Y-16778990D02*
X14781823Y-16798037D01*
X14953252Y-16855180D02*
X14972299Y-16864704D01*
X14972299Y-16864704D02*
X15010395Y-16864704D01*
X15010395Y-16864704D02*
X15029442Y-16855180D01*
X15029442Y-16855180D02*
X15038966Y-16836133D01*
X15038966Y-16836133D02*
X15038966Y-16826609D01*
X15038966Y-16826609D02*
X15029442Y-16807561D01*
X15029442Y-16807561D02*
X15010395Y-16798037D01*
X15010395Y-16798037D02*
X14981823Y-16798037D01*
X14981823Y-16798037D02*
X14962776Y-16788514D01*
X14962776Y-16788514D02*
X14953252Y-16769466D01*
X14953252Y-16769466D02*
X14953252Y-16759942D01*
X14953252Y-16759942D02*
X14962776Y-16740894D01*
X14962776Y-16740894D02*
X14981823Y-16731371D01*
X14981823Y-16731371D02*
X15010395Y-16731371D01*
X15010395Y-16731371D02*
X15029442Y-16740894D01*
X15105633Y-16940895D02*
X15115157Y-16931371D01*
X15115157Y-16931371D02*
X15134204Y-16902799D01*
X15134204Y-16902799D02*
X15143728Y-16883752D01*
X15143728Y-16883752D02*
X15153252Y-16855180D01*
X15153252Y-16855180D02*
X15162776Y-16807561D01*
X15162776Y-16807561D02*
X15162776Y-16769466D01*
X15162776Y-16769466D02*
X15153252Y-16721847D01*
X15153252Y-16721847D02*
X15143728Y-16693275D01*
X15143728Y-16693275D02*
X15134204Y-16674228D01*
X15134204Y-16674228D02*
X15115157Y-16645656D01*
X15115157Y-16645656D02*
X15105633Y-16636133D01*
M02*
