G04 #@! TF.GenerationSoftware,KiCad,Pcbnew,9.0.3*
G04 #@! TF.CreationDate,2026-01-20T11:30:40+07:00*
G04 #@! TF.ProjectId,Mini_drone_PCB,4d696e69-5f64-4726-9f6e-655f5043422e,rev?*
G04 #@! TF.SameCoordinates,Original*
G04 #@! TF.FileFunction,AssemblyDrawing,Bot*
%FSLAX46Y46*%
G04 Gerber Fmt 4.6, Leading zero omitted, Abs format (unit mm)*
G04 Created by KiCad (PCBNEW 9.0.3) date 2026-01-20 11:30:40*
%MOMM*%
%LPD*%
G01*
G04 APERTURE LIST*
%ADD10C,0.150000*%
G04 APERTURE END LIST*
D10*
X126607532Y-85466669D02*
X125607532Y-85466669D01*
X125607532Y-85466669D02*
X125607532Y-85847621D01*
X125607532Y-85847621D02*
X125655151Y-85942859D01*
X125655151Y-85942859D02*
X125702770Y-85990478D01*
X125702770Y-85990478D02*
X125798008Y-86038097D01*
X125798008Y-86038097D02*
X125940865Y-86038097D01*
X125940865Y-86038097D02*
X126036103Y-85990478D01*
X126036103Y-85990478D02*
X126083722Y-85942859D01*
X126083722Y-85942859D02*
X126131341Y-85847621D01*
X126131341Y-85847621D02*
X126131341Y-85466669D01*
X126607532Y-86466669D02*
X125607532Y-86466669D01*
X125607532Y-86466669D02*
X126321817Y-86800002D01*
X126321817Y-86800002D02*
X125607532Y-87133335D01*
X125607532Y-87133335D02*
X126607532Y-87133335D01*
X125607532Y-87514288D02*
X126607532Y-87752383D01*
X126607532Y-87752383D02*
X125893246Y-87942859D01*
X125893246Y-87942859D02*
X126607532Y-88133335D01*
X126607532Y-88133335D02*
X125607532Y-88371431D01*
X125607532Y-88657145D02*
X125607532Y-89276192D01*
X125607532Y-89276192D02*
X125988484Y-88942859D01*
X125988484Y-88942859D02*
X125988484Y-89085716D01*
X125988484Y-89085716D02*
X126036103Y-89180954D01*
X126036103Y-89180954D02*
X126083722Y-89228573D01*
X126083722Y-89228573D02*
X126178960Y-89276192D01*
X126178960Y-89276192D02*
X126417055Y-89276192D01*
X126417055Y-89276192D02*
X126512293Y-89228573D01*
X126512293Y-89228573D02*
X126559913Y-89180954D01*
X126559913Y-89180954D02*
X126607532Y-89085716D01*
X126607532Y-89085716D02*
X126607532Y-88800002D01*
X126607532Y-88800002D02*
X126559913Y-88704764D01*
X126559913Y-88704764D02*
X126512293Y-88657145D01*
X126607532Y-89752383D02*
X126607532Y-89942859D01*
X126607532Y-89942859D02*
X126559913Y-90038097D01*
X126559913Y-90038097D02*
X126512293Y-90085716D01*
X126512293Y-90085716D02*
X126369436Y-90180954D01*
X126369436Y-90180954D02*
X126178960Y-90228573D01*
X126178960Y-90228573D02*
X125798008Y-90228573D01*
X125798008Y-90228573D02*
X125702770Y-90180954D01*
X125702770Y-90180954D02*
X125655151Y-90133335D01*
X125655151Y-90133335D02*
X125607532Y-90038097D01*
X125607532Y-90038097D02*
X125607532Y-89847621D01*
X125607532Y-89847621D02*
X125655151Y-89752383D01*
X125655151Y-89752383D02*
X125702770Y-89704764D01*
X125702770Y-89704764D02*
X125798008Y-89657145D01*
X125798008Y-89657145D02*
X126036103Y-89657145D01*
X126036103Y-89657145D02*
X126131341Y-89704764D01*
X126131341Y-89704764D02*
X126178960Y-89752383D01*
X126178960Y-89752383D02*
X126226579Y-89847621D01*
X126226579Y-89847621D02*
X126226579Y-90038097D01*
X126226579Y-90038097D02*
X126178960Y-90133335D01*
X126178960Y-90133335D02*
X126131341Y-90180954D01*
X126131341Y-90180954D02*
X126036103Y-90228573D01*
X125607532Y-90847621D02*
X125607532Y-90942859D01*
X125607532Y-90942859D02*
X125655151Y-91038097D01*
X125655151Y-91038097D02*
X125702770Y-91085716D01*
X125702770Y-91085716D02*
X125798008Y-91133335D01*
X125798008Y-91133335D02*
X125988484Y-91180954D01*
X125988484Y-91180954D02*
X126226579Y-91180954D01*
X126226579Y-91180954D02*
X126417055Y-91133335D01*
X126417055Y-91133335D02*
X126512293Y-91085716D01*
X126512293Y-91085716D02*
X126559913Y-91038097D01*
X126559913Y-91038097D02*
X126607532Y-90942859D01*
X126607532Y-90942859D02*
X126607532Y-90847621D01*
X126607532Y-90847621D02*
X126559913Y-90752383D01*
X126559913Y-90752383D02*
X126512293Y-90704764D01*
X126512293Y-90704764D02*
X126417055Y-90657145D01*
X126417055Y-90657145D02*
X126226579Y-90609526D01*
X126226579Y-90609526D02*
X125988484Y-90609526D01*
X125988484Y-90609526D02*
X125798008Y-90657145D01*
X125798008Y-90657145D02*
X125702770Y-90704764D01*
X125702770Y-90704764D02*
X125655151Y-90752383D01*
X125655151Y-90752383D02*
X125607532Y-90847621D01*
X126607532Y-92133335D02*
X126607532Y-91561907D01*
X126607532Y-91847621D02*
X125607532Y-91847621D01*
X125607532Y-91847621D02*
X125750389Y-91752383D01*
X125750389Y-91752383D02*
X125845627Y-91657145D01*
X125845627Y-91657145D02*
X125893246Y-91561907D01*
X125607532Y-93514288D02*
X125607532Y-93704764D01*
X125607532Y-93704764D02*
X125655151Y-93800002D01*
X125655151Y-93800002D02*
X125750389Y-93895240D01*
X125750389Y-93895240D02*
X125940865Y-93942859D01*
X125940865Y-93942859D02*
X126274198Y-93942859D01*
X126274198Y-93942859D02*
X126464674Y-93895240D01*
X126464674Y-93895240D02*
X126559913Y-93800002D01*
X126559913Y-93800002D02*
X126607532Y-93704764D01*
X126607532Y-93704764D02*
X126607532Y-93514288D01*
X126607532Y-93514288D02*
X126559913Y-93419050D01*
X126559913Y-93419050D02*
X126464674Y-93323812D01*
X126464674Y-93323812D02*
X126274198Y-93276193D01*
X126274198Y-93276193D02*
X125940865Y-93276193D01*
X125940865Y-93276193D02*
X125750389Y-93323812D01*
X125750389Y-93323812D02*
X125655151Y-93419050D01*
X125655151Y-93419050D02*
X125607532Y-93514288D01*
X125940865Y-94371431D02*
X126940865Y-94371431D01*
X125988484Y-94371431D02*
X125940865Y-94466669D01*
X125940865Y-94466669D02*
X125940865Y-94657145D01*
X125940865Y-94657145D02*
X125988484Y-94752383D01*
X125988484Y-94752383D02*
X126036103Y-94800002D01*
X126036103Y-94800002D02*
X126131341Y-94847621D01*
X126131341Y-94847621D02*
X126417055Y-94847621D01*
X126417055Y-94847621D02*
X126512293Y-94800002D01*
X126512293Y-94800002D02*
X126559913Y-94752383D01*
X126559913Y-94752383D02*
X126607532Y-94657145D01*
X126607532Y-94657145D02*
X126607532Y-94466669D01*
X126607532Y-94466669D02*
X126559913Y-94371431D01*
X125940865Y-95133336D02*
X125940865Y-95514288D01*
X125607532Y-95276193D02*
X126464674Y-95276193D01*
X126464674Y-95276193D02*
X126559913Y-95323812D01*
X126559913Y-95323812D02*
X126607532Y-95419050D01*
X126607532Y-95419050D02*
X126607532Y-95514288D01*
X126607532Y-95847622D02*
X125940865Y-95847622D01*
X125607532Y-95847622D02*
X125655151Y-95800003D01*
X125655151Y-95800003D02*
X125702770Y-95847622D01*
X125702770Y-95847622D02*
X125655151Y-95895241D01*
X125655151Y-95895241D02*
X125607532Y-95847622D01*
X125607532Y-95847622D02*
X125702770Y-95847622D01*
X126559913Y-96752383D02*
X126607532Y-96657145D01*
X126607532Y-96657145D02*
X126607532Y-96466669D01*
X126607532Y-96466669D02*
X126559913Y-96371431D01*
X126559913Y-96371431D02*
X126512293Y-96323812D01*
X126512293Y-96323812D02*
X126417055Y-96276193D01*
X126417055Y-96276193D02*
X126131341Y-96276193D01*
X126131341Y-96276193D02*
X126036103Y-96323812D01*
X126036103Y-96323812D02*
X125988484Y-96371431D01*
X125988484Y-96371431D02*
X125940865Y-96466669D01*
X125940865Y-96466669D02*
X125940865Y-96657145D01*
X125940865Y-96657145D02*
X125988484Y-96752383D01*
X126607532Y-97609526D02*
X126083722Y-97609526D01*
X126083722Y-97609526D02*
X125988484Y-97561907D01*
X125988484Y-97561907D02*
X125940865Y-97466669D01*
X125940865Y-97466669D02*
X125940865Y-97276193D01*
X125940865Y-97276193D02*
X125988484Y-97180955D01*
X126559913Y-97609526D02*
X126607532Y-97514288D01*
X126607532Y-97514288D02*
X126607532Y-97276193D01*
X126607532Y-97276193D02*
X126559913Y-97180955D01*
X126559913Y-97180955D02*
X126464674Y-97133336D01*
X126464674Y-97133336D02*
X126369436Y-97133336D01*
X126369436Y-97133336D02*
X126274198Y-97180955D01*
X126274198Y-97180955D02*
X126226579Y-97276193D01*
X126226579Y-97276193D02*
X126226579Y-97514288D01*
X126226579Y-97514288D02*
X126178960Y-97609526D01*
X126607532Y-98228574D02*
X126559913Y-98133336D01*
X126559913Y-98133336D02*
X126464674Y-98085717D01*
X126464674Y-98085717D02*
X125607532Y-98085717D01*
X126083722Y-99704765D02*
X126083722Y-99371432D01*
X126607532Y-99371432D02*
X125607532Y-99371432D01*
X125607532Y-99371432D02*
X125607532Y-99847622D01*
X126607532Y-100371432D02*
X126559913Y-100276194D01*
X126559913Y-100276194D02*
X126464674Y-100228575D01*
X126464674Y-100228575D02*
X125607532Y-100228575D01*
X126607532Y-100895242D02*
X126559913Y-100800004D01*
X126559913Y-100800004D02*
X126512293Y-100752385D01*
X126512293Y-100752385D02*
X126417055Y-100704766D01*
X126417055Y-100704766D02*
X126131341Y-100704766D01*
X126131341Y-100704766D02*
X126036103Y-100752385D01*
X126036103Y-100752385D02*
X125988484Y-100800004D01*
X125988484Y-100800004D02*
X125940865Y-100895242D01*
X125940865Y-100895242D02*
X125940865Y-101038099D01*
X125940865Y-101038099D02*
X125988484Y-101133337D01*
X125988484Y-101133337D02*
X126036103Y-101180956D01*
X126036103Y-101180956D02*
X126131341Y-101228575D01*
X126131341Y-101228575D02*
X126417055Y-101228575D01*
X126417055Y-101228575D02*
X126512293Y-101180956D01*
X126512293Y-101180956D02*
X126559913Y-101133337D01*
X126559913Y-101133337D02*
X126607532Y-101038099D01*
X126607532Y-101038099D02*
X126607532Y-100895242D01*
X125940865Y-101561909D02*
X126607532Y-101752385D01*
X126607532Y-101752385D02*
X126131341Y-101942861D01*
X126131341Y-101942861D02*
X126607532Y-102133337D01*
X126607532Y-102133337D02*
X125940865Y-102323813D01*
X126607532Y-103466671D02*
X125607532Y-103466671D01*
X125607532Y-103466671D02*
X125607532Y-103847623D01*
X125607532Y-103847623D02*
X125655151Y-103942861D01*
X125655151Y-103942861D02*
X125702770Y-103990480D01*
X125702770Y-103990480D02*
X125798008Y-104038099D01*
X125798008Y-104038099D02*
X125940865Y-104038099D01*
X125940865Y-104038099D02*
X126036103Y-103990480D01*
X126036103Y-103990480D02*
X126083722Y-103942861D01*
X126083722Y-103942861D02*
X126131341Y-103847623D01*
X126131341Y-103847623D02*
X126131341Y-103466671D01*
X126607532Y-104609528D02*
X126559913Y-104514290D01*
X126559913Y-104514290D02*
X126512293Y-104466671D01*
X126512293Y-104466671D02*
X126417055Y-104419052D01*
X126417055Y-104419052D02*
X126131341Y-104419052D01*
X126131341Y-104419052D02*
X126036103Y-104466671D01*
X126036103Y-104466671D02*
X125988484Y-104514290D01*
X125988484Y-104514290D02*
X125940865Y-104609528D01*
X125940865Y-104609528D02*
X125940865Y-104752385D01*
X125940865Y-104752385D02*
X125988484Y-104847623D01*
X125988484Y-104847623D02*
X126036103Y-104895242D01*
X126036103Y-104895242D02*
X126131341Y-104942861D01*
X126131341Y-104942861D02*
X126417055Y-104942861D01*
X126417055Y-104942861D02*
X126512293Y-104895242D01*
X126512293Y-104895242D02*
X126559913Y-104847623D01*
X126559913Y-104847623D02*
X126607532Y-104752385D01*
X126607532Y-104752385D02*
X126607532Y-104609528D01*
X125940865Y-105800004D02*
X126750389Y-105800004D01*
X126750389Y-105800004D02*
X126845627Y-105752385D01*
X126845627Y-105752385D02*
X126893246Y-105704766D01*
X126893246Y-105704766D02*
X126940865Y-105609528D01*
X126940865Y-105609528D02*
X126940865Y-105466671D01*
X126940865Y-105466671D02*
X126893246Y-105371433D01*
X126559913Y-105800004D02*
X126607532Y-105704766D01*
X126607532Y-105704766D02*
X126607532Y-105514290D01*
X126607532Y-105514290D02*
X126559913Y-105419052D01*
X126559913Y-105419052D02*
X126512293Y-105371433D01*
X126512293Y-105371433D02*
X126417055Y-105323814D01*
X126417055Y-105323814D02*
X126131341Y-105323814D01*
X126131341Y-105323814D02*
X126036103Y-105371433D01*
X126036103Y-105371433D02*
X125988484Y-105419052D01*
X125988484Y-105419052D02*
X125940865Y-105514290D01*
X125940865Y-105514290D02*
X125940865Y-105704766D01*
X125940865Y-105704766D02*
X125988484Y-105800004D01*
X126607532Y-106419052D02*
X126559913Y-106323814D01*
X126559913Y-106323814D02*
X126512293Y-106276195D01*
X126512293Y-106276195D02*
X126417055Y-106228576D01*
X126417055Y-106228576D02*
X126131341Y-106228576D01*
X126131341Y-106228576D02*
X126036103Y-106276195D01*
X126036103Y-106276195D02*
X125988484Y-106323814D01*
X125988484Y-106323814D02*
X125940865Y-106419052D01*
X125940865Y-106419052D02*
X125940865Y-106561909D01*
X125940865Y-106561909D02*
X125988484Y-106657147D01*
X125988484Y-106657147D02*
X126036103Y-106704766D01*
X126036103Y-106704766D02*
X126131341Y-106752385D01*
X126131341Y-106752385D02*
X126417055Y-106752385D01*
X126417055Y-106752385D02*
X126512293Y-106704766D01*
X126512293Y-106704766D02*
X126559913Y-106657147D01*
X126559913Y-106657147D02*
X126607532Y-106561909D01*
X126607532Y-106561909D02*
X126607532Y-106419052D01*
X127107532Y-95752384D02*
X127821817Y-95752384D01*
X127821817Y-95752384D02*
X127964674Y-95704765D01*
X127964674Y-95704765D02*
X128059913Y-95609527D01*
X128059913Y-95609527D02*
X128107532Y-95466670D01*
X128107532Y-95466670D02*
X128107532Y-95371432D01*
X127107532Y-96133337D02*
X127107532Y-96752384D01*
X127107532Y-96752384D02*
X127488484Y-96419051D01*
X127488484Y-96419051D02*
X127488484Y-96561908D01*
X127488484Y-96561908D02*
X127536103Y-96657146D01*
X127536103Y-96657146D02*
X127583722Y-96704765D01*
X127583722Y-96704765D02*
X127678960Y-96752384D01*
X127678960Y-96752384D02*
X127917055Y-96752384D01*
X127917055Y-96752384D02*
X128012293Y-96704765D01*
X128012293Y-96704765D02*
X128059913Y-96657146D01*
X128059913Y-96657146D02*
X128107532Y-96561908D01*
X128107532Y-96561908D02*
X128107532Y-96276194D01*
X128107532Y-96276194D02*
X128059913Y-96180956D01*
X128059913Y-96180956D02*
X128012293Y-96133337D01*
X155453380Y-108061564D02*
X154453380Y-107728231D01*
X154453380Y-107728231D02*
X155453380Y-107394898D01*
X154453380Y-106585374D02*
X154453380Y-107061564D01*
X154453380Y-107061564D02*
X155453380Y-107061564D01*
X155453380Y-105775850D02*
X155453380Y-106252040D01*
X155453380Y-106252040D02*
X154977190Y-106299659D01*
X154977190Y-106299659D02*
X155024809Y-106252040D01*
X155024809Y-106252040D02*
X155072428Y-106156802D01*
X155072428Y-106156802D02*
X155072428Y-105918707D01*
X155072428Y-105918707D02*
X155024809Y-105823469D01*
X155024809Y-105823469D02*
X154977190Y-105775850D01*
X154977190Y-105775850D02*
X154881952Y-105728231D01*
X154881952Y-105728231D02*
X154643857Y-105728231D01*
X154643857Y-105728231D02*
X154548619Y-105775850D01*
X154548619Y-105775850D02*
X154501000Y-105823469D01*
X154501000Y-105823469D02*
X154453380Y-105918707D01*
X154453380Y-105918707D02*
X154453380Y-106156802D01*
X154453380Y-106156802D02*
X154501000Y-106252040D01*
X154501000Y-106252040D02*
X154548619Y-106299659D01*
X155453380Y-105394897D02*
X155453380Y-104775850D01*
X155453380Y-104775850D02*
X155072428Y-105109183D01*
X155072428Y-105109183D02*
X155072428Y-104966326D01*
X155072428Y-104966326D02*
X155024809Y-104871088D01*
X155024809Y-104871088D02*
X154977190Y-104823469D01*
X154977190Y-104823469D02*
X154881952Y-104775850D01*
X154881952Y-104775850D02*
X154643857Y-104775850D01*
X154643857Y-104775850D02*
X154548619Y-104823469D01*
X154548619Y-104823469D02*
X154501000Y-104871088D01*
X154501000Y-104871088D02*
X154453380Y-104966326D01*
X154453380Y-104966326D02*
X154453380Y-105252040D01*
X154453380Y-105252040D02*
X154501000Y-105347278D01*
X154501000Y-105347278D02*
X154548619Y-105394897D01*
X154453380Y-103871088D02*
X154453380Y-104347278D01*
X154453380Y-104347278D02*
X155453380Y-104347278D01*
X154453380Y-103013945D02*
X154453380Y-103585373D01*
X154453380Y-103299659D02*
X155453380Y-103299659D01*
X155453380Y-103299659D02*
X155310523Y-103394897D01*
X155310523Y-103394897D02*
X155215285Y-103490135D01*
X155215285Y-103490135D02*
X155167666Y-103585373D01*
X155453380Y-102680611D02*
X154453380Y-102013945D01*
X155453380Y-102013945D02*
X154453380Y-102680611D01*
X155453380Y-101013944D02*
X155453380Y-100442516D01*
X154453380Y-100728230D02*
X155453380Y-100728230D01*
X154453380Y-99966325D02*
X154501000Y-100061563D01*
X154501000Y-100061563D02*
X154548619Y-100109182D01*
X154548619Y-100109182D02*
X154643857Y-100156801D01*
X154643857Y-100156801D02*
X154929571Y-100156801D01*
X154929571Y-100156801D02*
X155024809Y-100109182D01*
X155024809Y-100109182D02*
X155072428Y-100061563D01*
X155072428Y-100061563D02*
X155120047Y-99966325D01*
X155120047Y-99966325D02*
X155120047Y-99823468D01*
X155120047Y-99823468D02*
X155072428Y-99728230D01*
X155072428Y-99728230D02*
X155024809Y-99680611D01*
X155024809Y-99680611D02*
X154929571Y-99632992D01*
X154929571Y-99632992D02*
X154643857Y-99632992D01*
X154643857Y-99632992D02*
X154548619Y-99680611D01*
X154548619Y-99680611D02*
X154501000Y-99728230D01*
X154501000Y-99728230D02*
X154453380Y-99823468D01*
X154453380Y-99823468D02*
X154453380Y-99966325D01*
X154977190Y-98871087D02*
X154977190Y-99204420D01*
X154453380Y-99204420D02*
X155453380Y-99204420D01*
X155453380Y-99204420D02*
X155453380Y-98728230D01*
X154453380Y-97585372D02*
X155453380Y-97585372D01*
X155453380Y-97585372D02*
X155453380Y-97204420D01*
X155453380Y-97204420D02*
X155405761Y-97109182D01*
X155405761Y-97109182D02*
X155358142Y-97061563D01*
X155358142Y-97061563D02*
X155262904Y-97013944D01*
X155262904Y-97013944D02*
X155120047Y-97013944D01*
X155120047Y-97013944D02*
X155024809Y-97061563D01*
X155024809Y-97061563D02*
X154977190Y-97109182D01*
X154977190Y-97109182D02*
X154929571Y-97204420D01*
X154929571Y-97204420D02*
X154929571Y-97585372D01*
X154453380Y-96442515D02*
X154501000Y-96537753D01*
X154501000Y-96537753D02*
X154548619Y-96585372D01*
X154548619Y-96585372D02*
X154643857Y-96632991D01*
X154643857Y-96632991D02*
X154929571Y-96632991D01*
X154929571Y-96632991D02*
X155024809Y-96585372D01*
X155024809Y-96585372D02*
X155072428Y-96537753D01*
X155072428Y-96537753D02*
X155120047Y-96442515D01*
X155120047Y-96442515D02*
X155120047Y-96299658D01*
X155120047Y-96299658D02*
X155072428Y-96204420D01*
X155072428Y-96204420D02*
X155024809Y-96156801D01*
X155024809Y-96156801D02*
X154929571Y-96109182D01*
X154929571Y-96109182D02*
X154643857Y-96109182D01*
X154643857Y-96109182D02*
X154548619Y-96156801D01*
X154548619Y-96156801D02*
X154501000Y-96204420D01*
X154501000Y-96204420D02*
X154453380Y-96299658D01*
X154453380Y-96299658D02*
X154453380Y-96442515D01*
X155120047Y-95252039D02*
X154310523Y-95252039D01*
X154310523Y-95252039D02*
X154215285Y-95299658D01*
X154215285Y-95299658D02*
X154167666Y-95347277D01*
X154167666Y-95347277D02*
X154120047Y-95442515D01*
X154120047Y-95442515D02*
X154120047Y-95585372D01*
X154120047Y-95585372D02*
X154167666Y-95680610D01*
X154501000Y-95252039D02*
X154453380Y-95347277D01*
X154453380Y-95347277D02*
X154453380Y-95537753D01*
X154453380Y-95537753D02*
X154501000Y-95632991D01*
X154501000Y-95632991D02*
X154548619Y-95680610D01*
X154548619Y-95680610D02*
X154643857Y-95728229D01*
X154643857Y-95728229D02*
X154929571Y-95728229D01*
X154929571Y-95728229D02*
X155024809Y-95680610D01*
X155024809Y-95680610D02*
X155072428Y-95632991D01*
X155072428Y-95632991D02*
X155120047Y-95537753D01*
X155120047Y-95537753D02*
X155120047Y-95347277D01*
X155120047Y-95347277D02*
X155072428Y-95252039D01*
X154453380Y-94632991D02*
X154501000Y-94728229D01*
X154501000Y-94728229D02*
X154548619Y-94775848D01*
X154548619Y-94775848D02*
X154643857Y-94823467D01*
X154643857Y-94823467D02*
X154929571Y-94823467D01*
X154929571Y-94823467D02*
X155024809Y-94775848D01*
X155024809Y-94775848D02*
X155072428Y-94728229D01*
X155072428Y-94728229D02*
X155120047Y-94632991D01*
X155120047Y-94632991D02*
X155120047Y-94490134D01*
X155120047Y-94490134D02*
X155072428Y-94394896D01*
X155072428Y-94394896D02*
X155024809Y-94347277D01*
X155024809Y-94347277D02*
X154929571Y-94299658D01*
X154929571Y-94299658D02*
X154643857Y-94299658D01*
X154643857Y-94299658D02*
X154548619Y-94347277D01*
X154548619Y-94347277D02*
X154501000Y-94394896D01*
X154501000Y-94394896D02*
X154453380Y-94490134D01*
X154453380Y-94490134D02*
X154453380Y-94632991D01*
X153953380Y-101466326D02*
X153239095Y-101466326D01*
X153239095Y-101466326D02*
X153096238Y-101513945D01*
X153096238Y-101513945D02*
X153001000Y-101609183D01*
X153001000Y-101609183D02*
X152953380Y-101752040D01*
X152953380Y-101752040D02*
X152953380Y-101847278D01*
X153858142Y-101037754D02*
X153905761Y-100990135D01*
X153905761Y-100990135D02*
X153953380Y-100894897D01*
X153953380Y-100894897D02*
X153953380Y-100656802D01*
X153953380Y-100656802D02*
X153905761Y-100561564D01*
X153905761Y-100561564D02*
X153858142Y-100513945D01*
X153858142Y-100513945D02*
X153762904Y-100466326D01*
X153762904Y-100466326D02*
X153667666Y-100466326D01*
X153667666Y-100466326D02*
X153524809Y-100513945D01*
X153524809Y-100513945D02*
X152953380Y-101085373D01*
X152953380Y-101085373D02*
X152953380Y-100466326D01*
M02*
